G75*
%MOIN*%
%OFA0B0*%
%FSLAX25Y25*%
%IPPOS*%
%LPD*%
%AMOC8*
5,1,8,0,0,1.08239X$1,22.5*
%
%ADD10C,0.01000*%
%ADD11R,0.05518X0.06306*%
%ADD12R,0.05400X0.02600*%
%ADD13R,0.02600X0.05400*%
%ADD14R,0.03392X0.08471*%
%ADD15C,0.07000*%
%ADD16C,0.06400*%
%ADD17R,0.04731X0.05912*%
%ADD18C,0.06800*%
%ADD19OC8,0.06400*%
%ADD20R,0.08274X0.04731*%
D10*
X0030024Y0051683D02*
X0167524Y0051683D01*
X0167680Y0051685D01*
X0167836Y0051691D01*
X0167991Y0051700D01*
X0168146Y0051714D01*
X0168301Y0051732D01*
X0168456Y0051753D01*
X0168609Y0051778D01*
X0168762Y0051807D01*
X0168915Y0051840D01*
X0169066Y0051876D01*
X0169217Y0051917D01*
X0169366Y0051961D01*
X0169515Y0052008D01*
X0169662Y0052060D01*
X0169807Y0052115D01*
X0169952Y0052174D01*
X0170095Y0052236D01*
X0170236Y0052302D01*
X0170375Y0052371D01*
X0170513Y0052444D01*
X0170649Y0052520D01*
X0170783Y0052600D01*
X0170915Y0052683D01*
X0171045Y0052769D01*
X0171172Y0052858D01*
X0171298Y0052951D01*
X0171421Y0053047D01*
X0171541Y0053145D01*
X0171660Y0053247D01*
X0171775Y0053351D01*
X0171888Y0053459D01*
X0171998Y0053569D01*
X0172106Y0053682D01*
X0172210Y0053797D01*
X0172312Y0053916D01*
X0172410Y0054036D01*
X0172506Y0054159D01*
X0172599Y0054285D01*
X0172688Y0054412D01*
X0172774Y0054542D01*
X0172857Y0054674D01*
X0172937Y0054808D01*
X0173013Y0054944D01*
X0173086Y0055082D01*
X0173155Y0055221D01*
X0173221Y0055362D01*
X0173283Y0055505D01*
X0173342Y0055650D01*
X0173397Y0055795D01*
X0173449Y0055942D01*
X0173496Y0056091D01*
X0173540Y0056240D01*
X0173581Y0056391D01*
X0173617Y0056542D01*
X0173650Y0056695D01*
X0173679Y0056848D01*
X0173704Y0057001D01*
X0173725Y0057156D01*
X0173743Y0057311D01*
X0173757Y0057466D01*
X0173766Y0057621D01*
X0173772Y0057777D01*
X0173774Y0057933D01*
X0173774Y0157933D01*
X0173772Y0158089D01*
X0173766Y0158245D01*
X0173757Y0158400D01*
X0173743Y0158555D01*
X0173725Y0158710D01*
X0173704Y0158865D01*
X0173679Y0159018D01*
X0173650Y0159171D01*
X0173617Y0159324D01*
X0173581Y0159475D01*
X0173540Y0159626D01*
X0173496Y0159775D01*
X0173449Y0159924D01*
X0173397Y0160071D01*
X0173342Y0160216D01*
X0173283Y0160361D01*
X0173221Y0160504D01*
X0173155Y0160645D01*
X0173086Y0160784D01*
X0173013Y0160922D01*
X0172937Y0161058D01*
X0172857Y0161192D01*
X0172774Y0161324D01*
X0172688Y0161454D01*
X0172599Y0161581D01*
X0172506Y0161707D01*
X0172410Y0161830D01*
X0172312Y0161950D01*
X0172210Y0162069D01*
X0172106Y0162184D01*
X0171998Y0162297D01*
X0171888Y0162407D01*
X0171775Y0162515D01*
X0171660Y0162619D01*
X0171541Y0162721D01*
X0171421Y0162819D01*
X0171298Y0162915D01*
X0171172Y0163008D01*
X0171045Y0163097D01*
X0170915Y0163183D01*
X0170783Y0163266D01*
X0170649Y0163346D01*
X0170513Y0163422D01*
X0170375Y0163495D01*
X0170236Y0163564D01*
X0170095Y0163630D01*
X0169952Y0163692D01*
X0169807Y0163751D01*
X0169662Y0163806D01*
X0169515Y0163858D01*
X0169366Y0163905D01*
X0169217Y0163949D01*
X0169066Y0163990D01*
X0168915Y0164026D01*
X0168762Y0164059D01*
X0168609Y0164088D01*
X0168456Y0164113D01*
X0168301Y0164134D01*
X0168146Y0164152D01*
X0167991Y0164166D01*
X0167836Y0164175D01*
X0167680Y0164181D01*
X0167524Y0164183D01*
X0030024Y0164183D01*
X0029868Y0164181D01*
X0029712Y0164175D01*
X0029557Y0164166D01*
X0029402Y0164152D01*
X0029247Y0164134D01*
X0029092Y0164113D01*
X0028939Y0164088D01*
X0028786Y0164059D01*
X0028633Y0164026D01*
X0028482Y0163990D01*
X0028331Y0163949D01*
X0028182Y0163905D01*
X0028033Y0163858D01*
X0027886Y0163806D01*
X0027741Y0163751D01*
X0027596Y0163692D01*
X0027453Y0163630D01*
X0027312Y0163564D01*
X0027173Y0163495D01*
X0027035Y0163422D01*
X0026899Y0163346D01*
X0026765Y0163266D01*
X0026633Y0163183D01*
X0026503Y0163097D01*
X0026376Y0163008D01*
X0026250Y0162915D01*
X0026127Y0162819D01*
X0026007Y0162721D01*
X0025888Y0162619D01*
X0025773Y0162515D01*
X0025660Y0162407D01*
X0025550Y0162297D01*
X0025442Y0162184D01*
X0025338Y0162069D01*
X0025236Y0161950D01*
X0025138Y0161830D01*
X0025042Y0161707D01*
X0024949Y0161581D01*
X0024860Y0161454D01*
X0024774Y0161324D01*
X0024691Y0161192D01*
X0024611Y0161058D01*
X0024535Y0160922D01*
X0024462Y0160784D01*
X0024393Y0160645D01*
X0024327Y0160504D01*
X0024265Y0160361D01*
X0024206Y0160216D01*
X0024151Y0160071D01*
X0024099Y0159924D01*
X0024052Y0159775D01*
X0024008Y0159626D01*
X0023967Y0159475D01*
X0023931Y0159324D01*
X0023898Y0159171D01*
X0023869Y0159018D01*
X0023844Y0158865D01*
X0023823Y0158710D01*
X0023805Y0158555D01*
X0023791Y0158400D01*
X0023782Y0158245D01*
X0023776Y0158089D01*
X0023774Y0157933D01*
X0023774Y0057933D01*
X0023776Y0057777D01*
X0023782Y0057621D01*
X0023791Y0057466D01*
X0023805Y0057311D01*
X0023823Y0057156D01*
X0023844Y0057001D01*
X0023869Y0056848D01*
X0023898Y0056695D01*
X0023931Y0056542D01*
X0023967Y0056391D01*
X0024008Y0056240D01*
X0024052Y0056091D01*
X0024099Y0055942D01*
X0024151Y0055795D01*
X0024206Y0055650D01*
X0024265Y0055505D01*
X0024327Y0055362D01*
X0024393Y0055221D01*
X0024462Y0055082D01*
X0024535Y0054944D01*
X0024611Y0054808D01*
X0024691Y0054674D01*
X0024774Y0054542D01*
X0024860Y0054412D01*
X0024949Y0054285D01*
X0025042Y0054159D01*
X0025138Y0054036D01*
X0025236Y0053916D01*
X0025338Y0053797D01*
X0025442Y0053682D01*
X0025550Y0053569D01*
X0025660Y0053459D01*
X0025773Y0053351D01*
X0025888Y0053247D01*
X0026007Y0053145D01*
X0026127Y0053047D01*
X0026250Y0052951D01*
X0026376Y0052858D01*
X0026503Y0052769D01*
X0026633Y0052683D01*
X0026765Y0052600D01*
X0026899Y0052520D01*
X0027035Y0052444D01*
X0027173Y0052371D01*
X0027312Y0052302D01*
X0027453Y0052236D01*
X0027596Y0052174D01*
X0027741Y0052115D01*
X0027886Y0052060D01*
X0028033Y0052008D01*
X0028182Y0051961D01*
X0028331Y0051917D01*
X0028482Y0051876D01*
X0028633Y0051840D01*
X0028786Y0051807D01*
X0028939Y0051778D01*
X0029092Y0051753D01*
X0029247Y0051732D01*
X0029402Y0051714D01*
X0029557Y0051700D01*
X0029712Y0051691D01*
X0029868Y0051685D01*
X0030024Y0051683D01*
D11*
G36*
X0113201Y0101717D02*
X0117103Y0097815D01*
X0112645Y0093357D01*
X0108743Y0097259D01*
X0113201Y0101717D01*
G37*
G36*
X0118490Y0096428D02*
X0122392Y0092526D01*
X0117934Y0088068D01*
X0114032Y0091970D01*
X0118490Y0096428D01*
G37*
X0121234Y0082173D03*
X0128714Y0082173D03*
X0053449Y0135418D03*
X0045968Y0135418D03*
X0048999Y0150950D03*
X0056479Y0150950D03*
D12*
G36*
X0082245Y0126487D02*
X0078428Y0130304D01*
X0080267Y0132143D01*
X0084084Y0128326D01*
X0082245Y0126487D01*
G37*
G36*
X0080018Y0124260D02*
X0076201Y0128077D01*
X0078040Y0129916D01*
X0081857Y0126099D01*
X0080018Y0124260D01*
G37*
G36*
X0084472Y0128715D02*
X0080655Y0132532D01*
X0082494Y0134371D01*
X0086311Y0130554D01*
X0084472Y0128715D01*
G37*
G36*
X0086699Y0130942D02*
X0082882Y0134759D01*
X0084721Y0136598D01*
X0088538Y0132781D01*
X0086699Y0130942D01*
G37*
G36*
X0088927Y0133169D02*
X0085110Y0136986D01*
X0086949Y0138825D01*
X0090766Y0135008D01*
X0088927Y0133169D01*
G37*
G36*
X0091154Y0135396D02*
X0087337Y0139213D01*
X0089176Y0141052D01*
X0092993Y0137235D01*
X0091154Y0135396D01*
G37*
G36*
X0093381Y0137623D02*
X0089564Y0141440D01*
X0091403Y0143279D01*
X0095220Y0139462D01*
X0093381Y0137623D01*
G37*
G36*
X0095608Y0139850D02*
X0091791Y0143667D01*
X0093630Y0145506D01*
X0097447Y0141689D01*
X0095608Y0139850D01*
G37*
G36*
X0119508Y0115950D02*
X0115691Y0119767D01*
X0117530Y0121606D01*
X0121347Y0117789D01*
X0119508Y0115950D01*
G37*
G36*
X0117281Y0113723D02*
X0113464Y0117540D01*
X0115303Y0119379D01*
X0119120Y0115562D01*
X0117281Y0113723D01*
G37*
G36*
X0115054Y0111496D02*
X0111237Y0115313D01*
X0113076Y0117152D01*
X0116893Y0113335D01*
X0115054Y0111496D01*
G37*
G36*
X0112827Y0109269D02*
X0109010Y0113086D01*
X0110849Y0114925D01*
X0114666Y0111108D01*
X0112827Y0109269D01*
G37*
G36*
X0110600Y0107041D02*
X0106783Y0110858D01*
X0108622Y0112697D01*
X0112439Y0108880D01*
X0110600Y0107041D01*
G37*
G36*
X0108373Y0104814D02*
X0104556Y0108631D01*
X0106395Y0110470D01*
X0110212Y0106653D01*
X0108373Y0104814D01*
G37*
G36*
X0106145Y0102587D02*
X0102328Y0106404D01*
X0104167Y0108243D01*
X0107984Y0104426D01*
X0106145Y0102587D01*
G37*
G36*
X0103918Y0100360D02*
X0100101Y0104177D01*
X0101940Y0106016D01*
X0105757Y0102199D01*
X0103918Y0100360D01*
G37*
D13*
G36*
X0093630Y0100360D02*
X0091791Y0102199D01*
X0095608Y0106016D01*
X0097447Y0104177D01*
X0093630Y0100360D01*
G37*
G36*
X0091403Y0102587D02*
X0089564Y0104426D01*
X0093381Y0108243D01*
X0095220Y0106404D01*
X0091403Y0102587D01*
G37*
G36*
X0089176Y0104814D02*
X0087337Y0106653D01*
X0091154Y0110470D01*
X0092993Y0108631D01*
X0089176Y0104814D01*
G37*
G36*
X0086949Y0107041D02*
X0085110Y0108880D01*
X0088927Y0112697D01*
X0090766Y0110858D01*
X0086949Y0107041D01*
G37*
G36*
X0084721Y0109269D02*
X0082882Y0111108D01*
X0086699Y0114925D01*
X0088538Y0113086D01*
X0084721Y0109269D01*
G37*
G36*
X0082494Y0111496D02*
X0080655Y0113335D01*
X0084472Y0117152D01*
X0086311Y0115313D01*
X0082494Y0111496D01*
G37*
G36*
X0080267Y0113723D02*
X0078428Y0115562D01*
X0082245Y0119379D01*
X0084084Y0117540D01*
X0080267Y0113723D01*
G37*
G36*
X0078040Y0115950D02*
X0076201Y0117789D01*
X0080018Y0121606D01*
X0081857Y0119767D01*
X0078040Y0115950D01*
G37*
G36*
X0104167Y0137623D02*
X0102328Y0139462D01*
X0106145Y0143279D01*
X0107984Y0141440D01*
X0104167Y0137623D01*
G37*
G36*
X0106395Y0135396D02*
X0104556Y0137235D01*
X0108373Y0141052D01*
X0110212Y0139213D01*
X0106395Y0135396D01*
G37*
G36*
X0108622Y0133169D02*
X0106783Y0135008D01*
X0110600Y0138825D01*
X0112439Y0136986D01*
X0108622Y0133169D01*
G37*
G36*
X0110849Y0130942D02*
X0109010Y0132781D01*
X0112827Y0136598D01*
X0114666Y0134759D01*
X0110849Y0130942D01*
G37*
G36*
X0113076Y0128715D02*
X0111237Y0130554D01*
X0115054Y0134371D01*
X0116893Y0132532D01*
X0113076Y0128715D01*
G37*
G36*
X0115303Y0126487D02*
X0113464Y0128326D01*
X0117281Y0132143D01*
X0119120Y0130304D01*
X0115303Y0126487D01*
G37*
G36*
X0117530Y0124260D02*
X0115691Y0126099D01*
X0119508Y0129916D01*
X0121347Y0128077D01*
X0117530Y0124260D01*
G37*
G36*
X0101940Y0139850D02*
X0100101Y0141689D01*
X0103918Y0145506D01*
X0105757Y0143667D01*
X0101940Y0139850D01*
G37*
D14*
X0103097Y0067392D03*
X0108097Y0067392D03*
X0113097Y0067392D03*
X0118097Y0067392D03*
X0123097Y0067392D03*
X0098097Y0067392D03*
X0093097Y0067392D03*
X0088097Y0067392D03*
D15*
X0163620Y0115369D03*
X0163620Y0154739D03*
D16*
X0164332Y0092423D02*
X0158332Y0092423D01*
X0141332Y0085423D02*
X0141332Y0079423D01*
X0158332Y0072423D02*
X0164332Y0072423D01*
D17*
X0141461Y0127933D03*
X0133587Y0127933D03*
X0133587Y0136683D03*
X0141461Y0136683D03*
X0141461Y0145433D03*
X0133587Y0145433D03*
X0126961Y0155183D03*
X0119087Y0155183D03*
X0065711Y0125985D03*
X0057837Y0125985D03*
X0057837Y0116635D03*
X0065711Y0116635D03*
X0065711Y0103792D03*
X0057837Y0103792D03*
D18*
X0053524Y0092933D03*
X0043524Y0092933D03*
X0043524Y0082933D03*
X0043524Y0072933D03*
X0053524Y0072933D03*
X0053524Y0082933D03*
D19*
X0044079Y0059183D03*
X0031655Y0059183D03*
X0139558Y0059183D03*
X0151751Y0059183D03*
X0164071Y0059183D03*
X0036274Y0152522D03*
D20*
X0032958Y0123373D03*
X0032958Y0116680D03*
X0032958Y0109987D03*
X0048706Y0109987D03*
X0048706Y0116680D03*
X0048706Y0123373D03*
M02*
