G75*
%MOIN*%
%OFA0B0*%
%FSLAX25Y25*%
%IPPOS*%
%LPD*%
%AMOC8*
5,1,8,0,0,1.08239X$1,22.5*
%
%ADD10C,0.00300*%
%ADD11C,0.01000*%
%ADD12C,0.01200*%
%ADD13R,0.02400X0.00100*%
%ADD14R,0.03600X0.00100*%
%ADD15R,0.04300X0.00100*%
%ADD16R,0.05000X0.00100*%
%ADD17R,0.05600X0.00100*%
%ADD18R,0.06300X0.00100*%
%ADD19R,0.07000X0.00100*%
%ADD20R,0.07300X0.00100*%
%ADD21R,0.07800X0.00100*%
%ADD22R,0.08100X0.00100*%
%ADD23R,0.08500X0.00100*%
%ADD24R,0.09000X0.00100*%
%ADD25R,0.09300X0.00100*%
%ADD26R,0.09600X0.00100*%
%ADD27R,0.09900X0.00100*%
%ADD28R,0.10200X0.00100*%
%ADD29R,0.10600X0.00100*%
%ADD30R,0.10800X0.00100*%
%ADD31R,0.11100X0.00100*%
%ADD32R,0.11400X0.00100*%
%ADD33R,0.11600X0.00100*%
%ADD34R,0.11800X0.00100*%
%ADD35R,0.12000X0.00100*%
%ADD36R,0.12300X0.00100*%
%ADD37R,0.12500X0.00100*%
%ADD38R,0.12700X0.00100*%
%ADD39R,0.12900X0.00100*%
%ADD40R,0.13200X0.00100*%
%ADD41R,0.13300X0.00100*%
%ADD42R,0.13500X0.00100*%
%ADD43R,0.13600X0.00100*%
%ADD44R,0.13800X0.00100*%
%ADD45R,0.14000X0.00100*%
%ADD46R,0.14200X0.00100*%
%ADD47R,0.06700X0.00100*%
%ADD48R,0.06200X0.00100*%
%ADD49R,0.05800X0.00100*%
%ADD50R,0.05500X0.00100*%
%ADD51R,0.05300X0.00100*%
%ADD52R,0.05200X0.00100*%
%ADD53R,0.05100X0.00100*%
%ADD54R,0.04700X0.00100*%
%ADD55R,0.04800X0.00100*%
%ADD56R,0.04500X0.00100*%
%ADD57R,0.04600X0.00100*%
%ADD58R,0.04200X0.00100*%
%ADD59R,0.04100X0.00100*%
%ADD60R,0.04000X0.00100*%
%ADD61R,0.03900X0.00100*%
%ADD62R,0.03800X0.00100*%
%ADD63R,0.03700X0.00100*%
%ADD64R,0.01400X0.00100*%
%ADD65R,0.02000X0.00100*%
%ADD66R,0.02200X0.00100*%
%ADD67R,0.02600X0.00100*%
%ADD68R,0.02800X0.00100*%
%ADD69R,0.02900X0.00100*%
%ADD70R,0.03000X0.00100*%
%ADD71R,0.03100X0.00100*%
%ADD72R,0.03200X0.00100*%
%ADD73R,0.03300X0.00100*%
%ADD74R,0.04400X0.00100*%
%ADD75R,0.02700X0.00100*%
%ADD76R,0.01700X0.00100*%
%ADD77R,0.01600X0.00100*%
%ADD78R,0.04900X0.00100*%
%ADD79R,0.01300X0.00100*%
%ADD80R,0.06600X0.00100*%
%ADD81R,0.06500X0.00100*%
%ADD82R,0.06100X0.00100*%
%ADD83R,0.06000X0.00100*%
%ADD84R,0.05900X0.00100*%
%ADD85R,0.05700X0.00100*%
%ADD86R,0.05400X0.00100*%
%ADD87R,0.07100X0.00100*%
%ADD88R,0.02300X0.00100*%
%ADD89R,0.02500X0.00100*%
%ADD90R,0.02100X0.00100*%
%ADD91R,0.01800X0.00100*%
%ADD92R,0.01500X0.00100*%
%ADD93R,0.01100X0.00100*%
%ADD94R,0.00400X0.00100*%
%ADD95R,0.00900X0.00100*%
%ADD96R,0.06800X0.00100*%
%ADD97R,0.14700X0.00100*%
%ADD98R,0.14600X0.00100*%
%ADD99R,0.14400X0.00100*%
%ADD100R,0.13900X0.00100*%
%ADD101R,0.13700X0.00100*%
%ADD102R,0.13400X0.00100*%
%ADD103R,0.13000X0.00100*%
%ADD104R,0.12800X0.00100*%
%ADD105R,0.12600X0.00100*%
%ADD106R,0.12400X0.00100*%
%ADD107R,0.12200X0.00100*%
%ADD108R,0.00100X0.00100*%
%ADD109R,0.00300X0.00100*%
%ADD110R,0.00500X0.00100*%
%ADD111R,0.11200X0.00100*%
%ADD112R,0.00700X0.00100*%
%ADD113R,0.00600X0.00100*%
%ADD114R,0.11000X0.00100*%
%ADD115R,0.10300X0.00100*%
%ADD116R,0.01200X0.00100*%
%ADD117R,0.10000X0.00100*%
%ADD118R,0.09700X0.00100*%
%ADD119R,0.09400X0.00100*%
%ADD120R,0.09100X0.00100*%
%ADD121R,0.08700X0.00100*%
%ADD122R,0.08200X0.00100*%
%ADD123R,0.07900X0.00100*%
%ADD124R,0.07500X0.00100*%
%ADD125R,0.00200X0.00100*%
%ADD126R,0.00800X0.00100*%
%ADD127R,0.01000X0.00100*%
%ADD128R,0.01900X0.00100*%
%ADD129R,0.07400X0.00100*%
%ADD130R,0.06900X0.00100*%
%ADD131R,0.03500X0.00100*%
%ADD132R,0.08900X0.00100*%
%ADD133R,0.08300X0.00100*%
%ADD134R,0.07200X0.00100*%
%ADD135R,0.03400X0.00100*%
%ADD136R,0.09200X0.00100*%
%ADD137C,0.00400*%
D10*
X0051511Y0055869D02*
X0051511Y0059572D01*
X0053362Y0059572D01*
X0053980Y0058955D01*
X0053980Y0057721D01*
X0053362Y0057103D01*
X0051511Y0057103D01*
X0052745Y0057103D02*
X0053980Y0055869D01*
X0055194Y0055869D02*
X0057663Y0059572D01*
X0055194Y0059572D02*
X0057663Y0055869D01*
X0031678Y0067817D02*
X0030894Y0067033D01*
X0030110Y0067033D01*
X0029326Y0067817D01*
X0028542Y0067033D01*
X0027758Y0067033D01*
X0026974Y0067817D01*
X0026974Y0069385D01*
X0027758Y0070169D01*
X0028542Y0071637D02*
X0031678Y0071637D01*
X0030894Y0070169D02*
X0031678Y0069385D01*
X0031678Y0067817D01*
X0029326Y0067817D02*
X0029326Y0068601D01*
X0028542Y0071637D02*
X0026974Y0073205D01*
X0028542Y0074773D01*
X0031678Y0074773D01*
X0030110Y0080861D02*
X0030110Y0081645D01*
X0028542Y0083213D01*
X0026974Y0083213D02*
X0030110Y0083213D01*
X0029326Y0084681D02*
X0030110Y0085465D01*
X0030110Y0087033D01*
X0029326Y0087817D01*
X0027758Y0087817D01*
X0026974Y0087033D01*
X0026974Y0085465D01*
X0027758Y0084681D01*
X0029326Y0084681D01*
X0030110Y0089285D02*
X0030110Y0091637D01*
X0029326Y0092421D01*
X0028542Y0091637D01*
X0028542Y0090069D01*
X0027758Y0089285D01*
X0026974Y0090069D01*
X0026974Y0092421D01*
X0026974Y0093889D02*
X0029326Y0093889D01*
X0030110Y0094673D01*
X0030110Y0097025D01*
X0026974Y0097025D01*
X0028542Y0098493D02*
X0028542Y0101629D01*
X0027758Y0101629D02*
X0029326Y0101629D01*
X0030110Y0100845D01*
X0030110Y0099277D01*
X0029326Y0098493D01*
X0028542Y0098493D01*
X0026974Y0099277D02*
X0026974Y0100845D01*
X0027758Y0101629D01*
X0027758Y0103097D02*
X0026974Y0103881D01*
X0026974Y0105449D01*
X0027758Y0106233D01*
X0029326Y0105449D02*
X0029326Y0103881D01*
X0028542Y0103097D01*
X0027758Y0103097D01*
X0030894Y0103097D02*
X0031678Y0103881D01*
X0031678Y0105449D01*
X0030894Y0106233D01*
X0030110Y0106233D01*
X0029326Y0105449D01*
X0031447Y0139344D02*
X0031447Y0143047D01*
X0032681Y0143047D02*
X0030212Y0143047D01*
X0033895Y0143047D02*
X0036364Y0139344D01*
X0033895Y0139344D02*
X0036364Y0143047D01*
X0134945Y0069014D02*
X0134945Y0065311D01*
X0134945Y0066545D02*
X0136797Y0066545D01*
X0137414Y0067162D01*
X0137414Y0068397D01*
X0136797Y0069014D01*
X0134945Y0069014D01*
X0138629Y0068397D02*
X0139246Y0069014D01*
X0140480Y0069014D01*
X0141097Y0068397D01*
X0141097Y0067779D01*
X0138629Y0065311D01*
X0141097Y0065311D01*
X0142312Y0065928D02*
X0142929Y0065311D01*
X0144163Y0065311D01*
X0144780Y0065928D01*
X0144780Y0066545D01*
X0144163Y0067162D01*
X0142312Y0067162D01*
X0142312Y0065928D01*
X0142312Y0067162D02*
X0143546Y0068397D01*
X0144780Y0069014D01*
X0147147Y0068679D02*
X0148999Y0068679D01*
X0149616Y0068062D01*
X0149616Y0066828D01*
X0148999Y0066211D01*
X0147147Y0066211D01*
X0147147Y0064976D02*
X0147147Y0068679D01*
X0150830Y0068062D02*
X0151447Y0068679D01*
X0152682Y0068679D01*
X0153299Y0068062D01*
X0153299Y0067445D01*
X0150830Y0064976D01*
X0153299Y0064976D01*
X0154513Y0065593D02*
X0155131Y0064976D01*
X0156365Y0064976D01*
X0156982Y0065593D01*
X0156982Y0066828D01*
X0156365Y0067445D01*
X0155748Y0067445D01*
X0154513Y0066828D01*
X0154513Y0068679D01*
X0156982Y0068679D01*
D11*
X0167524Y0051683D02*
X0030024Y0051683D01*
X0029868Y0051685D01*
X0029712Y0051691D01*
X0029557Y0051700D01*
X0029402Y0051714D01*
X0029247Y0051732D01*
X0029092Y0051753D01*
X0028939Y0051778D01*
X0028786Y0051807D01*
X0028633Y0051840D01*
X0028482Y0051876D01*
X0028331Y0051917D01*
X0028182Y0051961D01*
X0028033Y0052008D01*
X0027886Y0052060D01*
X0027741Y0052115D01*
X0027596Y0052174D01*
X0027453Y0052236D01*
X0027312Y0052302D01*
X0027173Y0052371D01*
X0027035Y0052444D01*
X0026899Y0052520D01*
X0026765Y0052600D01*
X0026633Y0052683D01*
X0026503Y0052769D01*
X0026376Y0052858D01*
X0026250Y0052951D01*
X0026127Y0053047D01*
X0026007Y0053145D01*
X0025888Y0053247D01*
X0025773Y0053351D01*
X0025660Y0053459D01*
X0025550Y0053569D01*
X0025442Y0053682D01*
X0025338Y0053797D01*
X0025236Y0053916D01*
X0025138Y0054036D01*
X0025042Y0054159D01*
X0024949Y0054285D01*
X0024860Y0054412D01*
X0024774Y0054542D01*
X0024691Y0054674D01*
X0024611Y0054808D01*
X0024535Y0054944D01*
X0024462Y0055082D01*
X0024393Y0055221D01*
X0024327Y0055362D01*
X0024265Y0055505D01*
X0024206Y0055650D01*
X0024151Y0055795D01*
X0024099Y0055942D01*
X0024052Y0056091D01*
X0024008Y0056240D01*
X0023967Y0056391D01*
X0023931Y0056542D01*
X0023898Y0056695D01*
X0023869Y0056848D01*
X0023844Y0057001D01*
X0023823Y0057156D01*
X0023805Y0057311D01*
X0023791Y0057466D01*
X0023782Y0057621D01*
X0023776Y0057777D01*
X0023774Y0057933D01*
X0023774Y0157933D01*
X0023776Y0158089D01*
X0023782Y0158245D01*
X0023791Y0158400D01*
X0023805Y0158555D01*
X0023823Y0158710D01*
X0023844Y0158865D01*
X0023869Y0159018D01*
X0023898Y0159171D01*
X0023931Y0159324D01*
X0023967Y0159475D01*
X0024008Y0159626D01*
X0024052Y0159775D01*
X0024099Y0159924D01*
X0024151Y0160071D01*
X0024206Y0160216D01*
X0024265Y0160361D01*
X0024327Y0160504D01*
X0024393Y0160645D01*
X0024462Y0160784D01*
X0024535Y0160922D01*
X0024611Y0161058D01*
X0024691Y0161192D01*
X0024774Y0161324D01*
X0024860Y0161454D01*
X0024949Y0161581D01*
X0025042Y0161707D01*
X0025138Y0161830D01*
X0025236Y0161950D01*
X0025338Y0162069D01*
X0025442Y0162184D01*
X0025550Y0162297D01*
X0025660Y0162407D01*
X0025773Y0162515D01*
X0025888Y0162619D01*
X0026007Y0162721D01*
X0026127Y0162819D01*
X0026250Y0162915D01*
X0026376Y0163008D01*
X0026503Y0163097D01*
X0026633Y0163183D01*
X0026765Y0163266D01*
X0026899Y0163346D01*
X0027035Y0163422D01*
X0027173Y0163495D01*
X0027312Y0163564D01*
X0027453Y0163630D01*
X0027596Y0163692D01*
X0027741Y0163751D01*
X0027886Y0163806D01*
X0028033Y0163858D01*
X0028182Y0163905D01*
X0028331Y0163949D01*
X0028482Y0163990D01*
X0028633Y0164026D01*
X0028786Y0164059D01*
X0028939Y0164088D01*
X0029092Y0164113D01*
X0029247Y0164134D01*
X0029402Y0164152D01*
X0029557Y0164166D01*
X0029712Y0164175D01*
X0029868Y0164181D01*
X0030024Y0164183D01*
X0167524Y0164183D01*
X0167680Y0164181D01*
X0167836Y0164175D01*
X0167991Y0164166D01*
X0168146Y0164152D01*
X0168301Y0164134D01*
X0168456Y0164113D01*
X0168609Y0164088D01*
X0168762Y0164059D01*
X0168915Y0164026D01*
X0169066Y0163990D01*
X0169217Y0163949D01*
X0169366Y0163905D01*
X0169515Y0163858D01*
X0169662Y0163806D01*
X0169807Y0163751D01*
X0169952Y0163692D01*
X0170095Y0163630D01*
X0170236Y0163564D01*
X0170375Y0163495D01*
X0170513Y0163422D01*
X0170649Y0163346D01*
X0170783Y0163266D01*
X0170915Y0163183D01*
X0171045Y0163097D01*
X0171172Y0163008D01*
X0171298Y0162915D01*
X0171421Y0162819D01*
X0171541Y0162721D01*
X0171660Y0162619D01*
X0171775Y0162515D01*
X0171888Y0162407D01*
X0171998Y0162297D01*
X0172106Y0162184D01*
X0172210Y0162069D01*
X0172312Y0161950D01*
X0172410Y0161830D01*
X0172506Y0161707D01*
X0172599Y0161581D01*
X0172688Y0161454D01*
X0172774Y0161324D01*
X0172857Y0161192D01*
X0172937Y0161058D01*
X0173013Y0160922D01*
X0173086Y0160784D01*
X0173155Y0160645D01*
X0173221Y0160504D01*
X0173283Y0160361D01*
X0173342Y0160216D01*
X0173397Y0160071D01*
X0173449Y0159924D01*
X0173496Y0159775D01*
X0173540Y0159626D01*
X0173581Y0159475D01*
X0173617Y0159324D01*
X0173650Y0159171D01*
X0173679Y0159018D01*
X0173704Y0158865D01*
X0173725Y0158710D01*
X0173743Y0158555D01*
X0173757Y0158400D01*
X0173766Y0158245D01*
X0173772Y0158089D01*
X0173774Y0157933D01*
X0173774Y0057933D01*
X0173772Y0057777D01*
X0173766Y0057621D01*
X0173757Y0057466D01*
X0173743Y0057311D01*
X0173725Y0057156D01*
X0173704Y0057001D01*
X0173679Y0056848D01*
X0173650Y0056695D01*
X0173617Y0056542D01*
X0173581Y0056391D01*
X0173540Y0056240D01*
X0173496Y0056091D01*
X0173449Y0055942D01*
X0173397Y0055795D01*
X0173342Y0055650D01*
X0173283Y0055505D01*
X0173221Y0055362D01*
X0173155Y0055221D01*
X0173086Y0055082D01*
X0173013Y0054944D01*
X0172937Y0054808D01*
X0172857Y0054674D01*
X0172774Y0054542D01*
X0172688Y0054412D01*
X0172599Y0054285D01*
X0172506Y0054159D01*
X0172410Y0054036D01*
X0172312Y0053916D01*
X0172210Y0053797D01*
X0172106Y0053682D01*
X0171998Y0053569D01*
X0171888Y0053459D01*
X0171775Y0053351D01*
X0171660Y0053247D01*
X0171541Y0053145D01*
X0171421Y0053047D01*
X0171298Y0052951D01*
X0171172Y0052858D01*
X0171045Y0052769D01*
X0170915Y0052683D01*
X0170783Y0052600D01*
X0170649Y0052520D01*
X0170513Y0052444D01*
X0170375Y0052371D01*
X0170236Y0052302D01*
X0170095Y0052236D01*
X0169952Y0052174D01*
X0169807Y0052115D01*
X0169662Y0052060D01*
X0169515Y0052008D01*
X0169366Y0051961D01*
X0169217Y0051917D01*
X0169066Y0051876D01*
X0168915Y0051840D01*
X0168762Y0051807D01*
X0168609Y0051778D01*
X0168456Y0051753D01*
X0168301Y0051732D01*
X0168146Y0051714D01*
X0167991Y0051700D01*
X0167836Y0051691D01*
X0167680Y0051685D01*
X0167524Y0051683D01*
D12*
X0099474Y0137232D02*
X0098340Y0137232D01*
X0098340Y0138366D01*
X0099474Y0138366D01*
X0099474Y0137232D01*
D13*
X0106024Y0130883D03*
X0094924Y0127683D03*
X0093424Y0129383D03*
X0091424Y0130983D03*
X0091224Y0130883D03*
X0100824Y0119783D03*
X0097024Y0115983D03*
X0098624Y0108983D03*
D14*
X0098624Y0109083D03*
X0105224Y0114483D03*
X0105524Y0115283D03*
X0105324Y0121383D03*
X0105224Y0121583D03*
X0105224Y0121683D03*
X0105124Y0121783D03*
X0103424Y0131983D03*
D15*
X0098674Y0128583D03*
X0105474Y0119883D03*
X0105574Y0117683D03*
X0105574Y0117583D03*
X0104174Y0113083D03*
X0098674Y0109183D03*
X0093074Y0113083D03*
X0091974Y0115483D03*
X0091974Y0115583D03*
X0091974Y0115683D03*
D16*
X0092824Y0121983D03*
X0092924Y0122083D03*
X0093024Y0122183D03*
X0103524Y0112683D03*
X0105224Y0118383D03*
X0098624Y0109283D03*
D17*
X0098624Y0109383D03*
X0092324Y0117883D03*
X0093624Y0122783D03*
X0098624Y0133183D03*
D18*
X0094274Y0123183D03*
X0092674Y0117183D03*
X0092774Y0117083D03*
X0098674Y0109483D03*
X0104574Y0119183D03*
D19*
X0094724Y0123383D03*
X0098624Y0109583D03*
D20*
X0098674Y0109683D03*
D21*
X0098624Y0109783D03*
X0098724Y0130483D03*
D22*
X0098674Y0109883D03*
D23*
X0098674Y0109983D03*
D24*
X0098624Y0110083D03*
D25*
X0098674Y0110183D03*
D26*
X0098624Y0110283D03*
D27*
X0098674Y0110383D03*
D28*
X0098624Y0110483D03*
X0098624Y0132583D03*
D29*
X0098624Y0125483D03*
X0098624Y0110583D03*
D30*
X0098624Y0110683D03*
X0098624Y0132483D03*
D31*
X0098674Y0110783D03*
D32*
X0098624Y0110883D03*
X0098624Y0125183D03*
D33*
X0098624Y0125083D03*
X0098624Y0110983D03*
D34*
X0098624Y0111083D03*
D35*
X0098624Y0111183D03*
X0098624Y0124983D03*
X0098624Y0132283D03*
D36*
X0098674Y0111283D03*
D37*
X0098674Y0111383D03*
D38*
X0098674Y0111483D03*
D39*
X0098674Y0111583D03*
D40*
X0098624Y0111683D03*
X0098624Y0124383D03*
D41*
X0098674Y0111783D03*
D42*
X0098674Y0111883D03*
D43*
X0098624Y0111983D03*
X0098624Y0124183D03*
D44*
X0098624Y0112083D03*
D45*
X0098624Y0112183D03*
X0098624Y0123883D03*
D46*
X0098624Y0123783D03*
X0098624Y0112283D03*
D47*
X0094774Y0112383D03*
X0092974Y0116783D03*
X0104274Y0119383D03*
D48*
X0104624Y0119083D03*
X0102724Y0112383D03*
X0092624Y0117283D03*
X0098724Y0130683D03*
D49*
X0093724Y0122883D03*
X0092424Y0117683D03*
X0094324Y0112483D03*
D50*
X0092274Y0117983D03*
X0092274Y0118083D03*
X0093474Y0122683D03*
X0104974Y0118783D03*
X0103074Y0112483D03*
D51*
X0093974Y0112583D03*
X0092174Y0118283D03*
X0092174Y0118383D03*
X0093274Y0122483D03*
D52*
X0093224Y0122383D03*
X0093124Y0122283D03*
X0098624Y0126783D03*
X0098624Y0128483D03*
X0098724Y0130783D03*
X0105124Y0118583D03*
X0103324Y0112583D03*
X0092124Y0118483D03*
D53*
X0092074Y0118583D03*
X0092074Y0118683D03*
X0092074Y0118783D03*
X0092074Y0118883D03*
X0093774Y0112683D03*
X0105174Y0118483D03*
D54*
X0105374Y0118083D03*
X0105274Y0119583D03*
X0093574Y0112783D03*
X0091974Y0116483D03*
X0092074Y0119783D03*
X0092074Y0119883D03*
X0092074Y0119983D03*
X0092074Y0120083D03*
X0092074Y0120183D03*
X0092074Y0120283D03*
X0092174Y0120383D03*
X0092174Y0120483D03*
X0092174Y0120583D03*
X0092274Y0120683D03*
X0092274Y0120783D03*
X0092274Y0120883D03*
X0092374Y0120983D03*
X0092374Y0121083D03*
X0092474Y0121283D03*
X0092574Y0121483D03*
X0096074Y0130083D03*
D55*
X0094824Y0132183D03*
X0092624Y0121583D03*
X0092524Y0121383D03*
X0092424Y0121183D03*
X0092024Y0119683D03*
X0092024Y0119583D03*
X0092024Y0119483D03*
X0092024Y0119383D03*
X0092024Y0116583D03*
X0103724Y0112783D03*
X0105324Y0118183D03*
D56*
X0105474Y0117883D03*
X0103974Y0112983D03*
X0093374Y0112883D03*
X0093274Y0112983D03*
X0091974Y0116283D03*
D57*
X0091924Y0116383D03*
X0098624Y0126883D03*
X0098724Y0133283D03*
X0105324Y0119683D03*
X0105424Y0117983D03*
X0103924Y0112883D03*
D58*
X0104224Y0113183D03*
X0104324Y0113283D03*
X0104424Y0113383D03*
X0105624Y0117283D03*
X0105624Y0117383D03*
X0105624Y0117483D03*
X0105424Y0119983D03*
X0104224Y0123083D03*
X0098724Y0130883D03*
X0092024Y0115383D03*
X0092024Y0115283D03*
X0092124Y0115083D03*
X0092124Y0114983D03*
X0092224Y0114883D03*
X0092224Y0114783D03*
X0092224Y0114683D03*
X0092324Y0114383D03*
X0092424Y0114183D03*
X0093024Y0113183D03*
D59*
X0092874Y0113283D03*
X0092874Y0113383D03*
X0092774Y0113483D03*
X0092574Y0113783D03*
X0092574Y0113883D03*
X0092474Y0113983D03*
X0092474Y0114083D03*
X0092374Y0114283D03*
X0092274Y0114483D03*
X0092274Y0114583D03*
X0092074Y0115183D03*
X0105674Y0117083D03*
X0105674Y0117183D03*
X0105474Y0120083D03*
D60*
X0105524Y0120183D03*
X0105524Y0120283D03*
X0105724Y0116983D03*
X0105724Y0116883D03*
X0105724Y0116783D03*
X0104724Y0113683D03*
X0104624Y0113583D03*
X0104524Y0113483D03*
X0104424Y0122883D03*
X0104324Y0122983D03*
X0094224Y0132083D03*
X0092624Y0113683D03*
X0092724Y0113583D03*
D61*
X0104774Y0113783D03*
X0104874Y0113883D03*
X0105674Y0116583D03*
X0105674Y0116683D03*
X0105474Y0120483D03*
X0103074Y0132083D03*
D62*
X0102124Y0129983D03*
X0098624Y0126983D03*
X0104524Y0122783D03*
X0104624Y0122683D03*
X0104724Y0122583D03*
X0104724Y0122483D03*
X0104824Y0122383D03*
X0105424Y0121083D03*
X0105424Y0120983D03*
X0105524Y0120683D03*
X0105524Y0120583D03*
X0105524Y0120383D03*
X0105724Y0116483D03*
X0105724Y0116383D03*
X0105724Y0116283D03*
X0105024Y0114183D03*
X0104924Y0114083D03*
X0104924Y0113983D03*
D63*
X0105074Y0114283D03*
X0105174Y0114383D03*
X0105274Y0114583D03*
X0105274Y0114683D03*
X0105374Y0114783D03*
X0105374Y0114883D03*
X0105374Y0114983D03*
X0105474Y0115083D03*
X0105474Y0115183D03*
X0105574Y0115383D03*
X0105574Y0115483D03*
X0105574Y0115583D03*
X0105574Y0115683D03*
X0105574Y0115783D03*
X0105674Y0115883D03*
X0105674Y0115983D03*
X0105674Y0116083D03*
X0105674Y0116183D03*
X0105474Y0120783D03*
X0105474Y0120883D03*
X0105374Y0121183D03*
X0105374Y0121283D03*
X0105274Y0121483D03*
X0105074Y0121883D03*
X0105074Y0121983D03*
X0104974Y0122083D03*
X0104974Y0122183D03*
X0104874Y0122283D03*
X0095274Y0129983D03*
X0093874Y0131983D03*
D64*
X0093024Y0126783D03*
X0092524Y0126483D03*
X0092424Y0126383D03*
X0092024Y0126083D03*
X0088524Y0128783D03*
X0096024Y0116583D03*
X0096124Y0116483D03*
X0098324Y0114483D03*
X0105024Y0126283D03*
X0104724Y0126483D03*
X0104424Y0126683D03*
X0107124Y0127383D03*
X0107224Y0127283D03*
X0107324Y0127183D03*
X0107424Y0127083D03*
D65*
X0108224Y0129383D03*
X0107724Y0129783D03*
X0107624Y0129883D03*
X0102924Y0127483D03*
X0098624Y0128783D03*
X0092624Y0128983D03*
X0092424Y0128883D03*
X0092224Y0128783D03*
X0089824Y0129983D03*
X0089524Y0129783D03*
X0096624Y0116183D03*
X0098224Y0114583D03*
D66*
X0098224Y0114683D03*
X0096824Y0116083D03*
X0099724Y0120783D03*
X0104224Y0129283D03*
X0104424Y0129183D03*
X0106724Y0130483D03*
X0107024Y0130283D03*
X0107324Y0130083D03*
X0093024Y0129183D03*
X0090724Y0130583D03*
D67*
X0091624Y0131083D03*
X0091824Y0131183D03*
X0092024Y0131283D03*
X0093924Y0129583D03*
X0095224Y0127783D03*
X0103224Y0129683D03*
X0103724Y0129483D03*
X0105224Y0131283D03*
X0105424Y0131183D03*
X0105624Y0131083D03*
X0099924Y0120483D03*
X0100524Y0119883D03*
X0098124Y0114783D03*
D68*
X0098124Y0114883D03*
X0100324Y0120083D03*
X0100124Y0120183D03*
X0098624Y0127083D03*
X0095624Y0127883D03*
X0092424Y0131483D03*
X0104824Y0131483D03*
X0105024Y0131383D03*
D69*
X0102974Y0129783D03*
X0094474Y0129783D03*
X0097374Y0115783D03*
X0098074Y0114983D03*
D70*
X0098024Y0115083D03*
X0097524Y0115683D03*
X0092724Y0131583D03*
X0104524Y0131583D03*
D71*
X0097974Y0115183D03*
D72*
X0097924Y0115283D03*
X0097824Y0115383D03*
X0097624Y0115583D03*
X0094824Y0129883D03*
X0098624Y0133383D03*
X0102624Y0129883D03*
D73*
X0103974Y0131783D03*
X0104274Y0131683D03*
X0101174Y0127983D03*
X0096074Y0127983D03*
X0093274Y0131783D03*
X0092974Y0131683D03*
X0097774Y0115483D03*
D74*
X0091924Y0115783D03*
X0091924Y0115883D03*
X0091924Y0115983D03*
X0091924Y0116083D03*
X0091924Y0116183D03*
X0105524Y0117783D03*
X0105424Y0119783D03*
X0101424Y0130083D03*
D75*
X0101674Y0127883D03*
X0098674Y0130983D03*
X0094174Y0129683D03*
X0092274Y0131383D03*
X0099974Y0120383D03*
X0100074Y0120283D03*
X0100374Y0119983D03*
X0097174Y0115883D03*
D76*
X0096474Y0116283D03*
X0091174Y0128083D03*
X0091274Y0128183D03*
X0091474Y0128283D03*
X0091774Y0128483D03*
X0088674Y0129083D03*
X0105974Y0128283D03*
X0106074Y0128183D03*
X0106374Y0127983D03*
X0108474Y0129183D03*
X0108874Y0128783D03*
D77*
X0106624Y0127783D03*
X0106524Y0127883D03*
X0106224Y0128083D03*
X0103924Y0126983D03*
X0093324Y0126983D03*
X0092824Y0126683D03*
X0091024Y0127983D03*
X0090924Y0127883D03*
X0090824Y0127783D03*
X0090624Y0127683D03*
X0090524Y0127583D03*
X0088524Y0128883D03*
X0096324Y0116383D03*
D78*
X0092074Y0116683D03*
X0092074Y0118983D03*
X0092074Y0119083D03*
X0092074Y0119183D03*
X0092074Y0119283D03*
X0092674Y0121683D03*
X0092774Y0121783D03*
X0092774Y0121883D03*
X0105274Y0118283D03*
X0102374Y0132183D03*
D79*
X0104874Y0126383D03*
X0105174Y0126183D03*
X0105274Y0126083D03*
X0105374Y0125983D03*
X0095874Y0116683D03*
X0091774Y0125883D03*
X0091874Y0125983D03*
X0092174Y0126183D03*
X0092274Y0126283D03*
D80*
X0098624Y0126583D03*
X0102724Y0123383D03*
X0104424Y0119283D03*
X0092924Y0116883D03*
X0098624Y0133083D03*
D81*
X0102874Y0123283D03*
X0092874Y0116983D03*
D82*
X0092574Y0117383D03*
D83*
X0092524Y0117483D03*
X0093924Y0122983D03*
X0094024Y0123083D03*
X0098624Y0128383D03*
X0103224Y0123183D03*
D84*
X0104774Y0118983D03*
X0098674Y0126683D03*
X0092474Y0117583D03*
D85*
X0092374Y0117783D03*
X0104874Y0118883D03*
D86*
X0105024Y0118683D03*
X0093424Y0122583D03*
X0092224Y0118183D03*
D87*
X0098674Y0126483D03*
X0104074Y0119483D03*
D88*
X0101274Y0119583D03*
X0099774Y0120683D03*
X0102374Y0127683D03*
X0106174Y0130783D03*
X0106374Y0130683D03*
X0106574Y0130583D03*
X0093174Y0129283D03*
X0091074Y0130783D03*
X0090874Y0130683D03*
X0090574Y0130483D03*
D89*
X0093674Y0129483D03*
X0102074Y0127783D03*
X0103474Y0129583D03*
X0103974Y0129383D03*
X0105874Y0130983D03*
X0099874Y0120583D03*
X0100974Y0119683D03*
D90*
X0099674Y0120883D03*
X0102674Y0127583D03*
X0104574Y0129083D03*
X0104774Y0128983D03*
X0104974Y0128883D03*
X0106874Y0130383D03*
X0107174Y0130183D03*
X0107474Y0129983D03*
X0094574Y0127583D03*
X0092774Y0129083D03*
X0090374Y0130383D03*
X0090274Y0130283D03*
X0090074Y0130183D03*
X0089974Y0130083D03*
X0089674Y0129883D03*
D91*
X0089024Y0129383D03*
X0088824Y0129183D03*
X0088524Y0128983D03*
X0091624Y0128383D03*
X0091924Y0128583D03*
X0093524Y0127083D03*
X0093724Y0127183D03*
X0093924Y0127283D03*
X0099624Y0120983D03*
X0103124Y0127383D03*
X0103324Y0127283D03*
X0103524Y0127183D03*
X0103724Y0127083D03*
X0105524Y0128583D03*
X0105624Y0128483D03*
X0105824Y0128383D03*
X0108624Y0129083D03*
X0108724Y0128983D03*
X0108824Y0128883D03*
D92*
X0108874Y0128683D03*
X0106974Y0127483D03*
X0106874Y0127583D03*
X0106774Y0127683D03*
X0104574Y0126583D03*
X0104274Y0126783D03*
X0104074Y0126883D03*
X0099574Y0121083D03*
X0093174Y0126883D03*
X0092674Y0126583D03*
X0090374Y0127483D03*
X0090274Y0127383D03*
X0090174Y0127283D03*
X0090074Y0127183D03*
D93*
X0091474Y0125583D03*
X0099574Y0121183D03*
X0105974Y0125483D03*
X0107374Y0126983D03*
D94*
X0107424Y0126583D03*
X0108924Y0128183D03*
X0101124Y0122983D03*
X0091524Y0125283D03*
X0090024Y0126683D03*
X0088524Y0128283D03*
D95*
X0088474Y0128583D03*
X0090074Y0126983D03*
X0091474Y0125483D03*
X0101074Y0123083D03*
X0105974Y0125383D03*
D96*
X0094524Y0123283D03*
D97*
X0098674Y0123483D03*
D98*
X0098624Y0123583D03*
D99*
X0098624Y0123683D03*
D100*
X0098674Y0123983D03*
D101*
X0098674Y0124083D03*
D102*
X0098624Y0124283D03*
D103*
X0098624Y0124483D03*
D104*
X0098624Y0124583D03*
D105*
X0098624Y0124683D03*
D106*
X0098624Y0124783D03*
D107*
X0098624Y0124883D03*
D108*
X0099074Y0130083D03*
X0100174Y0130983D03*
X0097174Y0130983D03*
X0096274Y0133283D03*
X0094374Y0132883D03*
X0088474Y0128183D03*
X0090074Y0126583D03*
X0091474Y0125183D03*
X0105974Y0124983D03*
D109*
X0105974Y0125083D03*
D110*
X0105974Y0125183D03*
X0107374Y0126683D03*
D111*
X0098624Y0125283D03*
X0098624Y0132383D03*
D112*
X0090074Y0126883D03*
X0088474Y0128483D03*
X0105974Y0125283D03*
D113*
X0107424Y0126783D03*
X0108924Y0128283D03*
X0091524Y0125383D03*
X0090024Y0126783D03*
X0088524Y0128383D03*
D114*
X0098624Y0125383D03*
D115*
X0098674Y0125583D03*
D116*
X0091624Y0125783D03*
X0091524Y0125683D03*
X0090124Y0127083D03*
X0088524Y0128683D03*
X0105524Y0125883D03*
X0105624Y0125783D03*
X0105724Y0125683D03*
X0105824Y0125583D03*
X0108924Y0128583D03*
D117*
X0098624Y0125683D03*
D118*
X0098674Y0125783D03*
X0098574Y0132683D03*
D119*
X0098724Y0130183D03*
X0098624Y0125883D03*
D120*
X0098674Y0125983D03*
D121*
X0098674Y0126083D03*
D122*
X0098624Y0126183D03*
D123*
X0098674Y0126283D03*
X0098674Y0128083D03*
D124*
X0098674Y0126383D03*
D125*
X0107424Y0126483D03*
X0108924Y0128083D03*
D126*
X0108924Y0128383D03*
X0107424Y0126883D03*
D127*
X0108924Y0128483D03*
X0098624Y0127183D03*
D128*
X0094374Y0127483D03*
X0094174Y0127383D03*
X0092074Y0128683D03*
X0089374Y0129683D03*
X0089274Y0129583D03*
X0089174Y0129483D03*
X0088874Y0129283D03*
X0105174Y0128783D03*
X0105374Y0128683D03*
X0107874Y0129683D03*
X0107974Y0129583D03*
X0108074Y0129483D03*
X0108374Y0129283D03*
D129*
X0098624Y0128183D03*
X0098624Y0132983D03*
D130*
X0098674Y0128283D03*
D131*
X0098674Y0128683D03*
D132*
X0098674Y0130283D03*
D133*
X0098674Y0130383D03*
X0098674Y0132883D03*
D134*
X0098724Y0130583D03*
D135*
X0093524Y0131883D03*
X0103724Y0131883D03*
D136*
X0098624Y0132783D03*
D137*
X0076171Y0127446D02*
X0073102Y0127446D01*
X0073102Y0125144D01*
X0074637Y0125912D01*
X0075404Y0125912D01*
X0076171Y0125144D01*
X0076171Y0123610D01*
X0075404Y0122843D01*
X0073869Y0122843D01*
X0073102Y0123610D01*
X0071567Y0122843D02*
X0070033Y0124377D01*
X0070800Y0124377D02*
X0068498Y0124377D01*
X0068498Y0122843D02*
X0068498Y0127446D01*
X0070800Y0127446D01*
X0071567Y0126679D01*
X0071567Y0125144D01*
X0070800Y0124377D01*
X0070598Y0118905D02*
X0068296Y0118905D01*
X0068296Y0114301D01*
X0068296Y0115835D02*
X0070598Y0115835D01*
X0071365Y0116603D01*
X0071365Y0118137D01*
X0070598Y0118905D01*
X0069831Y0115835D02*
X0071365Y0114301D01*
X0072900Y0115068D02*
X0073667Y0114301D01*
X0075202Y0114301D01*
X0075969Y0115068D01*
X0075969Y0115835D01*
X0075202Y0116603D01*
X0072900Y0116603D01*
X0072900Y0115068D01*
X0072900Y0116603D02*
X0074435Y0118137D01*
X0075969Y0118905D01*
X0076576Y0105658D02*
X0073506Y0105658D01*
X0071972Y0104890D02*
X0071972Y0103356D01*
X0071204Y0102588D01*
X0068902Y0102588D01*
X0068902Y0101054D02*
X0068902Y0105658D01*
X0071204Y0105658D01*
X0071972Y0104890D01*
X0070437Y0102588D02*
X0071972Y0101054D01*
X0073506Y0101054D02*
X0073506Y0101821D01*
X0076576Y0104890D01*
X0076576Y0105658D01*
X0064634Y0090449D02*
X0064634Y0087379D01*
X0064634Y0088914D02*
X0060030Y0088914D01*
X0061565Y0087379D01*
X0060797Y0085845D02*
X0062332Y0085845D01*
X0063099Y0085077D01*
X0063099Y0082775D01*
X0063099Y0081241D02*
X0063867Y0081241D01*
X0064634Y0080473D01*
X0064634Y0078939D01*
X0063867Y0078171D01*
X0064634Y0076637D02*
X0064634Y0075102D01*
X0064634Y0075869D02*
X0060030Y0075869D01*
X0060030Y0075102D02*
X0060030Y0076637D01*
X0060797Y0078171D02*
X0061565Y0078171D01*
X0062332Y0078939D01*
X0062332Y0080473D01*
X0063099Y0081241D01*
X0064634Y0082775D02*
X0060030Y0082775D01*
X0060030Y0085077D01*
X0060797Y0085845D01*
X0060797Y0081241D02*
X0060030Y0080473D01*
X0060030Y0078939D01*
X0060797Y0078171D01*
X0076681Y0069465D02*
X0076681Y0064861D01*
X0079750Y0064861D02*
X0079750Y0069465D01*
X0078215Y0067930D01*
X0076681Y0069465D01*
X0081285Y0067930D02*
X0082819Y0069465D01*
X0082819Y0064861D01*
X0081285Y0064861D02*
X0084354Y0064861D01*
X0108893Y0080616D02*
X0109660Y0079849D01*
X0111195Y0079849D01*
X0111962Y0080616D01*
X0113497Y0082151D02*
X0116566Y0082151D01*
X0115799Y0079849D02*
X0115799Y0084453D01*
X0113497Y0082151D01*
X0111962Y0083685D02*
X0111195Y0084453D01*
X0109660Y0084453D01*
X0108893Y0083685D01*
X0108893Y0080616D01*
X0124018Y0094587D02*
X0124018Y0095672D01*
X0124018Y0094587D02*
X0125104Y0093502D01*
X0126189Y0093502D01*
X0126731Y0094044D01*
X0126731Y0095129D01*
X0126189Y0095672D01*
X0126731Y0095129D02*
X0127816Y0095129D01*
X0128359Y0095672D01*
X0128359Y0096757D01*
X0127274Y0097842D01*
X0126189Y0097842D01*
X0125104Y0098928D02*
X0125104Y0100013D01*
X0124018Y0101098D01*
X0122933Y0101098D01*
X0120763Y0098928D01*
X0120763Y0097842D01*
X0121848Y0096757D01*
X0122933Y0096757D01*
X0149499Y0088838D02*
X0149499Y0085769D01*
X0149499Y0087303D02*
X0154103Y0087303D01*
X0153335Y0084234D02*
X0150266Y0084234D01*
X0149499Y0083467D01*
X0149499Y0081932D01*
X0150266Y0081165D01*
X0153335Y0081165D01*
X0154103Y0081932D01*
X0154103Y0083467D01*
X0153335Y0084234D01*
X0151801Y0079630D02*
X0150266Y0079630D01*
X0149499Y0078863D01*
X0149499Y0076561D01*
X0154103Y0076561D01*
X0152568Y0076561D02*
X0152568Y0078863D01*
X0151801Y0079630D01*
X0158816Y0124519D02*
X0158816Y0126821D01*
X0159583Y0127588D01*
X0161118Y0127588D01*
X0161885Y0126821D01*
X0161885Y0124519D01*
X0163420Y0124519D02*
X0158816Y0124519D01*
X0158816Y0129123D02*
X0158816Y0130658D01*
X0158816Y0129890D02*
X0163420Y0129890D01*
X0163420Y0129123D02*
X0163420Y0130658D01*
X0163420Y0132192D02*
X0163420Y0135262D01*
X0163420Y0136796D02*
X0163420Y0139866D01*
X0162653Y0141400D02*
X0163420Y0142167D01*
X0163420Y0143702D01*
X0162653Y0144469D01*
X0159583Y0144469D01*
X0158816Y0143702D01*
X0158816Y0142167D01*
X0159583Y0141400D01*
X0162653Y0141400D01*
X0159583Y0139866D02*
X0162653Y0136796D01*
X0163420Y0136796D01*
X0161118Y0133727D02*
X0161118Y0132192D01*
X0158816Y0132192D02*
X0158816Y0135262D01*
X0158816Y0136796D02*
X0158816Y0139866D01*
X0159583Y0139866D01*
X0154557Y0142843D02*
X0151488Y0142843D01*
X0149953Y0142843D02*
X0148419Y0144377D01*
X0149186Y0144377D02*
X0146884Y0144377D01*
X0146884Y0142843D02*
X0146884Y0147447D01*
X0149186Y0147447D01*
X0149953Y0146679D01*
X0149953Y0145145D01*
X0149186Y0144377D01*
X0151488Y0145912D02*
X0153023Y0147447D01*
X0153023Y0142843D01*
X0152894Y0137607D02*
X0151359Y0137607D01*
X0150592Y0136840D01*
X0149057Y0136840D02*
X0149057Y0135305D01*
X0148290Y0134538D01*
X0145988Y0134538D01*
X0147522Y0134538D02*
X0149057Y0133003D01*
X0150592Y0133003D02*
X0153661Y0136073D01*
X0153661Y0136840D01*
X0152894Y0137607D01*
X0149057Y0136840D02*
X0148290Y0137607D01*
X0145988Y0137607D01*
X0145988Y0133003D01*
X0145738Y0130118D02*
X0148040Y0130118D01*
X0148807Y0129350D01*
X0148807Y0127816D01*
X0148040Y0127048D01*
X0145738Y0127048D01*
X0147272Y0127048D02*
X0148807Y0125514D01*
X0150342Y0126281D02*
X0151109Y0125514D01*
X0152644Y0125514D01*
X0153411Y0126281D01*
X0153411Y0127048D01*
X0152644Y0127816D01*
X0151876Y0127816D01*
X0152644Y0127816D02*
X0153411Y0128583D01*
X0153411Y0129350D01*
X0152644Y0130118D01*
X0151109Y0130118D01*
X0150342Y0129350D01*
X0150592Y0133003D02*
X0153661Y0133003D01*
X0158816Y0132192D02*
X0163420Y0132192D01*
X0145738Y0130118D02*
X0145738Y0125514D01*
X0139497Y0153164D02*
X0139497Y0157768D01*
X0137195Y0155466D01*
X0140265Y0155466D01*
X0135661Y0155466D02*
X0134893Y0154698D01*
X0132592Y0154698D01*
X0134126Y0154698D02*
X0135661Y0153164D01*
X0135661Y0155466D02*
X0135661Y0157000D01*
X0134893Y0157768D01*
X0132592Y0157768D01*
X0132592Y0153164D01*
X0069325Y0149205D02*
X0066255Y0149205D01*
X0067790Y0149205D02*
X0067790Y0153809D01*
X0066255Y0152274D01*
X0064721Y0153041D02*
X0063953Y0153809D01*
X0062419Y0153809D01*
X0061651Y0153041D01*
X0061651Y0149972D01*
X0062419Y0149205D01*
X0063953Y0149205D01*
X0064721Y0149972D01*
X0066051Y0138544D02*
X0065283Y0137776D01*
X0066051Y0138544D02*
X0067585Y0138544D01*
X0068353Y0137776D01*
X0068353Y0137009D01*
X0065283Y0133940D01*
X0068353Y0133940D01*
X0063749Y0134707D02*
X0062981Y0133940D01*
X0061447Y0133940D01*
X0060679Y0134707D01*
X0060679Y0137776D01*
X0061447Y0138544D01*
X0062981Y0138544D01*
X0063749Y0137776D01*
X0042975Y0125301D02*
X0042975Y0122232D01*
X0042975Y0123766D02*
X0038372Y0123766D01*
X0039906Y0122232D01*
X0039139Y0120697D02*
X0038372Y0119930D01*
X0038372Y0117628D01*
X0042975Y0117628D01*
X0042975Y0119930D01*
X0042208Y0120697D01*
X0039139Y0120697D01*
X0038372Y0116093D02*
X0038372Y0113024D01*
X0042975Y0113024D01*
X0042975Y0116093D01*
X0040674Y0114559D02*
X0040674Y0113024D01*
X0042975Y0111489D02*
X0042975Y0108420D01*
X0038372Y0108420D01*
M02*
