G75*
%MOIN*%
%OFA0B0*%
%FSLAX25Y25*%
%IPPOS*%
%LPD*%
%AMOC8*
5,1,8,0,0,1.08239X$1,22.5*
%
%ADD10C,0.01000*%
%ADD11R,0.05118X0.05906*%
%ADD12R,0.05000X0.02200*%
%ADD13R,0.02200X0.05000*%
%ADD14R,0.02992X0.08071*%
%ADD15R,0.04331X0.05512*%
%ADD16R,0.07874X0.04331*%
D10*
X0030024Y0051683D02*
X0167524Y0051683D01*
X0167680Y0051685D01*
X0167836Y0051691D01*
X0167991Y0051700D01*
X0168146Y0051714D01*
X0168301Y0051732D01*
X0168456Y0051753D01*
X0168609Y0051778D01*
X0168762Y0051807D01*
X0168915Y0051840D01*
X0169066Y0051876D01*
X0169217Y0051917D01*
X0169366Y0051961D01*
X0169515Y0052008D01*
X0169662Y0052060D01*
X0169807Y0052115D01*
X0169952Y0052174D01*
X0170095Y0052236D01*
X0170236Y0052302D01*
X0170375Y0052371D01*
X0170513Y0052444D01*
X0170649Y0052520D01*
X0170783Y0052600D01*
X0170915Y0052683D01*
X0171045Y0052769D01*
X0171172Y0052858D01*
X0171298Y0052951D01*
X0171421Y0053047D01*
X0171541Y0053145D01*
X0171660Y0053247D01*
X0171775Y0053351D01*
X0171888Y0053459D01*
X0171998Y0053569D01*
X0172106Y0053682D01*
X0172210Y0053797D01*
X0172312Y0053916D01*
X0172410Y0054036D01*
X0172506Y0054159D01*
X0172599Y0054285D01*
X0172688Y0054412D01*
X0172774Y0054542D01*
X0172857Y0054674D01*
X0172937Y0054808D01*
X0173013Y0054944D01*
X0173086Y0055082D01*
X0173155Y0055221D01*
X0173221Y0055362D01*
X0173283Y0055505D01*
X0173342Y0055650D01*
X0173397Y0055795D01*
X0173449Y0055942D01*
X0173496Y0056091D01*
X0173540Y0056240D01*
X0173581Y0056391D01*
X0173617Y0056542D01*
X0173650Y0056695D01*
X0173679Y0056848D01*
X0173704Y0057001D01*
X0173725Y0057156D01*
X0173743Y0057311D01*
X0173757Y0057466D01*
X0173766Y0057621D01*
X0173772Y0057777D01*
X0173774Y0057933D01*
X0173774Y0157933D01*
X0173772Y0158089D01*
X0173766Y0158245D01*
X0173757Y0158400D01*
X0173743Y0158555D01*
X0173725Y0158710D01*
X0173704Y0158865D01*
X0173679Y0159018D01*
X0173650Y0159171D01*
X0173617Y0159324D01*
X0173581Y0159475D01*
X0173540Y0159626D01*
X0173496Y0159775D01*
X0173449Y0159924D01*
X0173397Y0160071D01*
X0173342Y0160216D01*
X0173283Y0160361D01*
X0173221Y0160504D01*
X0173155Y0160645D01*
X0173086Y0160784D01*
X0173013Y0160922D01*
X0172937Y0161058D01*
X0172857Y0161192D01*
X0172774Y0161324D01*
X0172688Y0161454D01*
X0172599Y0161581D01*
X0172506Y0161707D01*
X0172410Y0161830D01*
X0172312Y0161950D01*
X0172210Y0162069D01*
X0172106Y0162184D01*
X0171998Y0162297D01*
X0171888Y0162407D01*
X0171775Y0162515D01*
X0171660Y0162619D01*
X0171541Y0162721D01*
X0171421Y0162819D01*
X0171298Y0162915D01*
X0171172Y0163008D01*
X0171045Y0163097D01*
X0170915Y0163183D01*
X0170783Y0163266D01*
X0170649Y0163346D01*
X0170513Y0163422D01*
X0170375Y0163495D01*
X0170236Y0163564D01*
X0170095Y0163630D01*
X0169952Y0163692D01*
X0169807Y0163751D01*
X0169662Y0163806D01*
X0169515Y0163858D01*
X0169366Y0163905D01*
X0169217Y0163949D01*
X0169066Y0163990D01*
X0168915Y0164026D01*
X0168762Y0164059D01*
X0168609Y0164088D01*
X0168456Y0164113D01*
X0168301Y0164134D01*
X0168146Y0164152D01*
X0167991Y0164166D01*
X0167836Y0164175D01*
X0167680Y0164181D01*
X0167524Y0164183D01*
X0030024Y0164183D01*
X0029868Y0164181D01*
X0029712Y0164175D01*
X0029557Y0164166D01*
X0029402Y0164152D01*
X0029247Y0164134D01*
X0029092Y0164113D01*
X0028939Y0164088D01*
X0028786Y0164059D01*
X0028633Y0164026D01*
X0028482Y0163990D01*
X0028331Y0163949D01*
X0028182Y0163905D01*
X0028033Y0163858D01*
X0027886Y0163806D01*
X0027741Y0163751D01*
X0027596Y0163692D01*
X0027453Y0163630D01*
X0027312Y0163564D01*
X0027173Y0163495D01*
X0027035Y0163422D01*
X0026899Y0163346D01*
X0026765Y0163266D01*
X0026633Y0163183D01*
X0026503Y0163097D01*
X0026376Y0163008D01*
X0026250Y0162915D01*
X0026127Y0162819D01*
X0026007Y0162721D01*
X0025888Y0162619D01*
X0025773Y0162515D01*
X0025660Y0162407D01*
X0025550Y0162297D01*
X0025442Y0162184D01*
X0025338Y0162069D01*
X0025236Y0161950D01*
X0025138Y0161830D01*
X0025042Y0161707D01*
X0024949Y0161581D01*
X0024860Y0161454D01*
X0024774Y0161324D01*
X0024691Y0161192D01*
X0024611Y0161058D01*
X0024535Y0160922D01*
X0024462Y0160784D01*
X0024393Y0160645D01*
X0024327Y0160504D01*
X0024265Y0160361D01*
X0024206Y0160216D01*
X0024151Y0160071D01*
X0024099Y0159924D01*
X0024052Y0159775D01*
X0024008Y0159626D01*
X0023967Y0159475D01*
X0023931Y0159324D01*
X0023898Y0159171D01*
X0023869Y0159018D01*
X0023844Y0158865D01*
X0023823Y0158710D01*
X0023805Y0158555D01*
X0023791Y0158400D01*
X0023782Y0158245D01*
X0023776Y0158089D01*
X0023774Y0157933D01*
X0023774Y0057933D01*
X0023776Y0057777D01*
X0023782Y0057621D01*
X0023791Y0057466D01*
X0023805Y0057311D01*
X0023823Y0057156D01*
X0023844Y0057001D01*
X0023869Y0056848D01*
X0023898Y0056695D01*
X0023931Y0056542D01*
X0023967Y0056391D01*
X0024008Y0056240D01*
X0024052Y0056091D01*
X0024099Y0055942D01*
X0024151Y0055795D01*
X0024206Y0055650D01*
X0024265Y0055505D01*
X0024327Y0055362D01*
X0024393Y0055221D01*
X0024462Y0055082D01*
X0024535Y0054944D01*
X0024611Y0054808D01*
X0024691Y0054674D01*
X0024774Y0054542D01*
X0024860Y0054412D01*
X0024949Y0054285D01*
X0025042Y0054159D01*
X0025138Y0054036D01*
X0025236Y0053916D01*
X0025338Y0053797D01*
X0025442Y0053682D01*
X0025550Y0053569D01*
X0025660Y0053459D01*
X0025773Y0053351D01*
X0025888Y0053247D01*
X0026007Y0053145D01*
X0026127Y0053047D01*
X0026250Y0052951D01*
X0026376Y0052858D01*
X0026503Y0052769D01*
X0026633Y0052683D01*
X0026765Y0052600D01*
X0026899Y0052520D01*
X0027035Y0052444D01*
X0027173Y0052371D01*
X0027312Y0052302D01*
X0027453Y0052236D01*
X0027596Y0052174D01*
X0027741Y0052115D01*
X0027886Y0052060D01*
X0028033Y0052008D01*
X0028182Y0051961D01*
X0028331Y0051917D01*
X0028482Y0051876D01*
X0028633Y0051840D01*
X0028786Y0051807D01*
X0028939Y0051778D01*
X0029092Y0051753D01*
X0029247Y0051732D01*
X0029402Y0051714D01*
X0029557Y0051700D01*
X0029712Y0051691D01*
X0029868Y0051685D01*
X0030024Y0051683D01*
D11*
G36*
X0113201Y0101434D02*
X0116820Y0097815D01*
X0112645Y0093640D01*
X0109026Y0097259D01*
X0113201Y0101434D01*
G37*
G36*
X0118490Y0096145D02*
X0122109Y0092526D01*
X0117934Y0088351D01*
X0114315Y0091970D01*
X0118490Y0096145D01*
G37*
X0121234Y0082173D03*
X0128714Y0082173D03*
X0053449Y0135418D03*
X0045968Y0135418D03*
X0048999Y0150950D03*
X0056479Y0150950D03*
D12*
G36*
X0082245Y0126770D02*
X0078711Y0130304D01*
X0080267Y0131860D01*
X0083801Y0128326D01*
X0082245Y0126770D01*
G37*
G36*
X0080018Y0124543D02*
X0076484Y0128077D01*
X0078040Y0129633D01*
X0081574Y0126099D01*
X0080018Y0124543D01*
G37*
G36*
X0084472Y0128998D02*
X0080938Y0132532D01*
X0082494Y0134088D01*
X0086028Y0130554D01*
X0084472Y0128998D01*
G37*
G36*
X0086699Y0131225D02*
X0083165Y0134759D01*
X0084721Y0136315D01*
X0088255Y0132781D01*
X0086699Y0131225D01*
G37*
G36*
X0088927Y0133452D02*
X0085393Y0136986D01*
X0086949Y0138542D01*
X0090483Y0135008D01*
X0088927Y0133452D01*
G37*
G36*
X0091154Y0135679D02*
X0087620Y0139213D01*
X0089176Y0140769D01*
X0092710Y0137235D01*
X0091154Y0135679D01*
G37*
G36*
X0093381Y0137906D02*
X0089847Y0141440D01*
X0091403Y0142996D01*
X0094937Y0139462D01*
X0093381Y0137906D01*
G37*
G36*
X0095608Y0140133D02*
X0092074Y0143667D01*
X0093630Y0145223D01*
X0097164Y0141689D01*
X0095608Y0140133D01*
G37*
G36*
X0119508Y0116233D02*
X0115974Y0119767D01*
X0117530Y0121323D01*
X0121064Y0117789D01*
X0119508Y0116233D01*
G37*
G36*
X0117281Y0114006D02*
X0113747Y0117540D01*
X0115303Y0119096D01*
X0118837Y0115562D01*
X0117281Y0114006D01*
G37*
G36*
X0115054Y0111779D02*
X0111520Y0115313D01*
X0113076Y0116869D01*
X0116610Y0113335D01*
X0115054Y0111779D01*
G37*
G36*
X0112827Y0109552D02*
X0109293Y0113086D01*
X0110849Y0114642D01*
X0114383Y0111108D01*
X0112827Y0109552D01*
G37*
G36*
X0110600Y0107324D02*
X0107066Y0110858D01*
X0108622Y0112414D01*
X0112156Y0108880D01*
X0110600Y0107324D01*
G37*
G36*
X0108373Y0105097D02*
X0104839Y0108631D01*
X0106395Y0110187D01*
X0109929Y0106653D01*
X0108373Y0105097D01*
G37*
G36*
X0106145Y0102870D02*
X0102611Y0106404D01*
X0104167Y0107960D01*
X0107701Y0104426D01*
X0106145Y0102870D01*
G37*
G36*
X0103918Y0100643D02*
X0100384Y0104177D01*
X0101940Y0105733D01*
X0105474Y0102199D01*
X0103918Y0100643D01*
G37*
D13*
G36*
X0093630Y0100643D02*
X0092074Y0102199D01*
X0095608Y0105733D01*
X0097164Y0104177D01*
X0093630Y0100643D01*
G37*
G36*
X0091403Y0102870D02*
X0089847Y0104426D01*
X0093381Y0107960D01*
X0094937Y0106404D01*
X0091403Y0102870D01*
G37*
G36*
X0089176Y0105097D02*
X0087620Y0106653D01*
X0091154Y0110187D01*
X0092710Y0108631D01*
X0089176Y0105097D01*
G37*
G36*
X0086949Y0107324D02*
X0085393Y0108880D01*
X0088927Y0112414D01*
X0090483Y0110858D01*
X0086949Y0107324D01*
G37*
G36*
X0084721Y0109552D02*
X0083165Y0111108D01*
X0086699Y0114642D01*
X0088255Y0113086D01*
X0084721Y0109552D01*
G37*
G36*
X0082494Y0111779D02*
X0080938Y0113335D01*
X0084472Y0116869D01*
X0086028Y0115313D01*
X0082494Y0111779D01*
G37*
G36*
X0080267Y0114006D02*
X0078711Y0115562D01*
X0082245Y0119096D01*
X0083801Y0117540D01*
X0080267Y0114006D01*
G37*
G36*
X0078040Y0116233D02*
X0076484Y0117789D01*
X0080018Y0121323D01*
X0081574Y0119767D01*
X0078040Y0116233D01*
G37*
G36*
X0104167Y0137906D02*
X0102611Y0139462D01*
X0106145Y0142996D01*
X0107701Y0141440D01*
X0104167Y0137906D01*
G37*
G36*
X0106395Y0135679D02*
X0104839Y0137235D01*
X0108373Y0140769D01*
X0109929Y0139213D01*
X0106395Y0135679D01*
G37*
G36*
X0108622Y0133452D02*
X0107066Y0135008D01*
X0110600Y0138542D01*
X0112156Y0136986D01*
X0108622Y0133452D01*
G37*
G36*
X0110849Y0131225D02*
X0109293Y0132781D01*
X0112827Y0136315D01*
X0114383Y0134759D01*
X0110849Y0131225D01*
G37*
G36*
X0113076Y0128998D02*
X0111520Y0130554D01*
X0115054Y0134088D01*
X0116610Y0132532D01*
X0113076Y0128998D01*
G37*
G36*
X0115303Y0126770D02*
X0113747Y0128326D01*
X0117281Y0131860D01*
X0118837Y0130304D01*
X0115303Y0126770D01*
G37*
G36*
X0117530Y0124543D02*
X0115974Y0126099D01*
X0119508Y0129633D01*
X0121064Y0128077D01*
X0117530Y0124543D01*
G37*
G36*
X0101940Y0140133D02*
X0100384Y0141689D01*
X0103918Y0145223D01*
X0105474Y0143667D01*
X0101940Y0140133D01*
G37*
D14*
X0103097Y0067392D03*
X0108097Y0067392D03*
X0113097Y0067392D03*
X0118097Y0067392D03*
X0123097Y0067392D03*
X0098097Y0067392D03*
X0093097Y0067392D03*
X0088097Y0067392D03*
D15*
X0065711Y0103792D03*
X0057837Y0103792D03*
X0057837Y0116635D03*
X0065711Y0116635D03*
X0065711Y0125985D03*
X0057837Y0125985D03*
X0119087Y0155183D03*
X0126961Y0155183D03*
X0133587Y0145433D03*
X0141461Y0145433D03*
X0141461Y0136683D03*
X0133587Y0136683D03*
X0133587Y0127933D03*
X0141461Y0127933D03*
D16*
X0048706Y0123373D03*
X0048706Y0116680D03*
X0048706Y0109987D03*
X0032958Y0109987D03*
X0032958Y0116680D03*
X0032958Y0123373D03*
M02*
