%
M48
M72
T01C0.02000
T02C0.03543
T03C0.04000
T04C0.04331
%
T01
X59524Y57120
X81274Y77933
X83774Y89183
X83774Y99183
X78505Y106172
X68949Y80556
X98774Y79183
X113774Y79183
X116021Y57788
X107603Y57433
X98117Y57907
X119532Y103542
X127422Y116072
X123584Y132643
X118902Y137077
X126274Y139183
X118774Y144183
X108825Y150428
X98774Y149183
X81274Y149636
X75592Y139655
X61042Y143960
X29347Y99056
X28123Y76703
X154481Y104351
T02
X53524Y92933
X43524Y92933
X43524Y82933
X43524Y72933
X53524Y72933
X53524Y82933
T03
X44079Y59183
X31655Y59183
X139558Y59183
X151751Y59183
X164071Y59183
X161332Y72423
X141332Y82423
X161332Y92423
X36274Y152522
T04
X163620Y154739
X163620Y115369
M30
