G75*
%MOIN*%
%OFA0B0*%
%FSLAX25Y25*%
%IPPOS*%
%LPD*%
%AMOC8*
5,1,8,0,0,1.08239X$1,22.5*
%
%ADD10C,0.00300*%
%ADD11R,0.02400X0.00100*%
%ADD12R,0.03500X0.00100*%
%ADD13R,0.04400X0.00100*%
%ADD14R,0.05200X0.00100*%
%ADD15R,0.05700X0.00100*%
%ADD16R,0.06200X0.00100*%
%ADD17R,0.06700X0.00100*%
%ADD18R,0.07300X0.00100*%
%ADD19R,0.07600X0.00100*%
%ADD20R,0.08000X0.00100*%
%ADD21R,0.08400X0.00100*%
%ADD22R,0.08800X0.00100*%
%ADD23R,0.09100X0.00100*%
%ADD24R,0.09400X0.00100*%
%ADD25R,0.09700X0.00100*%
%ADD26R,0.10000X0.00100*%
%ADD27R,0.10200X0.00100*%
%ADD28R,0.10500X0.00100*%
%ADD29R,0.10800X0.00100*%
%ADD30R,0.11100X0.00100*%
%ADD31R,0.11200X0.00100*%
%ADD32R,0.11400X0.00100*%
%ADD33R,0.11700X0.00100*%
%ADD34R,0.11900X0.00100*%
%ADD35R,0.12100X0.00100*%
%ADD36R,0.12300X0.00100*%
%ADD37R,0.12500X0.00100*%
%ADD38R,0.12700X0.00100*%
%ADD39R,0.12800X0.00100*%
%ADD40R,0.13000X0.00100*%
%ADD41R,0.13200X0.00100*%
%ADD42R,0.13400X0.00100*%
%ADD43R,0.05500X0.00100*%
%ADD44R,0.00900X0.00100*%
%ADD45R,0.01200X0.00100*%
%ADD46R,0.00100X0.00100*%
%ADD47R,0.00800X0.00100*%
%ADD48R,0.01000X0.00100*%
%ADD49R,0.05100X0.00100*%
%ADD50R,0.02100X0.00100*%
%ADD51R,0.03300X0.00100*%
%ADD52R,0.03100X0.00100*%
%ADD53R,0.01500X0.00100*%
%ADD54R,0.01900X0.00100*%
%ADD55R,0.02800X0.00100*%
%ADD56R,0.04800X0.00100*%
%ADD57R,0.04900X0.00100*%
%ADD58R,0.02700X0.00100*%
%ADD59R,0.03000X0.00100*%
%ADD60R,0.03900X0.00100*%
%ADD61R,0.03800X0.00100*%
%ADD62R,0.03600X0.00100*%
%ADD63R,0.04500X0.00100*%
%ADD64R,0.04600X0.00100*%
%ADD65R,0.04200X0.00100*%
%ADD66R,0.02200X0.00100*%
%ADD67R,0.03400X0.00100*%
%ADD68R,0.04300X0.00100*%
%ADD69R,0.02500X0.00100*%
%ADD70R,0.03700X0.00100*%
%ADD71R,0.04100X0.00100*%
%ADD72R,0.04000X0.00100*%
%ADD73R,0.04700X0.00100*%
%ADD74R,0.02900X0.00100*%
%ADD75R,0.07100X0.00100*%
%ADD76R,0.07200X0.00100*%
%ADD77R,0.05400X0.00100*%
%ADD78R,0.07400X0.00100*%
%ADD79R,0.05600X0.00100*%
%ADD80R,0.07500X0.00100*%
%ADD81R,0.05000X0.00100*%
%ADD82R,0.05800X0.00100*%
%ADD83R,0.06000X0.00100*%
%ADD84R,0.07700X0.00100*%
%ADD85R,0.06100X0.00100*%
%ADD86R,0.07800X0.00100*%
%ADD87R,0.05300X0.00100*%
%ADD88R,0.06300X0.00100*%
%ADD89R,0.03200X0.00100*%
%ADD90R,0.06400X0.00100*%
%ADD91R,0.06500X0.00100*%
%ADD92R,0.06600X0.00100*%
%ADD93R,0.00200X0.00100*%
%ADD94R,0.01600X0.00100*%
%ADD95R,0.01300X0.00100*%
%ADD96R,0.00700X0.00100*%
%ADD97R,0.01100X0.00100*%
%ADD98R,0.00400X0.00100*%
%ADD99R,0.02600X0.00100*%
%ADD100R,0.00600X0.00100*%
%ADD101R,0.00500X0.00100*%
%ADD102R,0.00300X0.00100*%
%ADD103R,0.06800X0.00100*%
%ADD104R,0.02000X0.00100*%
%ADD105R,0.07000X0.00100*%
%ADD106R,0.01800X0.00100*%
%ADD107R,0.01400X0.00100*%
%ADD108R,0.06900X0.00100*%
%ADD109R,0.05900X0.00100*%
%ADD110R,0.01700X0.00100*%
%ADD111R,0.07900X0.00100*%
%ADD112R,0.02300X0.00100*%
%ADD113R,0.13800X0.00100*%
%ADD114R,0.13700X0.00100*%
%ADD115R,0.13600X0.00100*%
%ADD116R,0.12900X0.00100*%
%ADD117R,0.12400X0.00100*%
%ADD118R,0.11500X0.00100*%
%ADD119R,0.11300X0.00100*%
%ADD120R,0.11000X0.00100*%
%ADD121R,0.10300X0.00100*%
%ADD122R,0.09200X0.00100*%
%ADD123R,0.09000X0.00100*%
%ADD124R,0.10600X0.00100*%
%ADD125R,0.10100X0.00100*%
%ADD126R,0.09600X0.00100*%
%ADD127R,0.08200X0.00100*%
D10*
X0027955Y0064945D02*
X0027338Y0065562D01*
X0027955Y0064945D02*
X0029189Y0064945D01*
X0029806Y0065562D01*
X0029806Y0068031D01*
X0029189Y0068648D01*
X0027955Y0068648D01*
X0027338Y0068031D01*
X0031021Y0068031D02*
X0031638Y0068648D01*
X0032872Y0068648D01*
X0033490Y0068031D01*
X0033490Y0065562D01*
X0032872Y0064945D01*
X0031638Y0064945D01*
X0031021Y0065562D01*
X0034704Y0066180D02*
X0034704Y0068648D01*
X0034704Y0066180D02*
X0035938Y0064945D01*
X0037173Y0066180D01*
X0037173Y0068648D01*
X0157439Y0066564D02*
X0157439Y0064095D01*
X0158057Y0063478D01*
X0159908Y0063478D01*
X0159908Y0067181D01*
X0158057Y0067181D01*
X0157439Y0066564D01*
X0161123Y0067181D02*
X0161123Y0063478D01*
X0163591Y0067181D01*
X0163591Y0063478D01*
X0164806Y0064095D02*
X0164806Y0065330D01*
X0166040Y0065330D01*
X0164806Y0066564D02*
X0165423Y0067181D01*
X0166657Y0067181D01*
X0167274Y0066564D01*
X0167274Y0064095D01*
X0166657Y0063478D01*
X0165423Y0063478D01*
X0164806Y0064095D01*
D11*
X0130824Y0075583D03*
X0130624Y0075683D03*
X0127224Y0072583D03*
X0121024Y0072583D03*
X0117724Y0075783D03*
X0117524Y0075683D03*
X0117424Y0075583D03*
X0122924Y0065683D03*
X0125524Y0061383D03*
X0124524Y0060283D03*
X0124124Y0054883D03*
X0102724Y0058383D03*
X0083924Y0063683D03*
X0080224Y0064083D03*
X0080124Y0063983D03*
X0080024Y0063783D03*
X0079924Y0063583D03*
X0079824Y0063483D03*
X0079824Y0063383D03*
X0079824Y0063283D03*
X0082024Y0058283D03*
X0070724Y0063683D03*
X0066924Y0063983D03*
X0066824Y0063783D03*
X0066724Y0063683D03*
X0066724Y0063583D03*
X0066624Y0063483D03*
X0066624Y0063383D03*
X0061724Y0066283D03*
X0068824Y0058283D03*
D12*
X0068774Y0058483D03*
X0070474Y0060183D03*
X0075474Y0059683D03*
X0075574Y0065783D03*
X0075474Y0067483D03*
X0081874Y0064983D03*
X0083674Y0060183D03*
X0081974Y0058483D03*
X0089274Y0064183D03*
X0094074Y0059883D03*
X0094074Y0059783D03*
X0099674Y0062283D03*
X0100974Y0065083D03*
X0107974Y0063283D03*
X0107674Y0059583D03*
X0112774Y0059683D03*
X0112774Y0058383D03*
X0112374Y0063383D03*
X0117474Y0061683D03*
X0117474Y0061583D03*
X0117474Y0061483D03*
X0117474Y0061383D03*
X0117574Y0061183D03*
X0117574Y0061083D03*
X0117574Y0060983D03*
X0117674Y0060583D03*
X0117774Y0060383D03*
X0117874Y0060183D03*
X0117974Y0059883D03*
X0118074Y0059783D03*
X0118174Y0059583D03*
X0117674Y0065983D03*
X0117674Y0066083D03*
X0117674Y0066183D03*
X0117774Y0066283D03*
X0117774Y0066383D03*
X0117874Y0066683D03*
X0118174Y0067283D03*
X0118274Y0067483D03*
X0118374Y0067583D03*
X0119574Y0076483D03*
X0124074Y0054983D03*
X0061974Y0060383D03*
D13*
X0068724Y0058683D03*
X0075424Y0058583D03*
X0088324Y0058983D03*
X0088924Y0059783D03*
X0089024Y0059883D03*
X0094124Y0059383D03*
X0107624Y0058983D03*
X0107624Y0058883D03*
X0107624Y0058783D03*
X0112824Y0058783D03*
X0112824Y0058683D03*
X0112824Y0058883D03*
X0112824Y0059183D03*
X0117724Y0063383D03*
X0117824Y0064883D03*
X0119224Y0058483D03*
X0124124Y0055083D03*
X0130224Y0065383D03*
X0130224Y0065483D03*
X0130224Y0065583D03*
X0130224Y0065683D03*
X0130124Y0065783D03*
X0130124Y0065883D03*
X0130024Y0066183D03*
X0129924Y0066383D03*
X0124124Y0071683D03*
D14*
X0124124Y0071583D03*
X0124124Y0073183D03*
X0128924Y0067783D03*
X0130124Y0063383D03*
X0124124Y0055183D03*
X0118124Y0064083D03*
X0100524Y0062083D03*
X0081924Y0058983D03*
X0068724Y0058983D03*
X0068724Y0064383D03*
D15*
X0061474Y0065383D03*
X0101174Y0064383D03*
X0124074Y0055283D03*
X0127974Y0058083D03*
X0129874Y0062783D03*
X0128474Y0068083D03*
X0124074Y0077583D03*
D16*
X0124124Y0071383D03*
X0118724Y0064583D03*
X0124124Y0055383D03*
X0092524Y0063183D03*
X0081924Y0059583D03*
X0068724Y0059583D03*
X0061524Y0065183D03*
D17*
X0061674Y0064883D03*
X0061674Y0064783D03*
X0061674Y0064683D03*
X0061674Y0064583D03*
X0092274Y0062283D03*
X0124074Y0055483D03*
X0127774Y0068383D03*
X0124074Y0071283D03*
D18*
X0124074Y0055583D03*
X0082074Y0062383D03*
X0082074Y0062483D03*
X0068874Y0062483D03*
X0068874Y0062383D03*
D19*
X0091924Y0061283D03*
X0091924Y0061183D03*
X0101024Y0059283D03*
X0124124Y0055683D03*
D20*
X0124124Y0055783D03*
X0124124Y0070983D03*
D21*
X0124124Y0070883D03*
X0124024Y0074883D03*
X0124124Y0055883D03*
D22*
X0124124Y0055983D03*
X0124124Y0070783D03*
D23*
X0124074Y0056083D03*
D24*
X0124124Y0056183D03*
X0124124Y0070583D03*
D25*
X0124074Y0070483D03*
X0124074Y0056283D03*
D26*
X0124124Y0056383D03*
X0124124Y0070383D03*
D27*
X0124124Y0056483D03*
D28*
X0124074Y0056583D03*
X0124074Y0070183D03*
D29*
X0124124Y0070083D03*
X0124124Y0056683D03*
D30*
X0124074Y0056783D03*
D31*
X0124124Y0056883D03*
X0124124Y0076783D03*
D32*
X0124124Y0056983D03*
D33*
X0124074Y0057083D03*
X0124074Y0069683D03*
D34*
X0124074Y0069583D03*
X0124074Y0057183D03*
D35*
X0124074Y0057283D03*
X0124074Y0069483D03*
D36*
X0124074Y0057383D03*
D37*
X0124074Y0057483D03*
X0124074Y0069283D03*
D38*
X0124074Y0069183D03*
X0124074Y0057583D03*
D39*
X0124124Y0057683D03*
D40*
X0124124Y0057783D03*
X0124124Y0068983D03*
D41*
X0124124Y0068883D03*
X0124124Y0057883D03*
D42*
X0124124Y0057983D03*
X0124124Y0068783D03*
D43*
X0129974Y0062983D03*
X0120074Y0058083D03*
X0101174Y0064483D03*
X0100674Y0061983D03*
X0081974Y0064283D03*
X0068774Y0064283D03*
D44*
X0061274Y0058183D03*
X0058874Y0060183D03*
X0132174Y0071783D03*
X0133674Y0073283D03*
D45*
X0132124Y0071883D03*
X0130524Y0070783D03*
X0130424Y0070883D03*
X0130324Y0070983D03*
X0118024Y0071083D03*
X0117924Y0070983D03*
X0117824Y0070883D03*
X0117524Y0070683D03*
X0117424Y0070583D03*
X0117324Y0070483D03*
X0117224Y0070383D03*
X0115824Y0071883D03*
X0111624Y0067983D03*
X0082024Y0058183D03*
X0079424Y0060283D03*
X0074424Y0067983D03*
X0068824Y0058183D03*
X0061124Y0066983D03*
D46*
X0074674Y0058183D03*
X0075974Y0058183D03*
X0093774Y0058183D03*
X0094874Y0058183D03*
X0107274Y0058183D03*
X0108074Y0058183D03*
X0112374Y0058183D03*
X0112974Y0058183D03*
X0125674Y0058183D03*
X0130874Y0070083D03*
X0132174Y0071383D03*
X0133674Y0072883D03*
X0120974Y0074283D03*
X0114374Y0072783D03*
D47*
X0115824Y0071683D03*
X0117224Y0070283D03*
X0130824Y0070383D03*
X0099224Y0058183D03*
X0079324Y0060383D03*
X0066124Y0060383D03*
D48*
X0093024Y0067983D03*
X0103724Y0062883D03*
X0102724Y0058183D03*
X0115824Y0071783D03*
X0114424Y0073183D03*
X0130824Y0070483D03*
D49*
X0128974Y0067683D03*
X0130174Y0063583D03*
X0130174Y0063483D03*
X0128374Y0058183D03*
X0119774Y0058183D03*
X0118074Y0063983D03*
X0060974Y0059483D03*
X0060974Y0059383D03*
D50*
X0061174Y0058283D03*
X0103474Y0063783D03*
X0103574Y0063583D03*
X0108474Y0065183D03*
X0116474Y0075083D03*
X0121674Y0064883D03*
X0124474Y0060183D03*
X0127774Y0072383D03*
X0129374Y0073883D03*
X0131374Y0075283D03*
X0131674Y0075083D03*
X0131874Y0074983D03*
D51*
X0128974Y0076383D03*
X0124074Y0073383D03*
X0119274Y0076383D03*
X0112674Y0067483D03*
X0112674Y0065883D03*
X0112474Y0064183D03*
X0112474Y0063283D03*
X0112774Y0059883D03*
X0107674Y0059783D03*
X0107674Y0059683D03*
X0107874Y0062983D03*
X0107874Y0063083D03*
X0094074Y0060883D03*
X0094074Y0060783D03*
X0094074Y0060683D03*
X0094074Y0060583D03*
X0094074Y0060483D03*
X0094074Y0060383D03*
X0094074Y0060283D03*
X0094074Y0060183D03*
X0094074Y0060083D03*
X0089374Y0064083D03*
X0089374Y0065083D03*
X0094174Y0065883D03*
X0094174Y0067283D03*
X0088374Y0058383D03*
X0083874Y0060383D03*
X0081874Y0065083D03*
X0075474Y0065483D03*
X0075474Y0065583D03*
X0075474Y0059783D03*
X0075374Y0058283D03*
X0068674Y0065083D03*
X0062174Y0065683D03*
X0062074Y0063783D03*
X0062074Y0060983D03*
X0062074Y0060883D03*
X0062074Y0060783D03*
X0062074Y0060683D03*
X0062074Y0060583D03*
D52*
X0061174Y0058483D03*
X0062074Y0065783D03*
X0070874Y0060783D03*
X0070774Y0060583D03*
X0075374Y0060683D03*
X0075374Y0060783D03*
X0075374Y0060883D03*
X0075374Y0060983D03*
X0075374Y0061083D03*
X0075374Y0061183D03*
X0075374Y0061283D03*
X0075374Y0061383D03*
X0075374Y0061483D03*
X0075374Y0061583D03*
X0075374Y0061683D03*
X0075374Y0061783D03*
X0075374Y0061883D03*
X0075374Y0061983D03*
X0075374Y0062083D03*
X0075374Y0062183D03*
X0075374Y0062283D03*
X0075374Y0062383D03*
X0075374Y0062483D03*
X0075374Y0062583D03*
X0075374Y0062683D03*
X0075374Y0062783D03*
X0075374Y0062883D03*
X0075374Y0062983D03*
X0075374Y0063083D03*
X0075374Y0063183D03*
X0075374Y0063283D03*
X0075374Y0063383D03*
X0075374Y0063483D03*
X0075374Y0063583D03*
X0075374Y0063683D03*
X0075374Y0063783D03*
X0075374Y0063883D03*
X0075374Y0063983D03*
X0075374Y0064083D03*
X0075374Y0064183D03*
X0075374Y0064283D03*
X0075374Y0064383D03*
X0075374Y0064483D03*
X0075374Y0064583D03*
X0075374Y0064683D03*
X0075374Y0064783D03*
X0075374Y0064883D03*
X0083974Y0060583D03*
X0084074Y0060683D03*
X0084074Y0060783D03*
X0094074Y0063583D03*
X0094074Y0063683D03*
X0094074Y0063783D03*
X0094074Y0063883D03*
X0094074Y0063983D03*
X0094074Y0064083D03*
X0094074Y0064183D03*
X0094074Y0064283D03*
X0094074Y0064383D03*
X0094074Y0064483D03*
X0094074Y0064583D03*
X0094074Y0064683D03*
X0094074Y0064783D03*
X0094074Y0064883D03*
X0094074Y0064983D03*
X0094074Y0065083D03*
X0094074Y0065183D03*
X0094074Y0065283D03*
X0094074Y0065383D03*
X0094074Y0065483D03*
X0094074Y0065583D03*
X0094074Y0065683D03*
X0094074Y0067383D03*
X0099774Y0064183D03*
X0099474Y0062583D03*
X0099474Y0062483D03*
X0099474Y0062383D03*
X0099474Y0061183D03*
X0099374Y0060683D03*
X0099374Y0060583D03*
X0099374Y0060483D03*
X0099374Y0060383D03*
X0103474Y0059783D03*
X0107674Y0060083D03*
X0107674Y0060183D03*
X0107674Y0060283D03*
X0107674Y0060383D03*
X0107674Y0060483D03*
X0107674Y0060583D03*
X0107674Y0060683D03*
X0107674Y0060783D03*
X0107674Y0060883D03*
X0107674Y0060983D03*
X0107674Y0061083D03*
X0107674Y0061183D03*
X0107674Y0061283D03*
X0107674Y0061383D03*
X0107674Y0061483D03*
X0107674Y0061583D03*
X0107674Y0061683D03*
X0107674Y0061783D03*
X0107674Y0061883D03*
X0107674Y0062183D03*
X0107774Y0062483D03*
X0107774Y0062583D03*
X0107774Y0062683D03*
X0112574Y0062783D03*
X0112574Y0062883D03*
X0112574Y0062983D03*
X0112574Y0064283D03*
X0112574Y0064383D03*
X0112674Y0064983D03*
X0112674Y0065183D03*
X0112674Y0065283D03*
X0112674Y0065383D03*
X0112674Y0065483D03*
X0112674Y0065583D03*
X0112674Y0065683D03*
X0112674Y0065783D03*
X0112674Y0061283D03*
X0112674Y0061183D03*
X0112674Y0061083D03*
X0112674Y0060983D03*
X0112674Y0060883D03*
X0112674Y0060783D03*
X0112674Y0060683D03*
X0112674Y0060583D03*
X0112674Y0060483D03*
X0112674Y0060383D03*
X0124874Y0060883D03*
X0118974Y0076283D03*
X0094274Y0058283D03*
D53*
X0099174Y0058283D03*
X0108474Y0065283D03*
X0116374Y0072383D03*
X0116474Y0072483D03*
X0116574Y0072583D03*
X0116874Y0072783D03*
X0118774Y0071583D03*
X0119074Y0071783D03*
X0114474Y0073483D03*
X0126274Y0061783D03*
X0124374Y0060083D03*
X0129274Y0071683D03*
X0129074Y0071783D03*
X0131174Y0072783D03*
X0131274Y0072683D03*
X0131474Y0072583D03*
X0131574Y0072483D03*
X0131674Y0072383D03*
D54*
X0130074Y0073483D03*
X0129874Y0073583D03*
X0129774Y0073683D03*
X0129574Y0073783D03*
X0128074Y0072283D03*
X0124074Y0073483D03*
X0118474Y0073783D03*
X0118274Y0073683D03*
X0115874Y0074683D03*
X0115774Y0074583D03*
X0115474Y0074383D03*
X0111974Y0067883D03*
X0103674Y0063383D03*
X0102774Y0058283D03*
X0099174Y0058383D03*
X0089374Y0065283D03*
X0093474Y0067783D03*
X0061474Y0066583D03*
X0132274Y0074683D03*
X0132474Y0074583D03*
X0132574Y0074483D03*
D55*
X0129724Y0076083D03*
X0129524Y0076183D03*
X0128124Y0074383D03*
X0121424Y0072683D03*
X0118424Y0076083D03*
X0118224Y0075983D03*
X0108424Y0064983D03*
X0103424Y0060883D03*
X0103524Y0060683D03*
X0103524Y0060583D03*
X0102724Y0058483D03*
X0107624Y0058283D03*
X0112724Y0058283D03*
X0125224Y0061183D03*
X0089724Y0063883D03*
X0084124Y0062983D03*
X0075124Y0067683D03*
X0070924Y0062983D03*
X0061924Y0065983D03*
D56*
X0068724Y0064583D03*
X0068724Y0058883D03*
X0075424Y0058883D03*
X0075424Y0058783D03*
X0075424Y0058983D03*
X0075424Y0059083D03*
X0075424Y0059183D03*
X0081924Y0064583D03*
X0100324Y0062183D03*
X0117924Y0063783D03*
X0119524Y0058283D03*
X0130324Y0064183D03*
D57*
X0130274Y0064083D03*
X0130274Y0063983D03*
X0130274Y0063883D03*
X0129274Y0067383D03*
X0129174Y0067483D03*
X0128574Y0058283D03*
X0117974Y0063883D03*
X0123974Y0075383D03*
X0081974Y0058883D03*
X0060974Y0059183D03*
D58*
X0061174Y0058383D03*
X0066674Y0062883D03*
X0068674Y0065183D03*
X0070974Y0063083D03*
X0079874Y0062883D03*
X0081874Y0065183D03*
X0084174Y0063083D03*
X0090374Y0063483D03*
X0090574Y0063383D03*
X0099074Y0058683D03*
X0103574Y0060383D03*
X0103574Y0060483D03*
X0103474Y0060783D03*
X0103374Y0060983D03*
X0119974Y0074383D03*
X0124074Y0071883D03*
X0129974Y0075983D03*
X0125374Y0061283D03*
X0124574Y0060483D03*
D59*
X0124724Y0060683D03*
X0124924Y0060983D03*
X0125024Y0061083D03*
X0112624Y0061383D03*
X0112624Y0061483D03*
X0112624Y0061583D03*
X0112624Y0061683D03*
X0112624Y0061783D03*
X0112624Y0061883D03*
X0112624Y0061983D03*
X0112624Y0062083D03*
X0112624Y0062183D03*
X0112624Y0062283D03*
X0112624Y0062383D03*
X0112624Y0062483D03*
X0112624Y0062583D03*
X0112624Y0062683D03*
X0112624Y0064483D03*
X0112624Y0064583D03*
X0112624Y0064683D03*
X0112624Y0064783D03*
X0112624Y0064883D03*
X0112624Y0065083D03*
X0112524Y0067583D03*
X0108424Y0064883D03*
X0107724Y0062383D03*
X0107724Y0062283D03*
X0107724Y0062083D03*
X0107724Y0061983D03*
X0103524Y0059883D03*
X0102724Y0058583D03*
X0099424Y0060783D03*
X0099424Y0060883D03*
X0099424Y0060983D03*
X0099424Y0061083D03*
X0099424Y0062683D03*
X0099424Y0062783D03*
X0099424Y0062883D03*
X0099424Y0062983D03*
X0099424Y0063083D03*
X0099424Y0063183D03*
X0099524Y0063283D03*
X0099524Y0063383D03*
X0099524Y0063483D03*
X0099524Y0063583D03*
X0099524Y0063683D03*
X0099624Y0063783D03*
X0099624Y0063883D03*
X0099624Y0063983D03*
X0099724Y0064083D03*
X0089524Y0063983D03*
X0084224Y0061483D03*
X0084224Y0061383D03*
X0084224Y0061283D03*
X0084224Y0061183D03*
X0084224Y0061083D03*
X0084224Y0060983D03*
X0084124Y0060883D03*
X0082024Y0058383D03*
X0071024Y0060983D03*
X0071024Y0061083D03*
X0071024Y0061183D03*
X0071024Y0061283D03*
X0071024Y0061383D03*
X0071024Y0061483D03*
X0070924Y0060883D03*
X0068824Y0058383D03*
X0062024Y0065883D03*
D60*
X0068674Y0064883D03*
X0068774Y0058583D03*
X0075374Y0058383D03*
X0081974Y0058583D03*
X0088274Y0058583D03*
X0094074Y0059583D03*
X0099074Y0059883D03*
X0101074Y0064983D03*
X0108474Y0064383D03*
X0112974Y0066383D03*
X0112974Y0066983D03*
X0112974Y0067083D03*
X0117674Y0065183D03*
X0117474Y0062683D03*
X0117474Y0062583D03*
X0118574Y0059083D03*
X0118674Y0058983D03*
X0118774Y0058883D03*
X0112774Y0058483D03*
X0107674Y0058483D03*
X0094474Y0066983D03*
X0089274Y0064483D03*
X0089274Y0064383D03*
X0081874Y0064883D03*
X0123974Y0075483D03*
X0130274Y0060683D03*
X0130174Y0060383D03*
X0130074Y0060183D03*
X0130074Y0060083D03*
X0130074Y0059983D03*
X0129974Y0059883D03*
X0129974Y0059783D03*
X0129974Y0059683D03*
X0129774Y0059383D03*
X0129674Y0059183D03*
X0129574Y0058983D03*
X0129474Y0058883D03*
X0129374Y0058783D03*
D61*
X0129624Y0059083D03*
X0129724Y0059283D03*
X0129824Y0059483D03*
X0129924Y0059583D03*
X0118824Y0068083D03*
X0118724Y0067983D03*
X0117624Y0065483D03*
X0117624Y0065383D03*
X0117624Y0065283D03*
X0117424Y0062483D03*
X0117424Y0062383D03*
X0117424Y0062283D03*
X0112824Y0059483D03*
X0107624Y0059383D03*
X0099124Y0059983D03*
X0094224Y0058383D03*
X0089324Y0064783D03*
X0089324Y0064883D03*
X0075724Y0065983D03*
X0075624Y0067283D03*
X0112924Y0066283D03*
D62*
X0112824Y0066183D03*
X0112824Y0067283D03*
X0108424Y0064583D03*
X0107624Y0059483D03*
X0107624Y0058383D03*
X0117424Y0061783D03*
X0117424Y0061883D03*
X0117424Y0061983D03*
X0118124Y0059683D03*
X0118224Y0059483D03*
X0118324Y0059383D03*
X0117624Y0065583D03*
X0117624Y0065683D03*
X0117624Y0065783D03*
X0117624Y0065883D03*
X0118424Y0067683D03*
X0118524Y0067783D03*
X0124124Y0071783D03*
X0094324Y0067183D03*
X0089324Y0064983D03*
X0088324Y0058483D03*
X0075624Y0065883D03*
X0070324Y0060083D03*
X0068624Y0064983D03*
X0062224Y0065583D03*
X0061924Y0060283D03*
D63*
X0060974Y0058983D03*
X0088374Y0059083D03*
X0088874Y0059683D03*
X0094174Y0058683D03*
X0112874Y0058983D03*
X0112874Y0059083D03*
X0119374Y0058383D03*
X0117774Y0063483D03*
X0128974Y0058483D03*
X0130374Y0061983D03*
X0130274Y0064883D03*
X0130274Y0064983D03*
X0130274Y0065083D03*
X0130274Y0065183D03*
X0130274Y0065283D03*
X0130074Y0065983D03*
X0130074Y0066083D03*
X0129974Y0066283D03*
X0129874Y0066483D03*
X0129874Y0066583D03*
X0129774Y0066683D03*
D64*
X0129724Y0066783D03*
X0129624Y0066883D03*
X0129624Y0066983D03*
X0130324Y0064783D03*
X0130324Y0064683D03*
X0130324Y0064583D03*
X0130324Y0064483D03*
X0130324Y0064383D03*
X0130324Y0064283D03*
X0128824Y0058383D03*
X0117824Y0063583D03*
X0124124Y0077683D03*
X0094124Y0059283D03*
X0094224Y0058783D03*
X0088724Y0059583D03*
X0088524Y0059383D03*
X0088424Y0059283D03*
X0088424Y0059183D03*
X0081924Y0064683D03*
X0075424Y0058683D03*
X0068724Y0064683D03*
D65*
X0075824Y0066183D03*
X0075824Y0066283D03*
X0075824Y0066883D03*
X0075824Y0066983D03*
X0075424Y0058483D03*
X0089424Y0060283D03*
X0089524Y0060383D03*
X0089624Y0060483D03*
X0089724Y0060583D03*
X0089824Y0060783D03*
X0089924Y0060883D03*
X0090024Y0060983D03*
X0094224Y0058483D03*
X0094624Y0066383D03*
X0094624Y0066483D03*
X0094624Y0066583D03*
X0108524Y0064183D03*
X0107624Y0058683D03*
X0107624Y0058583D03*
X0112824Y0058583D03*
X0117624Y0063183D03*
X0117724Y0064983D03*
X0119124Y0058583D03*
X0129124Y0058583D03*
X0130424Y0061583D03*
X0130424Y0061683D03*
X0127824Y0076683D03*
X0061024Y0058883D03*
D66*
X0061624Y0066383D03*
X0099124Y0058483D03*
X0103424Y0063883D03*
X0103324Y0063983D03*
X0103224Y0064083D03*
X0103124Y0064183D03*
X0112124Y0067783D03*
X0118724Y0073883D03*
X0118924Y0073983D03*
X0119124Y0074083D03*
X0120724Y0072483D03*
X0124024Y0075583D03*
X0127524Y0072483D03*
X0128924Y0074083D03*
X0129124Y0073983D03*
X0131224Y0075383D03*
X0131524Y0075183D03*
X0123024Y0065883D03*
X0125724Y0061483D03*
X0117024Y0075383D03*
X0116824Y0075283D03*
X0116624Y0075183D03*
D67*
X0118224Y0067383D03*
X0118124Y0067183D03*
X0118024Y0067083D03*
X0118024Y0066983D03*
X0117924Y0066883D03*
X0117924Y0066783D03*
X0117824Y0066583D03*
X0117824Y0066483D03*
X0112724Y0066083D03*
X0112724Y0065983D03*
X0112724Y0067383D03*
X0108424Y0064683D03*
X0107924Y0063183D03*
X0112724Y0059783D03*
X0117624Y0060683D03*
X0117624Y0060783D03*
X0117624Y0060883D03*
X0117724Y0060483D03*
X0117824Y0060283D03*
X0117924Y0060083D03*
X0117924Y0059983D03*
X0117524Y0061283D03*
X0102724Y0058683D03*
X0099324Y0060083D03*
X0094124Y0059983D03*
X0094024Y0060983D03*
X0094224Y0065983D03*
X0083724Y0060283D03*
X0075524Y0065683D03*
X0070624Y0060383D03*
X0070524Y0060283D03*
X0062024Y0060483D03*
X0061124Y0058583D03*
X0062124Y0063883D03*
X0128624Y0076483D03*
D68*
X0124074Y0073283D03*
X0120374Y0076683D03*
X0117674Y0063283D03*
X0112874Y0059283D03*
X0107574Y0059083D03*
X0101074Y0064883D03*
X0094174Y0058583D03*
X0089374Y0060183D03*
X0089274Y0060083D03*
X0089174Y0059983D03*
X0088274Y0058883D03*
X0088274Y0058783D03*
X0081974Y0058683D03*
X0075474Y0059383D03*
X0081874Y0064783D03*
X0075874Y0066383D03*
X0075874Y0066483D03*
X0075874Y0066583D03*
X0075874Y0066683D03*
X0075874Y0066783D03*
X0068674Y0064783D03*
X0130374Y0061883D03*
X0130374Y0061783D03*
D69*
X0122874Y0065583D03*
X0122674Y0065383D03*
X0122274Y0065083D03*
X0119574Y0074283D03*
X0128474Y0074283D03*
X0130474Y0075783D03*
X0099074Y0058583D03*
X0084074Y0063383D03*
X0084074Y0063483D03*
X0083974Y0063583D03*
X0083874Y0063783D03*
X0083774Y0063883D03*
X0083674Y0063983D03*
X0083474Y0064183D03*
X0080374Y0064183D03*
X0079774Y0063183D03*
X0074974Y0067783D03*
X0070674Y0063783D03*
X0070574Y0063883D03*
X0070474Y0063983D03*
X0070374Y0064083D03*
X0070274Y0064183D03*
X0070774Y0063583D03*
X0070874Y0063483D03*
X0070874Y0063383D03*
X0067174Y0064183D03*
X0067074Y0064083D03*
X0066574Y0063283D03*
X0066574Y0063183D03*
X0066574Y0063083D03*
X0061774Y0066183D03*
D70*
X0062274Y0065483D03*
X0061874Y0060183D03*
X0061074Y0058683D03*
X0075474Y0059583D03*
X0075574Y0067383D03*
X0083574Y0060083D03*
X0089274Y0064283D03*
X0094374Y0066083D03*
X0094374Y0067083D03*
X0094074Y0059683D03*
X0102674Y0058783D03*
X0108074Y0063383D03*
X0108474Y0064483D03*
X0112874Y0067183D03*
X0118574Y0067883D03*
X0117474Y0062183D03*
X0117474Y0062083D03*
X0118374Y0059283D03*
X0118474Y0059183D03*
X0112774Y0059583D03*
X0119874Y0076583D03*
X0128274Y0076583D03*
D71*
X0117774Y0065083D03*
X0117574Y0063083D03*
X0117574Y0062983D03*
X0118974Y0058683D03*
X0129274Y0058683D03*
X0130374Y0061083D03*
X0130374Y0061183D03*
X0130374Y0061283D03*
X0130374Y0061383D03*
X0130374Y0061483D03*
X0107574Y0059183D03*
X0099174Y0059683D03*
X0094074Y0059483D03*
X0089774Y0060683D03*
X0088274Y0058683D03*
X0094574Y0066283D03*
X0094574Y0066683D03*
X0094574Y0066783D03*
X0075774Y0067083D03*
D72*
X0075724Y0067183D03*
X0075824Y0066083D03*
X0075424Y0059483D03*
X0089324Y0064583D03*
X0089324Y0064683D03*
X0094524Y0066183D03*
X0094524Y0066883D03*
X0099124Y0059783D03*
X0107624Y0059283D03*
X0112824Y0059383D03*
X0108524Y0064283D03*
X0113024Y0066483D03*
X0113024Y0066583D03*
X0113024Y0066683D03*
X0113024Y0066783D03*
X0113024Y0066883D03*
X0117524Y0062883D03*
X0117524Y0062783D03*
X0118824Y0058783D03*
X0130124Y0060283D03*
X0130224Y0060483D03*
X0130224Y0060583D03*
X0130324Y0060783D03*
X0130324Y0060883D03*
X0130324Y0060983D03*
X0118924Y0068183D03*
X0121224Y0074683D03*
X0126824Y0074683D03*
X0061024Y0058783D03*
D73*
X0060974Y0059083D03*
X0068774Y0058783D03*
X0075474Y0059283D03*
X0081974Y0058783D03*
X0088574Y0059483D03*
X0094174Y0059183D03*
X0094174Y0059083D03*
X0094174Y0058983D03*
X0094174Y0058883D03*
X0101074Y0064783D03*
X0117874Y0063683D03*
X0129374Y0067283D03*
X0129474Y0067183D03*
X0129574Y0067083D03*
X0130274Y0062083D03*
D74*
X0124774Y0060783D03*
X0124674Y0060583D03*
X0126774Y0072683D03*
X0127774Y0074483D03*
X0120274Y0074483D03*
X0118674Y0076183D03*
X0103274Y0061083D03*
X0103174Y0061183D03*
X0103074Y0061283D03*
X0103574Y0060283D03*
X0103574Y0060183D03*
X0103574Y0060083D03*
X0103574Y0059983D03*
X0099074Y0058783D03*
X0100974Y0065183D03*
X0093974Y0067483D03*
X0089374Y0065183D03*
X0084074Y0062883D03*
X0070874Y0062883D03*
D75*
X0068874Y0062783D03*
X0068974Y0061783D03*
X0082074Y0062783D03*
X0082174Y0061783D03*
X0092074Y0061783D03*
X0092074Y0061683D03*
X0101074Y0058883D03*
X0124074Y0072883D03*
D76*
X0124124Y0071183D03*
X0101024Y0058983D03*
X0092024Y0061583D03*
X0082124Y0061883D03*
X0082124Y0061983D03*
X0082124Y0062083D03*
X0082124Y0062183D03*
X0082124Y0062283D03*
X0082024Y0062583D03*
X0082024Y0062683D03*
X0068924Y0062283D03*
X0068924Y0062183D03*
X0068924Y0062083D03*
X0068924Y0061983D03*
X0068924Y0061883D03*
X0068824Y0062583D03*
X0068824Y0062683D03*
D77*
X0068724Y0059083D03*
X0061024Y0059883D03*
X0061024Y0059983D03*
X0061024Y0060083D03*
X0081924Y0059083D03*
X0118224Y0064183D03*
X0128724Y0067983D03*
X0130024Y0063083D03*
D78*
X0124024Y0075083D03*
X0101024Y0059083D03*
X0092024Y0061483D03*
D79*
X0081924Y0059183D03*
X0068724Y0059183D03*
X0118324Y0064283D03*
X0129924Y0062883D03*
D80*
X0124074Y0077383D03*
X0101074Y0059183D03*
X0091974Y0061383D03*
D81*
X0101124Y0064683D03*
X0081924Y0064483D03*
X0068724Y0064483D03*
X0060924Y0059283D03*
X0129124Y0067583D03*
X0130224Y0063783D03*
X0130224Y0063683D03*
D82*
X0124024Y0075283D03*
X0100824Y0061883D03*
X0081924Y0059283D03*
X0068724Y0059283D03*
D83*
X0068724Y0059383D03*
X0061424Y0065283D03*
X0081924Y0059383D03*
X0100924Y0061783D03*
X0124124Y0073083D03*
X0129724Y0062583D03*
X0129624Y0062483D03*
D84*
X0124074Y0071083D03*
X0124074Y0072783D03*
X0110274Y0064083D03*
X0101074Y0059383D03*
X0091874Y0061083D03*
D85*
X0100974Y0061683D03*
X0118574Y0064483D03*
X0120074Y0068283D03*
X0129574Y0062383D03*
X0081974Y0059483D03*
X0068774Y0059483D03*
D86*
X0101024Y0059483D03*
X0101024Y0059583D03*
X0110224Y0063783D03*
X0110224Y0063883D03*
X0110224Y0063983D03*
X0124024Y0074983D03*
D87*
X0128774Y0067883D03*
X0130074Y0063283D03*
X0130074Y0063183D03*
X0101174Y0064583D03*
X0081974Y0064383D03*
X0060974Y0059783D03*
X0060974Y0059683D03*
X0060974Y0059583D03*
D88*
X0068774Y0059683D03*
X0081974Y0059683D03*
X0092474Y0062883D03*
X0092474Y0062983D03*
X0092474Y0063083D03*
X0092474Y0063283D03*
X0101074Y0061583D03*
X0120274Y0068383D03*
X0129474Y0062283D03*
D89*
X0127424Y0074583D03*
X0129224Y0076283D03*
X0124124Y0077783D03*
X0120624Y0074583D03*
X0108424Y0064783D03*
X0107824Y0062883D03*
X0107824Y0062783D03*
X0107724Y0059983D03*
X0107724Y0059883D03*
X0103424Y0059683D03*
X0099324Y0060183D03*
X0099324Y0060283D03*
X0099524Y0061283D03*
X0094024Y0063383D03*
X0094024Y0063483D03*
X0094124Y0065783D03*
X0083924Y0060483D03*
X0075424Y0060483D03*
X0075424Y0060383D03*
X0075424Y0060283D03*
X0075424Y0060183D03*
X0075424Y0060083D03*
X0075424Y0059983D03*
X0075424Y0059883D03*
X0075424Y0060583D03*
X0075424Y0064983D03*
X0075424Y0065083D03*
X0075424Y0065183D03*
X0075424Y0065283D03*
X0075424Y0065383D03*
X0075324Y0067583D03*
X0070824Y0060683D03*
X0070724Y0060483D03*
X0062124Y0061083D03*
X0062124Y0061183D03*
X0062124Y0061283D03*
X0062124Y0061383D03*
X0062124Y0061483D03*
X0062124Y0061583D03*
X0062124Y0061683D03*
X0062124Y0061783D03*
X0062124Y0061883D03*
X0062124Y0061983D03*
X0062124Y0062083D03*
X0062124Y0062183D03*
X0062124Y0062283D03*
X0062124Y0062383D03*
X0062124Y0062483D03*
X0062124Y0062583D03*
X0062124Y0062683D03*
X0062124Y0062783D03*
X0062124Y0062883D03*
X0062124Y0062983D03*
X0062124Y0063083D03*
X0062124Y0063183D03*
X0062124Y0063283D03*
X0062124Y0063383D03*
X0062124Y0063483D03*
X0062124Y0063583D03*
X0062124Y0063683D03*
X0112524Y0063183D03*
X0112524Y0063083D03*
X0112724Y0060283D03*
X0112724Y0060183D03*
X0112724Y0060083D03*
X0112724Y0059983D03*
D90*
X0101124Y0061483D03*
X0092424Y0062683D03*
X0092424Y0062783D03*
X0082024Y0059783D03*
X0068824Y0059783D03*
X0061524Y0065083D03*
X0128024Y0068283D03*
X0129424Y0062183D03*
D91*
X0101174Y0061383D03*
X0092374Y0062583D03*
X0081974Y0059883D03*
X0068774Y0059883D03*
X0061774Y0063983D03*
D92*
X0061724Y0064083D03*
X0061724Y0064183D03*
X0061724Y0064283D03*
X0061724Y0064383D03*
X0061724Y0064483D03*
X0061624Y0064983D03*
X0068824Y0059983D03*
X0082024Y0059983D03*
X0092324Y0062383D03*
X0092324Y0062483D03*
X0118924Y0064683D03*
X0124124Y0072983D03*
X0124024Y0075183D03*
D93*
X0117224Y0069983D03*
X0115824Y0071383D03*
X0124324Y0059983D03*
X0066024Y0060583D03*
D94*
X0066424Y0060083D03*
X0061324Y0066783D03*
X0079624Y0060083D03*
X0114524Y0073583D03*
X0114624Y0073683D03*
X0114724Y0073783D03*
X0116724Y0072683D03*
X0117024Y0072883D03*
X0117124Y0072983D03*
X0117324Y0073083D03*
X0119324Y0071883D03*
X0123124Y0066183D03*
X0128724Y0071983D03*
X0128924Y0071883D03*
X0130924Y0072983D03*
X0131024Y0072883D03*
X0133624Y0073583D03*
D95*
X0133674Y0073483D03*
X0130174Y0071083D03*
X0130074Y0071183D03*
X0129874Y0071283D03*
X0129774Y0071383D03*
X0123174Y0066283D03*
X0126674Y0062083D03*
X0117674Y0070783D03*
X0118174Y0071183D03*
X0118274Y0071283D03*
X0118474Y0071383D03*
X0114474Y0073383D03*
X0103774Y0062983D03*
X0079474Y0060183D03*
X0066274Y0060183D03*
D96*
X0068674Y0065383D03*
X0058774Y0060283D03*
X0081874Y0065383D03*
X0123274Y0066383D03*
X0132174Y0071683D03*
X0133674Y0073183D03*
D97*
X0133674Y0073383D03*
X0130774Y0070583D03*
X0130674Y0070683D03*
X0114474Y0073283D03*
X0066174Y0060283D03*
X0061074Y0067083D03*
D98*
X0058724Y0060383D03*
X0114424Y0072983D03*
X0115824Y0071483D03*
X0117224Y0070083D03*
D99*
X0112324Y0067683D03*
X0108424Y0065083D03*
X0117924Y0075883D03*
X0122724Y0065483D03*
X0122524Y0065283D03*
X0122424Y0065183D03*
X0124524Y0060383D03*
X0130224Y0075883D03*
X0093824Y0067583D03*
X0090224Y0063583D03*
X0090024Y0063683D03*
X0089924Y0063783D03*
X0084124Y0063283D03*
X0084124Y0063183D03*
X0083624Y0064083D03*
X0079824Y0063083D03*
X0079824Y0062983D03*
X0070924Y0063183D03*
X0070924Y0063283D03*
X0066624Y0062983D03*
X0061824Y0066083D03*
D100*
X0066124Y0060483D03*
X0100924Y0065383D03*
X0103824Y0062783D03*
X0114424Y0073083D03*
X0115824Y0071583D03*
X0117224Y0070183D03*
X0130824Y0070283D03*
D101*
X0132174Y0071583D03*
X0133674Y0073083D03*
X0121774Y0068083D03*
X0108474Y0065383D03*
X0079274Y0060483D03*
D102*
X0079274Y0060583D03*
X0114374Y0072883D03*
X0124074Y0071983D03*
X0130874Y0070183D03*
X0132174Y0071483D03*
X0133674Y0072983D03*
D103*
X0124124Y0077483D03*
X0092224Y0062183D03*
X0082324Y0061583D03*
X0069124Y0061583D03*
D104*
X0061524Y0066483D03*
X0074824Y0067883D03*
X0103524Y0063683D03*
X0103624Y0063483D03*
X0116024Y0074783D03*
X0116224Y0074883D03*
X0116324Y0074983D03*
X0118124Y0073583D03*
X0120124Y0072283D03*
X0120424Y0072383D03*
X0123124Y0065983D03*
X0125924Y0061583D03*
X0132124Y0074783D03*
X0132024Y0074883D03*
D105*
X0092124Y0061883D03*
X0082224Y0061683D03*
X0069024Y0061683D03*
D106*
X0068624Y0065283D03*
X0081824Y0065283D03*
X0100924Y0065283D03*
X0115124Y0074083D03*
X0115224Y0074183D03*
X0115324Y0074283D03*
X0115624Y0074483D03*
X0117924Y0073483D03*
X0123124Y0066083D03*
X0126024Y0061683D03*
X0128324Y0072183D03*
X0130624Y0073183D03*
X0132724Y0074383D03*
X0132824Y0074283D03*
X0133024Y0074183D03*
X0133224Y0073983D03*
D107*
X0131824Y0072283D03*
X0131924Y0072183D03*
X0132024Y0072083D03*
X0132124Y0071983D03*
X0129624Y0071483D03*
X0129424Y0071583D03*
X0121824Y0068183D03*
X0118924Y0071683D03*
X0118624Y0071483D03*
X0116224Y0072283D03*
X0116124Y0072183D03*
X0116024Y0072083D03*
X0115924Y0071983D03*
X0126424Y0061883D03*
X0126524Y0061983D03*
X0103724Y0063083D03*
X0061224Y0066883D03*
D108*
X0092174Y0062083D03*
X0092174Y0061983D03*
X0119074Y0064783D03*
D109*
X0118474Y0064383D03*
X0124074Y0071483D03*
X0128274Y0068183D03*
X0129774Y0062683D03*
X0101274Y0064283D03*
D110*
X0103674Y0063283D03*
X0103674Y0063183D03*
X0093374Y0067883D03*
X0114874Y0073883D03*
X0114974Y0073983D03*
X0117474Y0073183D03*
X0117574Y0073283D03*
X0117774Y0073383D03*
X0119474Y0071983D03*
X0119674Y0072083D03*
X0119874Y0072183D03*
X0128474Y0072083D03*
X0130274Y0073383D03*
X0130474Y0073283D03*
X0130774Y0073083D03*
X0133074Y0074083D03*
X0133374Y0073883D03*
X0133474Y0073783D03*
X0133574Y0073683D03*
X0061374Y0066683D03*
D111*
X0110174Y0063683D03*
X0110174Y0063583D03*
X0110174Y0063483D03*
D112*
X0121974Y0064983D03*
X0122974Y0065783D03*
X0119374Y0074183D03*
X0117174Y0075483D03*
X0128674Y0074183D03*
X0131074Y0075483D03*
X0093674Y0067683D03*
X0080074Y0063883D03*
X0079974Y0063683D03*
X0066874Y0063883D03*
D113*
X0124124Y0068483D03*
D114*
X0124074Y0068583D03*
D115*
X0124124Y0068683D03*
D116*
X0124074Y0069083D03*
D117*
X0124124Y0069383D03*
D118*
X0124074Y0069783D03*
D119*
X0124074Y0069883D03*
D120*
X0124124Y0069983D03*
D121*
X0124074Y0070283D03*
D122*
X0124124Y0070683D03*
D123*
X0124024Y0074783D03*
X0124124Y0077183D03*
D124*
X0124124Y0076883D03*
D125*
X0124074Y0076983D03*
D126*
X0124124Y0077083D03*
D127*
X0124124Y0077283D03*
M02*
