G75*
%MOIN*%
%OFA0B0*%
%FSLAX25Y25*%
%IPPOS*%
%LPD*%
%AMOC8*
5,1,8,0,0,1.08239X$1,22.5*
%
%ADD10C,0.01000*%
%ADD11R,0.04337X0.05912*%
%ADD12R,0.05518X0.06306*%
%ADD13R,0.05400X0.02600*%
%ADD14R,0.02600X0.05400*%
%ADD15C,0.06800*%
%ADD16R,0.08274X0.04731*%
%ADD17R,0.03392X0.08471*%
%ADD18R,0.04731X0.05912*%
%ADD19R,0.05124X0.05124*%
%ADD20R,0.18117X0.12998*%
%ADD21OC8,0.06400*%
D10*
X0007860Y0046945D02*
X0139110Y0046945D01*
X0139110Y0046944D02*
X0139308Y0046963D01*
X0139504Y0046986D01*
X0139700Y0047014D01*
X0139896Y0047047D01*
X0140090Y0047085D01*
X0140284Y0047127D01*
X0140476Y0047174D01*
X0140667Y0047225D01*
X0140857Y0047281D01*
X0141046Y0047342D01*
X0141233Y0047407D01*
X0141418Y0047477D01*
X0141602Y0047551D01*
X0141784Y0047630D01*
X0141964Y0047713D01*
X0142142Y0047800D01*
X0142317Y0047891D01*
X0142491Y0047987D01*
X0142662Y0048087D01*
X0142830Y0048191D01*
X0142996Y0048299D01*
X0143160Y0048411D01*
X0143320Y0048527D01*
X0143478Y0048647D01*
X0143633Y0048771D01*
X0143784Y0048898D01*
X0143933Y0049029D01*
X0144079Y0049163D01*
X0144221Y0049301D01*
X0144359Y0049443D01*
X0144495Y0049587D01*
X0144627Y0049735D01*
X0144755Y0049886D01*
X0144879Y0050040D01*
X0145000Y0050198D01*
X0145117Y0050357D01*
X0145230Y0050520D01*
X0145339Y0050686D01*
X0145444Y0050853D01*
X0145545Y0051024D01*
X0145641Y0051197D01*
X0145734Y0051372D01*
X0145822Y0051549D01*
X0145906Y0051729D01*
X0145986Y0051910D01*
X0146061Y0052093D01*
X0146132Y0052278D01*
X0146198Y0052465D01*
X0146260Y0052653D01*
X0146317Y0052843D01*
X0146370Y0053034D01*
X0146418Y0053226D01*
X0146461Y0053419D01*
X0146500Y0053614D01*
X0146533Y0053809D01*
X0146563Y0054005D01*
X0146587Y0054201D01*
X0146607Y0054398D01*
X0146622Y0054596D01*
X0146632Y0054794D01*
X0146637Y0054992D01*
X0146638Y0055190D01*
X0146633Y0055388D01*
X0146624Y0055586D01*
X0146611Y0055783D01*
X0146610Y0055783D02*
X0146610Y0154533D01*
X0146607Y0154744D01*
X0146600Y0154956D01*
X0146587Y0155167D01*
X0146569Y0155377D01*
X0146546Y0155588D01*
X0146518Y0155797D01*
X0146485Y0156006D01*
X0146447Y0156214D01*
X0146404Y0156421D01*
X0146356Y0156627D01*
X0146303Y0156832D01*
X0146245Y0157035D01*
X0146182Y0157237D01*
X0146114Y0157437D01*
X0146041Y0157636D01*
X0145964Y0157833D01*
X0145882Y0158027D01*
X0145795Y0158220D01*
X0145704Y0158411D01*
X0145608Y0158599D01*
X0145507Y0158785D01*
X0145402Y0158969D01*
X0145293Y0159150D01*
X0145179Y0159328D01*
X0145061Y0159504D01*
X0144939Y0159676D01*
X0144813Y0159846D01*
X0144682Y0160012D01*
X0144548Y0160175D01*
X0144409Y0160335D01*
X0144267Y0160492D01*
X0144121Y0160645D01*
X0143972Y0160794D01*
X0143819Y0160940D01*
X0143662Y0161082D01*
X0143502Y0161221D01*
X0143339Y0161355D01*
X0143173Y0161486D01*
X0143003Y0161612D01*
X0142831Y0161734D01*
X0142655Y0161852D01*
X0142477Y0161966D01*
X0142296Y0162075D01*
X0142112Y0162180D01*
X0141926Y0162281D01*
X0141738Y0162377D01*
X0141547Y0162468D01*
X0141354Y0162555D01*
X0141160Y0162637D01*
X0140963Y0162714D01*
X0140764Y0162787D01*
X0140564Y0162855D01*
X0140362Y0162918D01*
X0140159Y0162976D01*
X0139954Y0163029D01*
X0139748Y0163077D01*
X0139541Y0163120D01*
X0139333Y0163158D01*
X0139124Y0163191D01*
X0138915Y0163219D01*
X0138704Y0163242D01*
X0138494Y0163260D01*
X0138283Y0163273D01*
X0138071Y0163280D01*
X0137860Y0163283D01*
X0010360Y0163283D01*
X0010149Y0163280D01*
X0009937Y0163273D01*
X0009726Y0163260D01*
X0009516Y0163242D01*
X0009305Y0163219D01*
X0009096Y0163191D01*
X0008887Y0163158D01*
X0008679Y0163120D01*
X0008472Y0163077D01*
X0008266Y0163029D01*
X0008061Y0162976D01*
X0007858Y0162918D01*
X0007656Y0162855D01*
X0007456Y0162787D01*
X0007257Y0162714D01*
X0007060Y0162637D01*
X0006866Y0162555D01*
X0006673Y0162468D01*
X0006482Y0162377D01*
X0006294Y0162281D01*
X0006108Y0162180D01*
X0005924Y0162075D01*
X0005743Y0161966D01*
X0005565Y0161852D01*
X0005389Y0161734D01*
X0005217Y0161612D01*
X0005047Y0161486D01*
X0004881Y0161355D01*
X0004718Y0161221D01*
X0004558Y0161082D01*
X0004401Y0160940D01*
X0004248Y0160794D01*
X0004099Y0160645D01*
X0003953Y0160492D01*
X0003811Y0160335D01*
X0003672Y0160175D01*
X0003538Y0160012D01*
X0003407Y0159846D01*
X0003281Y0159676D01*
X0003159Y0159504D01*
X0003041Y0159328D01*
X0002927Y0159150D01*
X0002818Y0158969D01*
X0002713Y0158785D01*
X0002612Y0158599D01*
X0002516Y0158411D01*
X0002425Y0158220D01*
X0002338Y0158027D01*
X0002256Y0157833D01*
X0002179Y0157636D01*
X0002106Y0157437D01*
X0002038Y0157237D01*
X0001975Y0157035D01*
X0001917Y0156832D01*
X0001864Y0156627D01*
X0001816Y0156421D01*
X0001773Y0156214D01*
X0001735Y0156006D01*
X0001702Y0155797D01*
X0001674Y0155588D01*
X0001651Y0155377D01*
X0001633Y0155167D01*
X0001620Y0154956D01*
X0001613Y0154744D01*
X0001610Y0154533D01*
X0001610Y0055783D01*
X0001581Y0055601D01*
X0001557Y0055417D01*
X0001536Y0055233D01*
X0001521Y0055049D01*
X0001509Y0054865D01*
X0001502Y0054680D01*
X0001500Y0054495D01*
X0001502Y0054310D01*
X0001509Y0054125D01*
X0001520Y0053940D01*
X0001535Y0053756D01*
X0001555Y0053572D01*
X0001580Y0053389D01*
X0001608Y0053206D01*
X0001642Y0053024D01*
X0001679Y0052843D01*
X0001721Y0052663D01*
X0001767Y0052483D01*
X0001818Y0052306D01*
X0001873Y0052129D01*
X0001932Y0051954D01*
X0001995Y0051780D01*
X0002063Y0051608D01*
X0002135Y0051437D01*
X0002210Y0051268D01*
X0002290Y0051101D01*
X0002374Y0050937D01*
X0002462Y0050774D01*
X0002554Y0050613D01*
X0002649Y0050455D01*
X0002749Y0050299D01*
X0002852Y0050145D01*
X0002959Y0049994D01*
X0003069Y0049846D01*
X0003183Y0049700D01*
X0003301Y0049557D01*
X0003421Y0049417D01*
X0003546Y0049280D01*
X0003673Y0049146D01*
X0003804Y0049015D01*
X0003938Y0048887D01*
X0004075Y0048763D01*
X0004214Y0048642D01*
X0004357Y0048524D01*
X0004503Y0048410D01*
X0004651Y0048299D01*
X0004802Y0048192D01*
X0004955Y0048089D01*
X0005111Y0047989D01*
X0005269Y0047894D01*
X0005430Y0047802D01*
X0005593Y0047713D01*
X0005757Y0047629D01*
X0005924Y0047549D01*
X0006093Y0047473D01*
X0006263Y0047401D01*
X0006435Y0047333D01*
X0006609Y0047270D01*
X0006784Y0047210D01*
X0006961Y0047155D01*
X0007138Y0047104D01*
X0007318Y0047058D01*
X0007498Y0047016D01*
X0007679Y0046978D01*
X0007861Y0046944D01*
D11*
G36*
X0061944Y0130049D02*
X0058878Y0126983D01*
X0054698Y0131163D01*
X0057764Y0134229D01*
X0061944Y0130049D01*
G37*
G36*
X0067234Y0135338D02*
X0064168Y0132272D01*
X0059988Y0136452D01*
X0063054Y0139518D01*
X0067234Y0135338D01*
G37*
G36*
X0058465Y0138818D02*
X0055399Y0135752D01*
X0051219Y0139932D01*
X0054285Y0142998D01*
X0058465Y0138818D01*
G37*
D12*
X0044071Y0128831D03*
X0036591Y0128831D03*
X0036746Y0119461D03*
X0044226Y0119461D03*
X0111425Y0071065D03*
X0118905Y0071065D03*
X0119094Y0060073D03*
X0111613Y0060073D03*
D13*
G36*
X0083359Y0085764D02*
X0079542Y0089581D01*
X0081381Y0091420D01*
X0085198Y0087603D01*
X0083359Y0085764D01*
G37*
G36*
X0081132Y0083537D02*
X0077315Y0087354D01*
X0079154Y0089193D01*
X0082971Y0085376D01*
X0081132Y0083537D01*
G37*
G36*
X0078904Y0081310D02*
X0075087Y0085127D01*
X0076926Y0086966D01*
X0080743Y0083149D01*
X0078904Y0081310D01*
G37*
G36*
X0085586Y0087991D02*
X0081769Y0091808D01*
X0083608Y0093647D01*
X0087425Y0089830D01*
X0085586Y0087991D01*
G37*
G36*
X0087813Y0090219D02*
X0083996Y0094036D01*
X0085835Y0095875D01*
X0089652Y0092058D01*
X0087813Y0090219D01*
G37*
G36*
X0090040Y0092446D02*
X0086223Y0096263D01*
X0088062Y0098102D01*
X0091879Y0094285D01*
X0090040Y0092446D01*
G37*
G36*
X0092267Y0094673D02*
X0088450Y0098490D01*
X0090289Y0100329D01*
X0094106Y0096512D01*
X0092267Y0094673D01*
G37*
G36*
X0094494Y0096900D02*
X0090677Y0100717D01*
X0092516Y0102556D01*
X0096333Y0098739D01*
X0094494Y0096900D01*
G37*
G36*
X0070594Y0120800D02*
X0066777Y0124617D01*
X0068616Y0126456D01*
X0072433Y0122639D01*
X0070594Y0120800D01*
G37*
G36*
X0068367Y0118573D02*
X0064550Y0122390D01*
X0066389Y0124229D01*
X0070206Y0120412D01*
X0068367Y0118573D01*
G37*
G36*
X0066140Y0116346D02*
X0062323Y0120163D01*
X0064162Y0122002D01*
X0067979Y0118185D01*
X0066140Y0116346D01*
G37*
G36*
X0063913Y0114119D02*
X0060096Y0117936D01*
X0061935Y0119775D01*
X0065752Y0115958D01*
X0063913Y0114119D01*
G37*
G36*
X0061686Y0111892D02*
X0057869Y0115709D01*
X0059708Y0117548D01*
X0063525Y0113731D01*
X0061686Y0111892D01*
G37*
G36*
X0059458Y0109665D02*
X0055641Y0113482D01*
X0057480Y0115321D01*
X0061297Y0111504D01*
X0059458Y0109665D01*
G37*
G36*
X0057231Y0107437D02*
X0053414Y0111254D01*
X0055253Y0113093D01*
X0059070Y0109276D01*
X0057231Y0107437D01*
G37*
G36*
X0055004Y0105210D02*
X0051187Y0109027D01*
X0053026Y0110866D01*
X0056843Y0107049D01*
X0055004Y0105210D01*
G37*
D14*
G36*
X0053026Y0096900D02*
X0051187Y0098739D01*
X0055004Y0102556D01*
X0056843Y0100717D01*
X0053026Y0096900D01*
G37*
G36*
X0055253Y0094673D02*
X0053414Y0096512D01*
X0057231Y0100329D01*
X0059070Y0098490D01*
X0055253Y0094673D01*
G37*
G36*
X0057480Y0092446D02*
X0055641Y0094285D01*
X0059458Y0098102D01*
X0061297Y0096263D01*
X0057480Y0092446D01*
G37*
G36*
X0059708Y0090219D02*
X0057869Y0092058D01*
X0061686Y0095875D01*
X0063525Y0094036D01*
X0059708Y0090219D01*
G37*
G36*
X0061935Y0087991D02*
X0060096Y0089830D01*
X0063913Y0093647D01*
X0065752Y0091808D01*
X0061935Y0087991D01*
G37*
G36*
X0064162Y0085764D02*
X0062323Y0087603D01*
X0066140Y0091420D01*
X0067979Y0089581D01*
X0064162Y0085764D01*
G37*
G36*
X0066389Y0083537D02*
X0064550Y0085376D01*
X0068367Y0089193D01*
X0070206Y0087354D01*
X0066389Y0083537D01*
G37*
G36*
X0068616Y0081310D02*
X0066777Y0083149D01*
X0070594Y0086966D01*
X0072433Y0085127D01*
X0068616Y0081310D01*
G37*
G36*
X0092516Y0105210D02*
X0090677Y0107049D01*
X0094494Y0110866D01*
X0096333Y0109027D01*
X0092516Y0105210D01*
G37*
G36*
X0090289Y0107437D02*
X0088450Y0109276D01*
X0092267Y0113093D01*
X0094106Y0111254D01*
X0090289Y0107437D01*
G37*
G36*
X0088062Y0109665D02*
X0086223Y0111504D01*
X0090040Y0115321D01*
X0091879Y0113482D01*
X0088062Y0109665D01*
G37*
G36*
X0085835Y0111892D02*
X0083996Y0113731D01*
X0087813Y0117548D01*
X0089652Y0115709D01*
X0085835Y0111892D01*
G37*
G36*
X0083608Y0114119D02*
X0081769Y0115958D01*
X0085586Y0119775D01*
X0087425Y0117936D01*
X0083608Y0114119D01*
G37*
G36*
X0081381Y0116346D02*
X0079542Y0118185D01*
X0083359Y0122002D01*
X0085198Y0120163D01*
X0081381Y0116346D01*
G37*
G36*
X0079154Y0118573D02*
X0077315Y0120412D01*
X0081132Y0124229D01*
X0082971Y0122390D01*
X0079154Y0118573D01*
G37*
G36*
X0076926Y0120800D02*
X0075087Y0122639D01*
X0078904Y0126456D01*
X0080743Y0124617D01*
X0076926Y0120800D01*
G37*
D15*
X0030960Y0069883D03*
X0020960Y0069883D03*
X0020960Y0059883D03*
X0030960Y0059883D03*
X0010960Y0059883D03*
X0010960Y0069883D03*
D16*
X0070336Y0143490D03*
X0070336Y0150183D03*
X0070336Y0156876D03*
X0086084Y0156876D03*
X0086084Y0150183D03*
X0086084Y0143490D03*
D17*
X0087083Y0067392D03*
X0092083Y0067392D03*
X0082083Y0067392D03*
X0077083Y0067392D03*
X0072083Y0067392D03*
X0067083Y0067392D03*
X0062083Y0067392D03*
X0057083Y0067392D03*
D18*
X0097698Y0128778D03*
X0105572Y0128778D03*
X0105572Y0138933D03*
X0097698Y0138933D03*
X0097698Y0147683D03*
X0105572Y0147683D03*
X0105572Y0156433D03*
X0097698Y0156433D03*
D19*
X0046985Y0154863D03*
X0046985Y0146989D03*
D20*
X0031237Y0150926D03*
D21*
X0010360Y0113283D03*
X0010360Y0102033D03*
X0010360Y0090783D03*
X0137860Y0090783D03*
X0137860Y0102033D03*
X0137860Y0113283D03*
X0137860Y0145025D03*
X0137860Y0156525D03*
X0137860Y0079533D03*
X0137860Y0068283D03*
X0137860Y0057033D03*
M02*
