%
M48
M72
T01C0.02000
T02C0.03543
T03C0.04000
%
T01
X40862Y65025
X46689Y65869
X51348Y74795
X53529Y85113
X47476Y89946
X61610Y77033
X74110Y79533
X83961Y75691
X91669Y85783
X102860Y65783
X79880Y56751
X72026Y55484
X123623Y96264
X123623Y116509
X91158Y122352
X91562Y128017
X83664Y129861
X75350Y134283
X72860Y128283
X49860Y123783
X40198Y136917
X57860Y154783
T02
X10960Y59883
X10960Y69883
X20960Y69883
X20960Y59883
X30960Y59883
X30960Y69883
T03
X10360Y90783
X10360Y102033
X10360Y113283
X137860Y113283
X137860Y102033
X137860Y90783
X137860Y79533
X137860Y68283
X137860Y57033
X137860Y145025
X137860Y156525
M30
