G75*
%MOIN*%
%OFA0B0*%
%FSLAX25Y25*%
%IPPOS*%
%LPD*%
%AMOC8*
5,1,8,0,0,1.08239X$1,22.5*
%
%ADD10C,0.01000*%
%ADD11C,0.06400*%
%ADD12R,0.12992X0.16929*%
%ADD13OC8,0.06000*%
%ADD14C,0.03200*%
%ADD15C,0.01600*%
D10*
X0007860Y0046945D02*
X0139110Y0046945D01*
X0138976Y0049144D02*
X0008107Y0049144D01*
X0007403Y0049323D01*
X0005892Y0050117D01*
X0004701Y0051340D01*
X0003946Y0052870D01*
X0003700Y0054559D01*
X0003721Y0054783D01*
X0003810Y0054872D01*
X0003810Y0055596D01*
X0003933Y0056309D01*
X0003810Y0056482D01*
X0003810Y0154533D01*
X0003891Y0155558D01*
X0004524Y0157507D01*
X0005729Y0159165D01*
X0007387Y0160369D01*
X0009336Y0161002D01*
X0010360Y0161083D01*
X0137860Y0161083D01*
X0138597Y0161025D01*
X0138360Y0161025D01*
X0138360Y0157025D01*
X0137360Y0157025D01*
X0137360Y0156025D01*
X0133360Y0156025D01*
X0133360Y0154661D01*
X0135996Y0152025D01*
X0137360Y0152025D01*
X0137360Y0156025D01*
X0138360Y0156025D01*
X0138360Y0152025D01*
X0139724Y0152025D01*
X0142360Y0154661D01*
X0142360Y0156025D01*
X0138360Y0156025D01*
X0138360Y0157025D01*
X0142360Y0157025D01*
X0142360Y0158389D01*
X0140162Y0160588D01*
X0140834Y0160369D01*
X0142492Y0159165D01*
X0143696Y0157507D01*
X0144330Y0155558D01*
X0144410Y0154533D01*
X0144410Y0056591D01*
X0144343Y0056512D01*
X0144410Y0055693D01*
X0144410Y0054872D01*
X0144420Y0054862D01*
X0144421Y0054662D01*
X0143988Y0052837D01*
X0143013Y0051234D01*
X0141591Y0050011D01*
X0139859Y0049287D01*
X0138976Y0049144D01*
X0141679Y0050087D02*
X0005951Y0050087D01*
X0004949Y0051085D02*
X0142840Y0051085D01*
X0143530Y0052084D02*
X0004334Y0052084D01*
X0003915Y0053082D02*
X0069761Y0053082D01*
X0069559Y0053284D02*
X0070156Y0052687D01*
X0071369Y0052184D01*
X0072682Y0052184D01*
X0073895Y0052687D01*
X0074823Y0053615D01*
X0075326Y0054828D01*
X0075326Y0056141D01*
X0075068Y0056763D01*
X0078124Y0053706D01*
X0078606Y0053706D01*
X0079224Y0053451D01*
X0080536Y0053451D01*
X0081749Y0053953D01*
X0082678Y0054881D01*
X0083180Y0056094D01*
X0083180Y0057407D01*
X0082678Y0058620D01*
X0081749Y0059548D01*
X0080536Y0060051D01*
X0079224Y0060051D01*
X0078360Y0059693D01*
X0071273Y0066781D01*
X0069984Y0068069D01*
X0055758Y0068069D01*
X0061421Y0073733D01*
X0062267Y0073733D01*
X0063480Y0074235D01*
X0064077Y0074833D01*
X0072521Y0074833D01*
X0073921Y0076233D01*
X0074767Y0076233D01*
X0075980Y0076735D01*
X0076908Y0077664D01*
X0077410Y0078877D01*
X0077410Y0079122D01*
X0080661Y0075871D01*
X0080661Y0075034D01*
X0081163Y0073821D01*
X0082091Y0072893D01*
X0083304Y0072391D01*
X0084617Y0072391D01*
X0085830Y0072893D01*
X0086758Y0073821D01*
X0087261Y0075034D01*
X0087261Y0076347D01*
X0086758Y0077560D01*
X0085830Y0078488D01*
X0084617Y0078991D01*
X0083764Y0078991D01*
X0075442Y0087313D01*
X0055996Y0087313D01*
X0055399Y0087910D01*
X0054186Y0088413D01*
X0052873Y0088413D01*
X0051660Y0087910D01*
X0050732Y0086982D01*
X0050229Y0085769D01*
X0050229Y0084456D01*
X0050732Y0083244D01*
X0051660Y0082315D01*
X0052873Y0081813D01*
X0054186Y0081813D01*
X0055399Y0082315D01*
X0055996Y0082913D01*
X0073619Y0082913D01*
X0073699Y0082833D01*
X0073454Y0082833D01*
X0072241Y0082331D01*
X0071313Y0081402D01*
X0070810Y0080189D01*
X0070810Y0079344D01*
X0070699Y0079233D01*
X0064077Y0079233D01*
X0063480Y0079831D01*
X0062267Y0080333D01*
X0060954Y0080333D01*
X0059741Y0079831D01*
X0058813Y0078902D01*
X0058310Y0077689D01*
X0058310Y0076844D01*
X0053549Y0072083D01*
X0053303Y0072083D01*
X0054146Y0072926D01*
X0054648Y0074139D01*
X0054648Y0075452D01*
X0054146Y0076665D01*
X0053218Y0077593D01*
X0052005Y0078095D01*
X0051159Y0078095D01*
X0041310Y0087944D01*
X0041310Y0091122D01*
X0075060Y0124872D01*
X0075060Y0125816D01*
X0075658Y0126414D01*
X0076160Y0127627D01*
X0076160Y0128939D01*
X0075658Y0130152D01*
X0074827Y0130983D01*
X0076007Y0130983D01*
X0077220Y0131485D01*
X0077517Y0131783D01*
X0080919Y0131783D01*
X0080867Y0131730D01*
X0080364Y0130518D01*
X0080364Y0129205D01*
X0080867Y0127992D01*
X0081795Y0127064D01*
X0083008Y0126561D01*
X0084321Y0126561D01*
X0085534Y0127064D01*
X0086462Y0127992D01*
X0086964Y0129205D01*
X0086964Y0129574D01*
X0088635Y0129574D01*
X0088262Y0128673D01*
X0088262Y0127360D01*
X0088764Y0126147D01*
X0089624Y0125288D01*
X0089289Y0125149D01*
X0088691Y0124552D01*
X0081017Y0124552D01*
X0049250Y0092784D01*
X0048133Y0093246D01*
X0046820Y0093246D01*
X0045607Y0092744D01*
X0044679Y0091816D01*
X0044176Y0090603D01*
X0044176Y0089290D01*
X0044679Y0088077D01*
X0045607Y0087149D01*
X0046820Y0086646D01*
X0048133Y0086646D01*
X0049346Y0087149D01*
X0049943Y0087746D01*
X0050435Y0087746D01*
X0082840Y0120152D01*
X0088691Y0120152D01*
X0089289Y0119554D01*
X0090502Y0119052D01*
X0091815Y0119052D01*
X0093028Y0119554D01*
X0093956Y0120482D01*
X0094458Y0121695D01*
X0094458Y0122009D01*
X0114095Y0102372D01*
X0115384Y0101083D01*
X0133160Y0101083D01*
X0133160Y0100086D01*
X0135913Y0097333D01*
X0139807Y0097333D01*
X0142560Y0100086D01*
X0142560Y0103980D01*
X0139807Y0106733D01*
X0135913Y0106733D01*
X0134663Y0105483D01*
X0117207Y0105483D01*
X0094862Y0127828D01*
X0094862Y0128673D01*
X0094489Y0129574D01*
X0094708Y0129574D01*
X0111910Y0112372D01*
X0113199Y0111083D01*
X0133413Y0111083D01*
X0135913Y0108583D01*
X0139807Y0108583D01*
X0142560Y0111336D01*
X0142560Y0115230D01*
X0139807Y0117983D01*
X0135913Y0117983D01*
X0133413Y0115483D01*
X0126770Y0115483D01*
X0126923Y0115852D01*
X0126923Y0117165D01*
X0126711Y0117678D01*
X0127408Y0119019D01*
X0138441Y0119019D01*
X0139437Y0120014D01*
X0139437Y0138352D01*
X0138441Y0139348D01*
X0135679Y0139348D01*
X0136666Y0140325D01*
X0139807Y0140325D01*
X0142560Y0143078D01*
X0142560Y0146972D01*
X0139807Y0149725D01*
X0135913Y0149725D01*
X0133160Y0146972D01*
X0133160Y0143890D01*
X0129830Y0140594D01*
X0129824Y0140591D01*
X0129477Y0140244D01*
X0129128Y0139899D01*
X0129126Y0139893D01*
X0129121Y0139888D01*
X0128933Y0139433D01*
X0128897Y0139348D01*
X0124040Y0139348D01*
X0123044Y0138352D01*
X0123044Y0135234D01*
X0122580Y0135699D01*
X0121877Y0136402D01*
X0120958Y0136783D01*
X0077850Y0136783D01*
X0077850Y0137790D01*
X0077470Y0138709D01*
X0076767Y0139412D01*
X0061160Y0155019D01*
X0061160Y0155439D01*
X0060658Y0156652D01*
X0059730Y0157581D01*
X0058517Y0158083D01*
X0057204Y0158083D01*
X0055991Y0157581D01*
X0055063Y0156652D01*
X0054560Y0155439D01*
X0054560Y0154127D01*
X0055063Y0152914D01*
X0055991Y0151985D01*
X0057204Y0151483D01*
X0057625Y0151483D01*
X0072325Y0136783D01*
X0067896Y0136783D01*
X0065643Y0139036D01*
X0064724Y0139417D01*
X0042365Y0139417D01*
X0042068Y0139714D01*
X0040855Y0140217D01*
X0039542Y0140217D01*
X0038329Y0139714D01*
X0037401Y0138786D01*
X0036898Y0137573D01*
X0036898Y0136260D01*
X0037401Y0135048D01*
X0038329Y0134119D01*
X0039542Y0133617D01*
X0040855Y0133617D01*
X0042068Y0134119D01*
X0042365Y0134417D01*
X0063191Y0134417D01*
X0063825Y0133783D01*
X0024142Y0094100D01*
X0023761Y0093182D01*
X0023761Y0074011D01*
X0023736Y0074037D01*
X0021935Y0074783D01*
X0019986Y0074783D01*
X0018185Y0074037D01*
X0016806Y0072659D01*
X0016060Y0070858D01*
X0016060Y0068908D01*
X0016806Y0067107D01*
X0018185Y0065729D01*
X0019986Y0064983D01*
X0021935Y0064983D01*
X0023736Y0065729D01*
X0023761Y0065755D01*
X0023761Y0064085D01*
X0023813Y0063960D01*
X0023736Y0064037D01*
X0021935Y0064783D01*
X0019986Y0064783D01*
X0018185Y0064037D01*
X0016806Y0062659D01*
X0016060Y0060858D01*
X0016060Y0058908D01*
X0016806Y0057107D01*
X0018185Y0055729D01*
X0019986Y0054983D01*
X0021935Y0054983D01*
X0023736Y0055729D01*
X0025114Y0057107D01*
X0025860Y0058908D01*
X0025860Y0060858D01*
X0025443Y0061865D01*
X0026174Y0061133D01*
X0026060Y0060858D01*
X0026060Y0058908D01*
X0026806Y0057107D01*
X0028185Y0055729D01*
X0029986Y0054983D01*
X0031935Y0054983D01*
X0033736Y0055729D01*
X0035114Y0057107D01*
X0035860Y0058908D01*
X0035860Y0060858D01*
X0035114Y0062659D01*
X0033736Y0064037D01*
X0031935Y0064783D01*
X0029986Y0064783D01*
X0029710Y0064669D01*
X0028979Y0065400D01*
X0029986Y0064983D01*
X0031935Y0064983D01*
X0033736Y0065729D01*
X0035114Y0067107D01*
X0035353Y0067683D01*
X0038853Y0067683D01*
X0038064Y0066894D01*
X0037562Y0065681D01*
X0037562Y0064369D01*
X0038064Y0063156D01*
X0038993Y0062227D01*
X0040206Y0061725D01*
X0041051Y0061725D01*
X0048203Y0054573D01*
X0049491Y0053284D01*
X0069559Y0053284D01*
X0072026Y0055484D02*
X0050403Y0055484D01*
X0040862Y0065025D01*
X0037562Y0065064D02*
X0032131Y0065064D01*
X0033667Y0064066D02*
X0037687Y0064066D01*
X0038153Y0063067D02*
X0034706Y0063067D01*
X0035359Y0062069D02*
X0039376Y0062069D01*
X0041705Y0061070D02*
X0035772Y0061070D01*
X0035860Y0060072D02*
X0042704Y0060072D01*
X0043702Y0059073D02*
X0035860Y0059073D01*
X0035515Y0058075D02*
X0044701Y0058075D01*
X0045700Y0057076D02*
X0035083Y0057076D01*
X0034084Y0056078D02*
X0046698Y0056078D01*
X0047697Y0055079D02*
X0032167Y0055079D01*
X0029754Y0055079D02*
X0022167Y0055079D01*
X0019754Y0055079D02*
X0003810Y0055079D01*
X0003770Y0054081D02*
X0048695Y0054081D01*
X0046689Y0065869D02*
X0069073Y0065869D01*
X0079036Y0055906D01*
X0079880Y0056751D01*
X0082224Y0059073D02*
X0133254Y0059073D01*
X0133160Y0058980D02*
X0133160Y0055086D01*
X0135913Y0052333D01*
X0139807Y0052333D01*
X0142560Y0055086D01*
X0142560Y0058980D01*
X0139807Y0061733D01*
X0135913Y0061733D01*
X0133160Y0058980D01*
X0133160Y0058075D02*
X0082903Y0058075D01*
X0083180Y0057076D02*
X0133160Y0057076D01*
X0133160Y0056078D02*
X0083173Y0056078D01*
X0082760Y0055079D02*
X0133167Y0055079D01*
X0134166Y0054081D02*
X0081877Y0054081D01*
X0077750Y0054081D02*
X0075016Y0054081D01*
X0075326Y0055079D02*
X0076752Y0055079D01*
X0075753Y0056078D02*
X0075326Y0056078D01*
X0074291Y0053082D02*
X0135164Y0053082D01*
X0139110Y0046944D02*
X0139308Y0046963D01*
X0139504Y0046986D01*
X0139700Y0047014D01*
X0139896Y0047047D01*
X0140090Y0047085D01*
X0140284Y0047127D01*
X0140476Y0047174D01*
X0140667Y0047225D01*
X0140857Y0047281D01*
X0141046Y0047342D01*
X0141233Y0047407D01*
X0141418Y0047477D01*
X0141602Y0047551D01*
X0141784Y0047630D01*
X0141964Y0047713D01*
X0142142Y0047800D01*
X0142317Y0047891D01*
X0142491Y0047987D01*
X0142662Y0048087D01*
X0142830Y0048191D01*
X0142996Y0048299D01*
X0143160Y0048411D01*
X0143320Y0048527D01*
X0143478Y0048647D01*
X0143633Y0048771D01*
X0143784Y0048898D01*
X0143933Y0049029D01*
X0144079Y0049163D01*
X0144221Y0049301D01*
X0144359Y0049443D01*
X0144495Y0049587D01*
X0144627Y0049735D01*
X0144755Y0049886D01*
X0144879Y0050040D01*
X0145000Y0050198D01*
X0145117Y0050357D01*
X0145230Y0050520D01*
X0145339Y0050686D01*
X0145444Y0050853D01*
X0145545Y0051024D01*
X0145641Y0051197D01*
X0145734Y0051372D01*
X0145822Y0051549D01*
X0145906Y0051729D01*
X0145986Y0051910D01*
X0146061Y0052093D01*
X0146132Y0052278D01*
X0146198Y0052465D01*
X0146260Y0052653D01*
X0146317Y0052843D01*
X0146370Y0053034D01*
X0146418Y0053226D01*
X0146461Y0053419D01*
X0146500Y0053614D01*
X0146533Y0053809D01*
X0146563Y0054005D01*
X0146587Y0054201D01*
X0146607Y0054398D01*
X0146622Y0054596D01*
X0146632Y0054794D01*
X0146637Y0054992D01*
X0146638Y0055190D01*
X0146633Y0055388D01*
X0146624Y0055586D01*
X0146611Y0055783D01*
X0146610Y0055783D02*
X0146610Y0154533D01*
X0144379Y0154930D02*
X0142360Y0154930D01*
X0142360Y0155929D02*
X0144209Y0155929D01*
X0143885Y0156927D02*
X0138360Y0156927D01*
X0138360Y0155929D02*
X0137360Y0155929D01*
X0137360Y0156927D02*
X0060383Y0156927D01*
X0060958Y0155929D02*
X0133360Y0155929D01*
X0133360Y0154930D02*
X0061249Y0154930D01*
X0062247Y0153932D02*
X0134090Y0153932D01*
X0135088Y0152933D02*
X0063246Y0152933D01*
X0064244Y0151935D02*
X0144410Y0151935D01*
X0144410Y0152933D02*
X0140632Y0152933D01*
X0141631Y0153932D02*
X0144410Y0153932D01*
X0144410Y0150936D02*
X0065243Y0150936D01*
X0066241Y0149938D02*
X0144410Y0149938D01*
X0144410Y0148939D02*
X0140593Y0148939D01*
X0141591Y0147941D02*
X0144410Y0147941D01*
X0144410Y0146942D02*
X0142560Y0146942D01*
X0142560Y0145944D02*
X0144410Y0145944D01*
X0144410Y0144945D02*
X0142560Y0144945D01*
X0142560Y0143947D02*
X0144410Y0143947D01*
X0144410Y0142948D02*
X0142430Y0142948D01*
X0141432Y0141950D02*
X0144410Y0141950D01*
X0144410Y0140951D02*
X0140433Y0140951D01*
X0138834Y0138954D02*
X0144410Y0138954D01*
X0144410Y0137956D02*
X0139437Y0137956D01*
X0139437Y0136957D02*
X0144410Y0136957D01*
X0144410Y0135959D02*
X0139437Y0135959D01*
X0139437Y0134960D02*
X0144410Y0134960D01*
X0144410Y0133962D02*
X0139437Y0133962D01*
X0139437Y0132963D02*
X0144410Y0132963D01*
X0144410Y0131964D02*
X0139437Y0131964D01*
X0139437Y0130966D02*
X0144410Y0130966D01*
X0144410Y0129967D02*
X0139437Y0129967D01*
X0139437Y0128969D02*
X0144410Y0128969D01*
X0144410Y0127970D02*
X0139437Y0127970D01*
X0139437Y0126972D02*
X0144410Y0126972D01*
X0144410Y0125973D02*
X0139437Y0125973D01*
X0139437Y0124975D02*
X0144410Y0124975D01*
X0144410Y0123976D02*
X0139437Y0123976D01*
X0139437Y0122978D02*
X0144410Y0122978D01*
X0144410Y0121979D02*
X0139437Y0121979D01*
X0139437Y0120981D02*
X0144410Y0120981D01*
X0144410Y0119982D02*
X0139405Y0119982D01*
X0140803Y0116987D02*
X0144410Y0116987D01*
X0144410Y0117985D02*
X0126870Y0117985D01*
X0126923Y0116987D02*
X0134917Y0116987D01*
X0133919Y0115988D02*
X0126923Y0115988D01*
X0127390Y0118984D02*
X0144410Y0118984D01*
X0144410Y0115988D02*
X0141802Y0115988D01*
X0142560Y0114990D02*
X0144410Y0114990D01*
X0144410Y0113991D02*
X0142560Y0113991D01*
X0142560Y0112993D02*
X0144410Y0112993D01*
X0144410Y0111994D02*
X0142560Y0111994D01*
X0142220Y0110996D02*
X0144410Y0110996D01*
X0144410Y0109997D02*
X0141221Y0109997D01*
X0140223Y0108999D02*
X0144410Y0108999D01*
X0144410Y0108000D02*
X0114689Y0108000D01*
X0113691Y0108999D02*
X0135498Y0108999D01*
X0134499Y0109997D02*
X0112692Y0109997D01*
X0111694Y0110996D02*
X0133501Y0110996D01*
X0137860Y0113283D02*
X0114110Y0113283D01*
X0095619Y0131774D01*
X0085577Y0131774D01*
X0083664Y0129861D01*
X0085312Y0126972D02*
X0088423Y0126972D01*
X0088262Y0127970D02*
X0086440Y0127970D01*
X0086867Y0128969D02*
X0088384Y0128969D01*
X0088938Y0125973D02*
X0075217Y0125973D01*
X0075060Y0124975D02*
X0089115Y0124975D01*
X0091158Y0122352D02*
X0081929Y0122352D01*
X0049523Y0089946D01*
X0047476Y0089946D01*
X0044887Y0092024D02*
X0042212Y0092024D01*
X0041310Y0091026D02*
X0044352Y0091026D01*
X0044176Y0090027D02*
X0041310Y0090027D01*
X0041310Y0089029D02*
X0044285Y0089029D01*
X0044726Y0088030D02*
X0041310Y0088030D01*
X0042223Y0087031D02*
X0045890Y0087031D01*
X0044220Y0085034D02*
X0050229Y0085034D01*
X0050339Y0086033D02*
X0043222Y0086033D01*
X0045219Y0084036D02*
X0050404Y0084036D01*
X0050938Y0083037D02*
X0046217Y0083037D01*
X0047216Y0082039D02*
X0052327Y0082039D01*
X0054732Y0082039D02*
X0071949Y0082039D01*
X0071163Y0081040D02*
X0048214Y0081040D01*
X0049213Y0080042D02*
X0060251Y0080042D01*
X0058954Y0079043D02*
X0050211Y0079043D01*
X0052126Y0078045D02*
X0058457Y0078045D01*
X0058310Y0077046D02*
X0053764Y0077046D01*
X0054401Y0076048D02*
X0057514Y0076048D01*
X0056515Y0075049D02*
X0054648Y0075049D01*
X0054612Y0074051D02*
X0055517Y0074051D01*
X0054518Y0073052D02*
X0054198Y0073052D01*
X0054460Y0069883D02*
X0061610Y0077033D01*
X0071610Y0077033D01*
X0074110Y0079533D01*
X0076290Y0077046D02*
X0079486Y0077046D01*
X0080484Y0076048D02*
X0073736Y0076048D01*
X0072738Y0075049D02*
X0080661Y0075049D01*
X0081068Y0074051D02*
X0063034Y0074051D01*
X0060741Y0073052D02*
X0081932Y0073052D01*
X0083953Y0075691D02*
X0083961Y0075691D01*
X0083953Y0075691D02*
X0074530Y0085113D01*
X0053529Y0085113D01*
X0051949Y0088030D02*
X0050718Y0088030D01*
X0050781Y0087031D02*
X0049063Y0087031D01*
X0051717Y0089029D02*
X0112809Y0089029D01*
X0113813Y0090027D02*
X0052715Y0090027D01*
X0053714Y0091026D02*
X0114816Y0091026D01*
X0115819Y0092024D02*
X0054712Y0092024D01*
X0055711Y0093023D02*
X0116822Y0093023D01*
X0117826Y0094021D02*
X0056709Y0094021D01*
X0057708Y0095020D02*
X0118829Y0095020D01*
X0119832Y0096018D02*
X0058707Y0096018D01*
X0059705Y0097017D02*
X0120363Y0097017D01*
X0120323Y0096921D02*
X0120323Y0096507D01*
X0101447Y0077719D01*
X0101444Y0077718D01*
X0101094Y0077369D01*
X0100744Y0077020D01*
X0100743Y0077017D01*
X0100741Y0077015D01*
X0100551Y0076558D01*
X0100361Y0076102D01*
X0100361Y0076099D01*
X0100360Y0076096D01*
X0100360Y0075602D01*
X0100359Y0075107D01*
X0100360Y0075105D01*
X0100360Y0067950D01*
X0100063Y0067652D01*
X0099560Y0066439D01*
X0099560Y0065127D01*
X0100063Y0063914D01*
X0100991Y0062985D01*
X0102204Y0062483D01*
X0103517Y0062483D01*
X0104730Y0062985D01*
X0105658Y0063914D01*
X0106160Y0065127D01*
X0106160Y0066439D01*
X0105658Y0067652D01*
X0105360Y0067950D01*
X0105360Y0074560D01*
X0123852Y0092964D01*
X0124280Y0092964D01*
X0125493Y0093467D01*
X0126421Y0094395D01*
X0126923Y0095608D01*
X0126923Y0096921D01*
X0126421Y0098134D01*
X0125493Y0099062D01*
X0124280Y0099564D01*
X0122967Y0099564D01*
X0121754Y0099062D01*
X0120826Y0098134D01*
X0120323Y0096921D01*
X0120777Y0098015D02*
X0060704Y0098015D01*
X0061702Y0099014D02*
X0121706Y0099014D01*
X0125541Y0099014D02*
X0134233Y0099014D01*
X0133234Y0100012D02*
X0062701Y0100012D01*
X0063699Y0101011D02*
X0133160Y0101011D01*
X0135231Y0098015D02*
X0126470Y0098015D01*
X0126884Y0097017D02*
X0144410Y0097017D01*
X0144410Y0098015D02*
X0140489Y0098015D01*
X0141488Y0099014D02*
X0144410Y0099014D01*
X0144410Y0100012D02*
X0142486Y0100012D01*
X0142560Y0101011D02*
X0144410Y0101011D01*
X0144410Y0102009D02*
X0142560Y0102009D01*
X0142560Y0103008D02*
X0144410Y0103008D01*
X0144410Y0104006D02*
X0142534Y0104006D01*
X0141535Y0105005D02*
X0144410Y0105005D01*
X0144410Y0106003D02*
X0140537Y0106003D01*
X0144410Y0107002D02*
X0115688Y0107002D01*
X0116687Y0106003D02*
X0135184Y0106003D01*
X0136610Y0103283D02*
X0137860Y0102033D01*
X0136610Y0103283D02*
X0116295Y0103283D01*
X0091562Y0128017D01*
X0094862Y0127970D02*
X0096312Y0127970D01*
X0095718Y0126972D02*
X0097310Y0126972D01*
X0096716Y0125973D02*
X0098309Y0125973D01*
X0097715Y0124975D02*
X0099307Y0124975D01*
X0098713Y0123976D02*
X0100306Y0123976D01*
X0099712Y0122978D02*
X0101304Y0122978D01*
X0100710Y0121979D02*
X0102303Y0121979D01*
X0101709Y0120981D02*
X0103301Y0120981D01*
X0102707Y0119982D02*
X0104300Y0119982D01*
X0103706Y0118984D02*
X0105298Y0118984D01*
X0104704Y0117985D02*
X0106297Y0117985D01*
X0105703Y0116987D02*
X0107295Y0116987D01*
X0106701Y0115988D02*
X0108294Y0115988D01*
X0107700Y0114990D02*
X0109292Y0114990D01*
X0108698Y0113991D02*
X0110291Y0113991D01*
X0109697Y0112993D02*
X0111289Y0112993D01*
X0110695Y0111994D02*
X0112288Y0111994D01*
X0108467Y0108000D02*
X0070689Y0108000D01*
X0071687Y0108999D02*
X0107468Y0108999D01*
X0106470Y0109997D02*
X0072686Y0109997D01*
X0073684Y0110996D02*
X0105471Y0110996D01*
X0104473Y0111994D02*
X0074683Y0111994D01*
X0075681Y0112993D02*
X0103474Y0112993D01*
X0102476Y0113991D02*
X0076680Y0113991D01*
X0077678Y0114990D02*
X0101477Y0114990D01*
X0100479Y0115988D02*
X0078677Y0115988D01*
X0079675Y0116987D02*
X0099480Y0116987D01*
X0098482Y0117985D02*
X0080674Y0117985D01*
X0081672Y0118984D02*
X0097483Y0118984D01*
X0096485Y0119982D02*
X0093456Y0119982D01*
X0094162Y0120981D02*
X0095486Y0120981D01*
X0094488Y0121979D02*
X0094458Y0121979D01*
X0088861Y0119982D02*
X0082671Y0119982D01*
X0079444Y0122978D02*
X0073166Y0122978D01*
X0072168Y0121979D02*
X0078445Y0121979D01*
X0077447Y0120981D02*
X0071169Y0120981D01*
X0070171Y0119982D02*
X0076448Y0119982D01*
X0075450Y0118984D02*
X0069172Y0118984D01*
X0068174Y0117985D02*
X0074451Y0117985D01*
X0073453Y0116987D02*
X0067175Y0116987D01*
X0066177Y0115988D02*
X0072454Y0115988D01*
X0071456Y0114990D02*
X0065178Y0114990D01*
X0064180Y0113991D02*
X0070457Y0113991D01*
X0069459Y0112993D02*
X0063181Y0112993D01*
X0062183Y0111994D02*
X0068460Y0111994D01*
X0067462Y0110996D02*
X0061184Y0110996D01*
X0060186Y0109997D02*
X0066463Y0109997D01*
X0065465Y0108999D02*
X0059187Y0108999D01*
X0058189Y0108000D02*
X0064466Y0108000D01*
X0063468Y0107002D02*
X0057190Y0107002D01*
X0056192Y0106003D02*
X0062469Y0106003D01*
X0061471Y0105005D02*
X0055193Y0105005D01*
X0054195Y0104006D02*
X0060472Y0104006D01*
X0059474Y0103008D02*
X0053196Y0103008D01*
X0052198Y0102009D02*
X0058475Y0102009D01*
X0057477Y0101011D02*
X0051199Y0101011D01*
X0050201Y0100012D02*
X0056478Y0100012D01*
X0055480Y0099014D02*
X0049202Y0099014D01*
X0048204Y0098015D02*
X0054481Y0098015D01*
X0053482Y0097017D02*
X0047205Y0097017D01*
X0046207Y0096018D02*
X0052484Y0096018D01*
X0051485Y0095020D02*
X0045208Y0095020D01*
X0044209Y0094021D02*
X0050487Y0094021D01*
X0049488Y0093023D02*
X0048673Y0093023D01*
X0046280Y0093023D02*
X0043211Y0093023D01*
X0039110Y0092033D02*
X0039110Y0087033D01*
X0051348Y0074795D01*
X0051348Y0074795D01*
X0054460Y0069883D02*
X0030960Y0069883D01*
X0034070Y0066063D02*
X0037720Y0066063D01*
X0038231Y0067061D02*
X0035068Y0067061D01*
X0029790Y0065064D02*
X0029315Y0065064D01*
X0026148Y0061070D02*
X0025772Y0061070D01*
X0025860Y0060072D02*
X0026060Y0060072D01*
X0026060Y0059073D02*
X0025860Y0059073D01*
X0025515Y0058075D02*
X0026406Y0058075D01*
X0026837Y0057076D02*
X0025083Y0057076D01*
X0024084Y0056078D02*
X0027836Y0056078D01*
X0023769Y0064066D02*
X0023667Y0064066D01*
X0023761Y0065064D02*
X0022131Y0065064D01*
X0019790Y0065064D02*
X0012131Y0065064D01*
X0011935Y0064983D02*
X0013736Y0065729D01*
X0015114Y0067107D01*
X0015860Y0068908D01*
X0015860Y0070858D01*
X0015114Y0072659D01*
X0013736Y0074037D01*
X0011935Y0074783D01*
X0009986Y0074783D01*
X0008185Y0074037D01*
X0006806Y0072659D01*
X0006060Y0070858D01*
X0006060Y0068908D01*
X0006806Y0067107D01*
X0008185Y0065729D01*
X0009986Y0064983D01*
X0011935Y0064983D01*
X0012061Y0064467D02*
X0011346Y0064581D01*
X0011346Y0060269D01*
X0010574Y0060269D01*
X0010574Y0059497D01*
X0006263Y0059497D01*
X0006376Y0058782D01*
X0006605Y0058079D01*
X0006940Y0057420D01*
X0007375Y0056821D01*
X0007898Y0056298D01*
X0008497Y0055863D01*
X0009156Y0055527D01*
X0009860Y0055299D01*
X0010574Y0055186D01*
X0010574Y0059497D01*
X0011346Y0059497D01*
X0011346Y0055186D01*
X0012061Y0055299D01*
X0012764Y0055527D01*
X0013424Y0055863D01*
X0014022Y0056298D01*
X0014545Y0056821D01*
X0014980Y0057420D01*
X0015316Y0058079D01*
X0015544Y0058782D01*
X0015658Y0059497D01*
X0011346Y0059497D01*
X0011346Y0060269D01*
X0015658Y0060269D01*
X0015544Y0060984D01*
X0015316Y0061687D01*
X0014980Y0062346D01*
X0014545Y0062945D01*
X0014022Y0063468D01*
X0013424Y0063903D01*
X0012764Y0064239D01*
X0012061Y0064467D01*
X0011346Y0064066D02*
X0010574Y0064066D01*
X0010574Y0064581D02*
X0009860Y0064467D01*
X0009156Y0064239D01*
X0008497Y0063903D01*
X0007898Y0063468D01*
X0007375Y0062945D01*
X0006940Y0062346D01*
X0006605Y0061687D01*
X0006376Y0060984D01*
X0006263Y0060269D01*
X0010574Y0060269D01*
X0010574Y0064581D01*
X0009790Y0065064D02*
X0003810Y0065064D01*
X0003810Y0064066D02*
X0008817Y0064066D01*
X0007498Y0063067D02*
X0003810Y0063067D01*
X0003810Y0062069D02*
X0006799Y0062069D01*
X0006404Y0061070D02*
X0003810Y0061070D01*
X0003810Y0060072D02*
X0010574Y0060072D01*
X0011346Y0060072D02*
X0016060Y0060072D01*
X0016060Y0059073D02*
X0015591Y0059073D01*
X0015314Y0058075D02*
X0016406Y0058075D01*
X0016838Y0057076D02*
X0014730Y0057076D01*
X0013719Y0056078D02*
X0017836Y0056078D01*
X0016148Y0061070D02*
X0015516Y0061070D01*
X0015122Y0062069D02*
X0016562Y0062069D01*
X0017215Y0063067D02*
X0014423Y0063067D01*
X0013104Y0064066D02*
X0018254Y0064066D01*
X0017851Y0066063D02*
X0014070Y0066063D01*
X0015068Y0067061D02*
X0016852Y0067061D01*
X0016412Y0068060D02*
X0015509Y0068060D01*
X0015860Y0069058D02*
X0016060Y0069058D01*
X0016060Y0070057D02*
X0015860Y0070057D01*
X0015778Y0071055D02*
X0016142Y0071055D01*
X0016556Y0072054D02*
X0015365Y0072054D01*
X0014721Y0073052D02*
X0017200Y0073052D01*
X0018218Y0074051D02*
X0013703Y0074051D01*
X0008218Y0074051D02*
X0003810Y0074051D01*
X0003810Y0075049D02*
X0023761Y0075049D01*
X0023761Y0074051D02*
X0023703Y0074051D01*
X0023761Y0076048D02*
X0003810Y0076048D01*
X0003810Y0077046D02*
X0023761Y0077046D01*
X0023761Y0078045D02*
X0003810Y0078045D01*
X0003810Y0079043D02*
X0023761Y0079043D01*
X0023761Y0080042D02*
X0003810Y0080042D01*
X0003810Y0081040D02*
X0023761Y0081040D01*
X0023761Y0082039D02*
X0003810Y0082039D01*
X0003810Y0083037D02*
X0023761Y0083037D01*
X0023761Y0084036D02*
X0003810Y0084036D01*
X0003810Y0085034D02*
X0023761Y0085034D01*
X0023761Y0086033D02*
X0003810Y0086033D01*
X0003810Y0087031D02*
X0007465Y0087031D01*
X0008413Y0086083D02*
X0005660Y0088836D01*
X0005660Y0092730D01*
X0008413Y0095483D01*
X0012307Y0095483D01*
X0015060Y0092730D01*
X0015060Y0088836D01*
X0012307Y0086083D01*
X0008413Y0086083D01*
X0006466Y0088030D02*
X0003810Y0088030D01*
X0003810Y0089029D02*
X0005660Y0089029D01*
X0005660Y0090027D02*
X0003810Y0090027D01*
X0003810Y0091026D02*
X0005660Y0091026D01*
X0005660Y0092024D02*
X0003810Y0092024D01*
X0003810Y0093023D02*
X0005953Y0093023D01*
X0006951Y0094021D02*
X0003810Y0094021D01*
X0003810Y0095020D02*
X0007950Y0095020D01*
X0008413Y0097333D02*
X0012307Y0097333D01*
X0015060Y0100086D01*
X0015060Y0103980D01*
X0012307Y0106733D01*
X0008413Y0106733D01*
X0005660Y0103980D01*
X0005660Y0100086D01*
X0008413Y0097333D01*
X0007731Y0098015D02*
X0003810Y0098015D01*
X0003810Y0097017D02*
X0027058Y0097017D01*
X0028057Y0098015D02*
X0012989Y0098015D01*
X0013988Y0099014D02*
X0029055Y0099014D01*
X0030054Y0100012D02*
X0014986Y0100012D01*
X0015060Y0101011D02*
X0031052Y0101011D01*
X0032051Y0102009D02*
X0015060Y0102009D01*
X0015060Y0103008D02*
X0033049Y0103008D01*
X0034048Y0104006D02*
X0015034Y0104006D01*
X0014035Y0105005D02*
X0035046Y0105005D01*
X0036045Y0106003D02*
X0013037Y0106003D01*
X0012307Y0108583D02*
X0015060Y0111336D01*
X0015060Y0115230D01*
X0012307Y0117983D01*
X0008413Y0117983D01*
X0005660Y0115230D01*
X0005660Y0111336D01*
X0008413Y0108583D01*
X0012307Y0108583D01*
X0012723Y0108999D02*
X0039040Y0108999D01*
X0038042Y0108000D02*
X0003810Y0108000D01*
X0003810Y0107002D02*
X0037043Y0107002D01*
X0040039Y0109997D02*
X0013721Y0109997D01*
X0014720Y0110996D02*
X0041037Y0110996D01*
X0042036Y0111994D02*
X0015060Y0111994D01*
X0015060Y0112993D02*
X0043034Y0112993D01*
X0044033Y0113991D02*
X0015060Y0113991D01*
X0015060Y0114990D02*
X0045031Y0114990D01*
X0046030Y0115988D02*
X0014302Y0115988D01*
X0013303Y0116987D02*
X0047028Y0116987D01*
X0048027Y0117985D02*
X0003810Y0117985D01*
X0003810Y0116987D02*
X0007417Y0116987D01*
X0006419Y0115988D02*
X0003810Y0115988D01*
X0003810Y0114990D02*
X0005660Y0114990D01*
X0005660Y0113991D02*
X0003810Y0113991D01*
X0003810Y0112993D02*
X0005660Y0112993D01*
X0005660Y0111994D02*
X0003810Y0111994D01*
X0003810Y0110996D02*
X0006001Y0110996D01*
X0006999Y0109997D02*
X0003810Y0109997D01*
X0003810Y0108999D02*
X0007998Y0108999D01*
X0007684Y0106003D02*
X0003810Y0106003D01*
X0003810Y0105005D02*
X0006685Y0105005D01*
X0005687Y0104006D02*
X0003810Y0104006D01*
X0003810Y0103008D02*
X0005660Y0103008D01*
X0005660Y0102009D02*
X0003810Y0102009D01*
X0003810Y0101011D02*
X0005660Y0101011D01*
X0005734Y0100012D02*
X0003810Y0100012D01*
X0003810Y0099014D02*
X0006733Y0099014D01*
X0003810Y0096018D02*
X0026060Y0096018D01*
X0025061Y0095020D02*
X0012770Y0095020D01*
X0013769Y0094021D02*
X0024109Y0094021D01*
X0023761Y0093023D02*
X0014768Y0093023D01*
X0015060Y0092024D02*
X0023761Y0092024D01*
X0023761Y0091026D02*
X0015060Y0091026D01*
X0015060Y0090027D02*
X0023761Y0090027D01*
X0023761Y0089029D02*
X0015060Y0089029D01*
X0014254Y0088030D02*
X0023761Y0088030D01*
X0023761Y0087031D02*
X0013255Y0087031D01*
X0007200Y0073052D02*
X0003810Y0073052D01*
X0003810Y0072054D02*
X0006556Y0072054D01*
X0006142Y0071055D02*
X0003810Y0071055D01*
X0003810Y0070057D02*
X0006060Y0070057D01*
X0006060Y0069058D02*
X0003810Y0069058D01*
X0003810Y0068060D02*
X0006412Y0068060D01*
X0006852Y0067061D02*
X0003810Y0067061D01*
X0003810Y0066063D02*
X0007851Y0066063D01*
X0010574Y0063067D02*
X0011346Y0063067D01*
X0011346Y0062069D02*
X0010574Y0062069D01*
X0010574Y0061070D02*
X0011346Y0061070D01*
X0011346Y0059073D02*
X0010574Y0059073D01*
X0010574Y0058075D02*
X0011346Y0058075D01*
X0011346Y0057076D02*
X0010574Y0057076D01*
X0010574Y0056078D02*
X0011346Y0056078D01*
X0001610Y0055783D02*
X0001581Y0055601D01*
X0001557Y0055417D01*
X0001536Y0055233D01*
X0001521Y0055049D01*
X0001509Y0054865D01*
X0001502Y0054680D01*
X0001500Y0054495D01*
X0001502Y0054310D01*
X0001509Y0054125D01*
X0001520Y0053940D01*
X0001535Y0053756D01*
X0001555Y0053572D01*
X0001580Y0053389D01*
X0001608Y0053206D01*
X0001642Y0053024D01*
X0001679Y0052843D01*
X0001721Y0052663D01*
X0001767Y0052483D01*
X0001818Y0052306D01*
X0001873Y0052129D01*
X0001932Y0051954D01*
X0001995Y0051780D01*
X0002063Y0051608D01*
X0002135Y0051437D01*
X0002210Y0051268D01*
X0002290Y0051101D01*
X0002374Y0050937D01*
X0002462Y0050774D01*
X0002554Y0050613D01*
X0002649Y0050455D01*
X0002749Y0050299D01*
X0002852Y0050145D01*
X0002959Y0049994D01*
X0003069Y0049846D01*
X0003183Y0049700D01*
X0003301Y0049557D01*
X0003421Y0049417D01*
X0003546Y0049280D01*
X0003673Y0049146D01*
X0003804Y0049015D01*
X0003938Y0048887D01*
X0004075Y0048763D01*
X0004214Y0048642D01*
X0004357Y0048524D01*
X0004503Y0048410D01*
X0004651Y0048299D01*
X0004802Y0048192D01*
X0004955Y0048089D01*
X0005111Y0047989D01*
X0005269Y0047894D01*
X0005430Y0047802D01*
X0005593Y0047713D01*
X0005757Y0047629D01*
X0005924Y0047549D01*
X0006093Y0047473D01*
X0006263Y0047401D01*
X0006435Y0047333D01*
X0006609Y0047270D01*
X0006784Y0047210D01*
X0006961Y0047155D01*
X0007138Y0047104D01*
X0007318Y0047058D01*
X0007498Y0047016D01*
X0007679Y0046978D01*
X0007861Y0046944D01*
X0001610Y0055783D02*
X0001610Y0154533D01*
X0003841Y0154930D02*
X0054560Y0154930D01*
X0054641Y0153932D02*
X0003810Y0153932D01*
X0003810Y0152933D02*
X0055055Y0152933D01*
X0056113Y0151935D02*
X0003810Y0151935D01*
X0003810Y0150936D02*
X0058172Y0150936D01*
X0059170Y0149938D02*
X0003810Y0149938D01*
X0003810Y0148939D02*
X0060169Y0148939D01*
X0061167Y0147941D02*
X0003810Y0147941D01*
X0003810Y0146942D02*
X0062166Y0146942D01*
X0063164Y0145944D02*
X0003810Y0145944D01*
X0003810Y0144945D02*
X0064163Y0144945D01*
X0065161Y0143947D02*
X0003810Y0143947D01*
X0003810Y0142948D02*
X0066160Y0142948D01*
X0067158Y0141950D02*
X0003810Y0141950D01*
X0003810Y0140951D02*
X0068157Y0140951D01*
X0069155Y0139953D02*
X0041493Y0139953D01*
X0038904Y0139953D02*
X0003810Y0139953D01*
X0003810Y0138954D02*
X0008653Y0138954D01*
X0008811Y0139045D02*
X0008469Y0138848D01*
X0008190Y0138569D01*
X0007992Y0138227D01*
X0007890Y0137845D01*
X0007890Y0129683D01*
X0015386Y0129683D01*
X0015386Y0128683D01*
X0007890Y0128683D01*
X0007890Y0120521D01*
X0007992Y0120140D01*
X0008190Y0119797D01*
X0008469Y0119518D01*
X0008811Y0119321D01*
X0009193Y0119219D01*
X0015386Y0119218D01*
X0015386Y0128683D01*
X0016386Y0128683D01*
X0016386Y0119219D01*
X0022580Y0119219D01*
X0022961Y0119321D01*
X0023303Y0119518D01*
X0023583Y0119797D01*
X0023780Y0120140D01*
X0023882Y0120521D01*
X0023882Y0128683D01*
X0016386Y0128683D01*
X0016386Y0129683D01*
X0015386Y0129683D01*
X0015386Y0139148D01*
X0009193Y0139148D01*
X0008811Y0139045D01*
X0007920Y0137956D02*
X0003810Y0137956D01*
X0003810Y0136957D02*
X0007890Y0136957D01*
X0007890Y0135959D02*
X0003810Y0135959D01*
X0003810Y0134960D02*
X0007890Y0134960D01*
X0007890Y0133962D02*
X0003810Y0133962D01*
X0003810Y0132963D02*
X0007890Y0132963D01*
X0007890Y0131964D02*
X0003810Y0131964D01*
X0003810Y0130966D02*
X0007890Y0130966D01*
X0007890Y0129967D02*
X0003810Y0129967D01*
X0003810Y0128969D02*
X0015386Y0128969D01*
X0015386Y0129967D02*
X0016386Y0129967D01*
X0016386Y0129683D02*
X0016386Y0139148D01*
X0022580Y0139148D01*
X0022961Y0139045D01*
X0023303Y0138848D01*
X0023583Y0138569D01*
X0023780Y0138227D01*
X0023882Y0137845D01*
X0023882Y0129683D01*
X0016386Y0129683D01*
X0016386Y0128969D02*
X0059011Y0128969D01*
X0060009Y0129967D02*
X0023882Y0129967D01*
X0023882Y0130966D02*
X0061008Y0130966D01*
X0062006Y0131964D02*
X0023882Y0131964D01*
X0023882Y0132963D02*
X0063005Y0132963D01*
X0063646Y0133962D02*
X0041687Y0133962D01*
X0038710Y0133962D02*
X0023882Y0133962D01*
X0023882Y0134960D02*
X0037488Y0134960D01*
X0037023Y0135959D02*
X0023882Y0135959D01*
X0023882Y0136957D02*
X0036898Y0136957D01*
X0037057Y0137956D02*
X0023853Y0137956D01*
X0023119Y0138954D02*
X0037569Y0138954D01*
X0023882Y0127970D02*
X0058012Y0127970D01*
X0057014Y0126972D02*
X0023882Y0126972D01*
X0023882Y0125973D02*
X0056015Y0125973D01*
X0055017Y0124975D02*
X0023882Y0124975D01*
X0023882Y0123976D02*
X0054018Y0123976D01*
X0053020Y0122978D02*
X0023882Y0122978D01*
X0023882Y0121979D02*
X0052021Y0121979D01*
X0051023Y0120981D02*
X0023882Y0120981D01*
X0023689Y0119982D02*
X0050024Y0119982D01*
X0049025Y0118984D02*
X0003810Y0118984D01*
X0003810Y0119982D02*
X0008083Y0119982D01*
X0007890Y0120981D02*
X0003810Y0120981D01*
X0003810Y0121979D02*
X0007890Y0121979D01*
X0007890Y0122978D02*
X0003810Y0122978D01*
X0003810Y0123976D02*
X0007890Y0123976D01*
X0007890Y0124975D02*
X0003810Y0124975D01*
X0003810Y0125973D02*
X0007890Y0125973D01*
X0007890Y0126972D02*
X0003810Y0126972D01*
X0003810Y0127970D02*
X0007890Y0127970D01*
X0015386Y0127970D02*
X0016386Y0127970D01*
X0016386Y0126972D02*
X0015386Y0126972D01*
X0015386Y0125973D02*
X0016386Y0125973D01*
X0016386Y0124975D02*
X0015386Y0124975D01*
X0015386Y0123976D02*
X0016386Y0123976D01*
X0016386Y0122978D02*
X0015386Y0122978D01*
X0015386Y0121979D02*
X0016386Y0121979D01*
X0016386Y0120981D02*
X0015386Y0120981D01*
X0015386Y0119982D02*
X0016386Y0119982D01*
X0016386Y0130966D02*
X0015386Y0130966D01*
X0015386Y0131964D02*
X0016386Y0131964D01*
X0016386Y0132963D02*
X0015386Y0132963D01*
X0015386Y0133962D02*
X0016386Y0133962D01*
X0016386Y0134960D02*
X0015386Y0134960D01*
X0015386Y0135959D02*
X0016386Y0135959D01*
X0016386Y0136957D02*
X0015386Y0136957D01*
X0015386Y0137956D02*
X0016386Y0137956D01*
X0016386Y0138954D02*
X0015386Y0138954D01*
X0001610Y0154533D02*
X0001613Y0154744D01*
X0001620Y0154956D01*
X0001633Y0155167D01*
X0001651Y0155377D01*
X0001674Y0155588D01*
X0001702Y0155797D01*
X0001735Y0156006D01*
X0001773Y0156214D01*
X0001816Y0156421D01*
X0001864Y0156627D01*
X0001917Y0156832D01*
X0001975Y0157035D01*
X0002038Y0157237D01*
X0002106Y0157437D01*
X0002179Y0157636D01*
X0002256Y0157833D01*
X0002338Y0158027D01*
X0002425Y0158220D01*
X0002516Y0158411D01*
X0002612Y0158599D01*
X0002713Y0158785D01*
X0002818Y0158969D01*
X0002927Y0159150D01*
X0003041Y0159328D01*
X0003159Y0159504D01*
X0003281Y0159676D01*
X0003407Y0159846D01*
X0003538Y0160012D01*
X0003672Y0160175D01*
X0003811Y0160335D01*
X0003953Y0160492D01*
X0004099Y0160645D01*
X0004248Y0160794D01*
X0004401Y0160940D01*
X0004558Y0161082D01*
X0004718Y0161221D01*
X0004881Y0161355D01*
X0005047Y0161486D01*
X0005217Y0161612D01*
X0005389Y0161734D01*
X0005565Y0161852D01*
X0005743Y0161966D01*
X0005924Y0162075D01*
X0006108Y0162180D01*
X0006294Y0162281D01*
X0006482Y0162377D01*
X0006673Y0162468D01*
X0006866Y0162555D01*
X0007060Y0162637D01*
X0007257Y0162714D01*
X0007456Y0162787D01*
X0007656Y0162855D01*
X0007858Y0162918D01*
X0008061Y0162976D01*
X0008266Y0163029D01*
X0008472Y0163077D01*
X0008679Y0163120D01*
X0008887Y0163158D01*
X0009096Y0163191D01*
X0009305Y0163219D01*
X0009516Y0163242D01*
X0009726Y0163260D01*
X0009937Y0163273D01*
X0010149Y0163280D01*
X0010360Y0163283D01*
X0137860Y0163283D01*
X0137360Y0161025D02*
X0135996Y0161025D01*
X0133360Y0158389D01*
X0133360Y0157025D01*
X0137360Y0157025D01*
X0137360Y0161025D01*
X0137360Y0160921D02*
X0138360Y0160921D01*
X0138360Y0159923D02*
X0137360Y0159923D01*
X0137360Y0158924D02*
X0138360Y0158924D01*
X0138360Y0157926D02*
X0137360Y0157926D01*
X0137360Y0154930D02*
X0138360Y0154930D01*
X0146610Y0154533D02*
X0146607Y0154744D01*
X0146600Y0154956D01*
X0146587Y0155167D01*
X0146569Y0155377D01*
X0146546Y0155588D01*
X0146518Y0155797D01*
X0146485Y0156006D01*
X0146447Y0156214D01*
X0146404Y0156421D01*
X0146356Y0156627D01*
X0146303Y0156832D01*
X0146245Y0157035D01*
X0146182Y0157237D01*
X0146114Y0157437D01*
X0146041Y0157636D01*
X0145964Y0157833D01*
X0145882Y0158027D01*
X0145795Y0158220D01*
X0145704Y0158411D01*
X0145608Y0158599D01*
X0145507Y0158785D01*
X0145402Y0158969D01*
X0145293Y0159150D01*
X0145179Y0159328D01*
X0145061Y0159504D01*
X0144939Y0159676D01*
X0144813Y0159846D01*
X0144682Y0160012D01*
X0144548Y0160175D01*
X0144409Y0160335D01*
X0144267Y0160492D01*
X0144121Y0160645D01*
X0143972Y0160794D01*
X0143819Y0160940D01*
X0143662Y0161082D01*
X0143502Y0161221D01*
X0143339Y0161355D01*
X0143173Y0161486D01*
X0143003Y0161612D01*
X0142831Y0161734D01*
X0142655Y0161852D01*
X0142477Y0161966D01*
X0142296Y0162075D01*
X0142112Y0162180D01*
X0141926Y0162281D01*
X0141738Y0162377D01*
X0141547Y0162468D01*
X0141354Y0162555D01*
X0141160Y0162637D01*
X0140963Y0162714D01*
X0140764Y0162787D01*
X0140564Y0162855D01*
X0140362Y0162918D01*
X0140159Y0162976D01*
X0139954Y0163029D01*
X0139748Y0163077D01*
X0139541Y0163120D01*
X0139333Y0163158D01*
X0139124Y0163191D01*
X0138915Y0163219D01*
X0138704Y0163242D01*
X0138494Y0163260D01*
X0138283Y0163273D01*
X0138071Y0163280D01*
X0137860Y0163283D01*
X0135892Y0160921D02*
X0009086Y0160921D01*
X0006772Y0159923D02*
X0134894Y0159923D01*
X0133895Y0158924D02*
X0005554Y0158924D01*
X0004829Y0157926D02*
X0056824Y0157926D01*
X0055338Y0156927D02*
X0004336Y0156927D01*
X0004011Y0155929D02*
X0054763Y0155929D01*
X0058896Y0157926D02*
X0133360Y0157926D01*
X0137360Y0153932D02*
X0138360Y0153932D01*
X0138360Y0152933D02*
X0137360Y0152933D01*
X0135128Y0148939D02*
X0067240Y0148939D01*
X0068238Y0147941D02*
X0134129Y0147941D01*
X0133160Y0146942D02*
X0069237Y0146942D01*
X0070235Y0145944D02*
X0133160Y0145944D01*
X0133160Y0144945D02*
X0071234Y0144945D01*
X0072232Y0143947D02*
X0133160Y0143947D01*
X0132209Y0142948D02*
X0073231Y0142948D01*
X0074229Y0141950D02*
X0131200Y0141950D01*
X0130191Y0140951D02*
X0075228Y0140951D01*
X0076226Y0139953D02*
X0129183Y0139953D01*
X0123647Y0138954D02*
X0077225Y0138954D01*
X0077782Y0137956D02*
X0123044Y0137956D01*
X0123044Y0136957D02*
X0077850Y0136957D01*
X0072151Y0136957D02*
X0067722Y0136957D01*
X0066723Y0137956D02*
X0071152Y0137956D01*
X0070154Y0138954D02*
X0065725Y0138954D01*
X0074844Y0130966D02*
X0080550Y0130966D01*
X0080364Y0129967D02*
X0075734Y0129967D01*
X0076148Y0128969D02*
X0080462Y0128969D01*
X0080888Y0127970D02*
X0076160Y0127970D01*
X0075889Y0126972D02*
X0082016Y0126972D01*
X0080442Y0123976D02*
X0074165Y0123976D01*
X0072860Y0125783D02*
X0072860Y0128283D01*
X0072860Y0125783D02*
X0039110Y0092033D01*
X0055110Y0088030D02*
X0111806Y0088030D01*
X0110803Y0087031D02*
X0075723Y0087031D01*
X0076722Y0086033D02*
X0109800Y0086033D01*
X0108797Y0085034D02*
X0077720Y0085034D01*
X0078719Y0084036D02*
X0107793Y0084036D01*
X0106790Y0083037D02*
X0079717Y0083037D01*
X0080716Y0082039D02*
X0105787Y0082039D01*
X0104784Y0081040D02*
X0081714Y0081040D01*
X0082713Y0080042D02*
X0103780Y0080042D01*
X0102777Y0079043D02*
X0083711Y0079043D01*
X0086273Y0078045D02*
X0101774Y0078045D01*
X0100771Y0077046D02*
X0086971Y0077046D01*
X0087261Y0076048D02*
X0100360Y0076048D01*
X0100360Y0075049D02*
X0087261Y0075049D01*
X0086853Y0074051D02*
X0100360Y0074051D01*
X0100360Y0073052D02*
X0085989Y0073052D01*
X0078487Y0078045D02*
X0077066Y0078045D01*
X0077410Y0079043D02*
X0077489Y0079043D01*
X0070810Y0080042D02*
X0062970Y0080042D01*
X0059742Y0072054D02*
X0100360Y0072054D01*
X0100360Y0071055D02*
X0058744Y0071055D01*
X0057745Y0070057D02*
X0100360Y0070057D01*
X0100360Y0069058D02*
X0056747Y0069058D01*
X0069994Y0068060D02*
X0100360Y0068060D01*
X0099818Y0067061D02*
X0070992Y0067061D01*
X0071991Y0066063D02*
X0099560Y0066063D01*
X0099586Y0065064D02*
X0072989Y0065064D01*
X0073988Y0064066D02*
X0100000Y0064066D01*
X0100909Y0063067D02*
X0074986Y0063067D01*
X0075985Y0062069D02*
X0144410Y0062069D01*
X0144410Y0063067D02*
X0104811Y0063067D01*
X0105721Y0064066D02*
X0135431Y0064066D01*
X0135913Y0063583D02*
X0139807Y0063583D01*
X0142560Y0066336D01*
X0142560Y0070230D01*
X0139807Y0072983D01*
X0135913Y0072983D01*
X0133160Y0070230D01*
X0133160Y0066336D01*
X0135913Y0063583D01*
X0134432Y0065064D02*
X0106134Y0065064D01*
X0106160Y0066063D02*
X0133434Y0066063D01*
X0133160Y0067061D02*
X0105903Y0067061D01*
X0105360Y0068060D02*
X0133160Y0068060D01*
X0133160Y0069058D02*
X0105360Y0069058D01*
X0105360Y0070057D02*
X0133160Y0070057D01*
X0133986Y0071055D02*
X0105360Y0071055D01*
X0105360Y0072054D02*
X0134984Y0072054D01*
X0135913Y0074833D02*
X0139807Y0074833D01*
X0142560Y0077586D01*
X0142560Y0081480D01*
X0139807Y0084233D01*
X0135913Y0084233D01*
X0133160Y0081480D01*
X0133160Y0077586D01*
X0135913Y0074833D01*
X0135697Y0075049D02*
X0105852Y0075049D01*
X0105360Y0074051D02*
X0144410Y0074051D01*
X0144410Y0075049D02*
X0140023Y0075049D01*
X0141022Y0076048D02*
X0144410Y0076048D01*
X0144410Y0077046D02*
X0142020Y0077046D01*
X0142560Y0078045D02*
X0144410Y0078045D01*
X0144410Y0079043D02*
X0142560Y0079043D01*
X0142560Y0080042D02*
X0144410Y0080042D01*
X0144410Y0081040D02*
X0142560Y0081040D01*
X0142001Y0082039D02*
X0144410Y0082039D01*
X0144410Y0083037D02*
X0141003Y0083037D01*
X0140004Y0084036D02*
X0144410Y0084036D01*
X0144410Y0085034D02*
X0115884Y0085034D01*
X0114881Y0084036D02*
X0135716Y0084036D01*
X0134718Y0083037D02*
X0113878Y0083037D01*
X0112875Y0082039D02*
X0133719Y0082039D01*
X0133160Y0081040D02*
X0111871Y0081040D01*
X0110868Y0080042D02*
X0133160Y0080042D01*
X0133160Y0079043D02*
X0109865Y0079043D01*
X0108862Y0078045D02*
X0133160Y0078045D01*
X0133700Y0077046D02*
X0107858Y0077046D01*
X0106855Y0076048D02*
X0134699Y0076048D01*
X0140736Y0072054D02*
X0144410Y0072054D01*
X0144410Y0073052D02*
X0105360Y0073052D01*
X0116888Y0086033D02*
X0144410Y0086033D01*
X0144410Y0087031D02*
X0140755Y0087031D01*
X0139807Y0086083D02*
X0142560Y0088836D01*
X0142560Y0092730D01*
X0139807Y0095483D01*
X0135913Y0095483D01*
X0133160Y0092730D01*
X0133160Y0088836D01*
X0135913Y0086083D01*
X0139807Y0086083D01*
X0141754Y0088030D02*
X0144410Y0088030D01*
X0144410Y0089029D02*
X0142560Y0089029D01*
X0142560Y0090027D02*
X0144410Y0090027D01*
X0144410Y0091026D02*
X0142560Y0091026D01*
X0142560Y0092024D02*
X0144410Y0092024D01*
X0144410Y0093023D02*
X0142268Y0093023D01*
X0141269Y0094021D02*
X0144410Y0094021D01*
X0144410Y0095020D02*
X0140270Y0095020D01*
X0144410Y0096018D02*
X0126923Y0096018D01*
X0126680Y0095020D02*
X0135450Y0095020D01*
X0134451Y0094021D02*
X0126047Y0094021D01*
X0124420Y0093023D02*
X0133453Y0093023D01*
X0133160Y0092024D02*
X0122907Y0092024D01*
X0121904Y0091026D02*
X0133160Y0091026D01*
X0133160Y0090027D02*
X0120900Y0090027D01*
X0119897Y0089029D02*
X0133160Y0089029D01*
X0133966Y0088030D02*
X0118894Y0088030D01*
X0117891Y0087031D02*
X0134965Y0087031D01*
X0141735Y0071055D02*
X0144410Y0071055D01*
X0144410Y0070057D02*
X0142560Y0070057D01*
X0142560Y0069058D02*
X0144410Y0069058D01*
X0144410Y0068060D02*
X0142560Y0068060D01*
X0142560Y0067061D02*
X0144410Y0067061D01*
X0144410Y0066063D02*
X0142287Y0066063D01*
X0141288Y0065064D02*
X0144410Y0065064D01*
X0144410Y0064066D02*
X0140290Y0064066D01*
X0140470Y0061070D02*
X0144410Y0061070D01*
X0144410Y0060072D02*
X0141468Y0060072D01*
X0142467Y0059073D02*
X0144410Y0059073D01*
X0144410Y0058075D02*
X0142560Y0058075D01*
X0142560Y0057076D02*
X0144410Y0057076D01*
X0144379Y0056078D02*
X0142560Y0056078D01*
X0142553Y0055079D02*
X0144410Y0055079D01*
X0144283Y0054081D02*
X0141555Y0054081D01*
X0140556Y0053082D02*
X0144047Y0053082D01*
X0135251Y0061070D02*
X0076983Y0061070D01*
X0077982Y0060072D02*
X0134252Y0060072D01*
X0114458Y0102009D02*
X0064698Y0102009D01*
X0065696Y0103008D02*
X0113460Y0103008D01*
X0112461Y0104006D02*
X0066695Y0104006D01*
X0067693Y0105005D02*
X0111462Y0105005D01*
X0110464Y0106003D02*
X0068692Y0106003D01*
X0069690Y0107002D02*
X0109465Y0107002D01*
X0095313Y0128969D02*
X0094739Y0128969D01*
X0122320Y0135959D02*
X0123044Y0135959D01*
X0122580Y0135699D02*
X0122580Y0135699D01*
X0136290Y0139953D02*
X0144410Y0139953D01*
X0143392Y0157926D02*
X0142360Y0157926D01*
X0142666Y0158924D02*
X0141825Y0158924D01*
X0141448Y0159923D02*
X0140826Y0159923D01*
X0008202Y0056078D02*
X0003893Y0056078D01*
X0003810Y0057076D02*
X0007190Y0057076D01*
X0006607Y0058075D02*
X0003810Y0058075D01*
X0003810Y0059073D02*
X0006330Y0059073D01*
D11*
X0010960Y0059883D03*
X0010960Y0069883D03*
X0020960Y0069883D03*
X0020960Y0059883D03*
X0030960Y0059883D03*
X0030960Y0069883D03*
D12*
X0015886Y0129183D03*
X0131241Y0129183D03*
D13*
X0137860Y0145025D03*
X0137860Y0156525D03*
X0137860Y0113283D03*
X0137860Y0102033D03*
X0137860Y0090783D03*
X0137860Y0079533D03*
X0137860Y0068283D03*
X0137860Y0057033D03*
X0010360Y0090783D03*
X0010360Y0102033D03*
X0010360Y0113283D03*
D14*
X0040198Y0136917D03*
X0049860Y0123783D03*
X0072860Y0128283D03*
X0075350Y0134283D03*
X0083664Y0129861D03*
X0091562Y0128017D03*
X0091158Y0122352D03*
X0123623Y0116509D03*
X0123623Y0096264D03*
X0102860Y0065783D03*
X0083961Y0075691D03*
X0074110Y0079533D03*
X0061610Y0077033D03*
X0053529Y0085113D03*
X0047476Y0089946D03*
X0051348Y0074795D03*
X0046689Y0065869D03*
X0040862Y0065025D03*
X0072026Y0055484D03*
X0079880Y0056751D03*
X0091669Y0085783D03*
X0057860Y0154783D03*
D15*
X0075350Y0137293D01*
X0075350Y0134283D01*
X0075350Y0134283D01*
X0067860Y0134283D01*
X0067360Y0133783D01*
X0064226Y0136917D01*
X0040198Y0136917D01*
X0067360Y0133783D02*
X0026261Y0092684D01*
X0026261Y0064582D01*
X0030960Y0059883D01*
X0075350Y0134283D02*
X0120460Y0134283D01*
X0128400Y0126343D01*
X0123400Y0116732D01*
X0123623Y0116509D01*
X0123623Y0116509D01*
X0128400Y0126343D02*
X0131241Y0129183D01*
X0131241Y0138472D01*
X0137860Y0145025D01*
X0123623Y0096264D02*
X0102860Y0075599D01*
X0102860Y0065783D01*
M02*
