G75*
%MOIN*%
%OFA0B0*%
%FSLAX25Y25*%
%IPPOS*%
%LPD*%
%AMOC8*
5,1,8,0,0,1.08239X$1,22.5*
%
%ADD10C,0.01000*%
%ADD11C,0.00700*%
%ADD12C,0.01500*%
%ADD13C,0.00200*%
%ADD14R,0.02400X0.00100*%
%ADD15R,0.03600X0.00100*%
%ADD16R,0.04300X0.00100*%
%ADD17R,0.05000X0.00100*%
%ADD18R,0.05600X0.00100*%
%ADD19R,0.06300X0.00100*%
%ADD20R,0.07000X0.00100*%
%ADD21R,0.07300X0.00100*%
%ADD22R,0.07800X0.00100*%
%ADD23R,0.08100X0.00100*%
%ADD24R,0.08500X0.00100*%
%ADD25R,0.09000X0.00100*%
%ADD26R,0.09300X0.00100*%
%ADD27R,0.09600X0.00100*%
%ADD28R,0.09900X0.00100*%
%ADD29R,0.10200X0.00100*%
%ADD30R,0.10600X0.00100*%
%ADD31R,0.10800X0.00100*%
%ADD32R,0.11100X0.00100*%
%ADD33R,0.11400X0.00100*%
%ADD34R,0.11600X0.00100*%
%ADD35R,0.11800X0.00100*%
%ADD36R,0.12000X0.00100*%
%ADD37R,0.12300X0.00100*%
%ADD38R,0.12500X0.00100*%
%ADD39R,0.12700X0.00100*%
%ADD40R,0.12900X0.00100*%
%ADD41R,0.13200X0.00100*%
%ADD42R,0.13300X0.00100*%
%ADD43R,0.13500X0.00100*%
%ADD44R,0.13600X0.00100*%
%ADD45R,0.13800X0.00100*%
%ADD46R,0.14000X0.00100*%
%ADD47R,0.14200X0.00100*%
%ADD48R,0.06700X0.00100*%
%ADD49R,0.06200X0.00100*%
%ADD50R,0.05800X0.00100*%
%ADD51R,0.05500X0.00100*%
%ADD52R,0.05300X0.00100*%
%ADD53R,0.05200X0.00100*%
%ADD54R,0.05100X0.00100*%
%ADD55R,0.04700X0.00100*%
%ADD56R,0.04800X0.00100*%
%ADD57R,0.04500X0.00100*%
%ADD58R,0.04600X0.00100*%
%ADD59R,0.04200X0.00100*%
%ADD60R,0.04100X0.00100*%
%ADD61R,0.04000X0.00100*%
%ADD62R,0.03900X0.00100*%
%ADD63R,0.03800X0.00100*%
%ADD64R,0.03700X0.00100*%
%ADD65R,0.01400X0.00100*%
%ADD66R,0.02000X0.00100*%
%ADD67R,0.02200X0.00100*%
%ADD68R,0.02600X0.00100*%
%ADD69R,0.02800X0.00100*%
%ADD70R,0.02900X0.00100*%
%ADD71R,0.03000X0.00100*%
%ADD72R,0.03100X0.00100*%
%ADD73R,0.03200X0.00100*%
%ADD74R,0.03300X0.00100*%
%ADD75R,0.04400X0.00100*%
%ADD76R,0.02700X0.00100*%
%ADD77R,0.01700X0.00100*%
%ADD78R,0.01600X0.00100*%
%ADD79R,0.04900X0.00100*%
%ADD80R,0.01300X0.00100*%
%ADD81R,0.06600X0.00100*%
%ADD82R,0.06500X0.00100*%
%ADD83R,0.06100X0.00100*%
%ADD84R,0.06000X0.00100*%
%ADD85R,0.05900X0.00100*%
%ADD86R,0.05700X0.00100*%
%ADD87R,0.05400X0.00100*%
%ADD88R,0.07100X0.00100*%
%ADD89R,0.02300X0.00100*%
%ADD90R,0.02500X0.00100*%
%ADD91R,0.02100X0.00100*%
%ADD92R,0.01800X0.00100*%
%ADD93R,0.01500X0.00100*%
%ADD94R,0.01100X0.00100*%
%ADD95R,0.00400X0.00100*%
%ADD96R,0.00900X0.00100*%
%ADD97R,0.06800X0.00100*%
%ADD98R,0.14700X0.00100*%
%ADD99R,0.14600X0.00100*%
%ADD100R,0.14400X0.00100*%
%ADD101R,0.13900X0.00100*%
%ADD102R,0.13700X0.00100*%
%ADD103R,0.13400X0.00100*%
%ADD104R,0.13000X0.00100*%
%ADD105R,0.12800X0.00100*%
%ADD106R,0.12600X0.00100*%
%ADD107R,0.12400X0.00100*%
%ADD108R,0.12200X0.00100*%
%ADD109R,0.00100X0.00100*%
%ADD110R,0.00300X0.00100*%
%ADD111R,0.00500X0.00100*%
%ADD112R,0.11200X0.00100*%
%ADD113R,0.00700X0.00100*%
%ADD114R,0.00600X0.00100*%
%ADD115R,0.11000X0.00100*%
%ADD116R,0.10300X0.00100*%
%ADD117R,0.01200X0.00100*%
%ADD118R,0.10000X0.00100*%
%ADD119R,0.09700X0.00100*%
%ADD120R,0.09400X0.00100*%
%ADD121R,0.09100X0.00100*%
%ADD122R,0.08700X0.00100*%
%ADD123R,0.08200X0.00100*%
%ADD124R,0.07900X0.00100*%
%ADD125R,0.07500X0.00100*%
%ADD126R,0.00200X0.00100*%
%ADD127R,0.00800X0.00100*%
%ADD128R,0.01000X0.00100*%
%ADD129R,0.01900X0.00100*%
%ADD130R,0.07400X0.00100*%
%ADD131R,0.06900X0.00100*%
%ADD132R,0.03500X0.00100*%
%ADD133R,0.08900X0.00100*%
%ADD134R,0.08300X0.00100*%
%ADD135R,0.07200X0.00100*%
%ADD136R,0.03400X0.00100*%
%ADD137R,0.09200X0.00100*%
%ADD138C,0.00400*%
D10*
X0007860Y0046945D02*
X0139110Y0046945D01*
X0139110Y0046944D02*
X0139308Y0046963D01*
X0139504Y0046986D01*
X0139700Y0047014D01*
X0139896Y0047047D01*
X0140090Y0047085D01*
X0140284Y0047127D01*
X0140476Y0047174D01*
X0140667Y0047225D01*
X0140857Y0047281D01*
X0141046Y0047342D01*
X0141233Y0047407D01*
X0141418Y0047477D01*
X0141602Y0047551D01*
X0141784Y0047630D01*
X0141964Y0047713D01*
X0142142Y0047800D01*
X0142317Y0047891D01*
X0142491Y0047987D01*
X0142662Y0048087D01*
X0142830Y0048191D01*
X0142996Y0048299D01*
X0143160Y0048411D01*
X0143320Y0048527D01*
X0143478Y0048647D01*
X0143633Y0048771D01*
X0143784Y0048898D01*
X0143933Y0049029D01*
X0144079Y0049163D01*
X0144221Y0049301D01*
X0144359Y0049443D01*
X0144495Y0049587D01*
X0144627Y0049735D01*
X0144755Y0049886D01*
X0144879Y0050040D01*
X0145000Y0050198D01*
X0145117Y0050357D01*
X0145230Y0050520D01*
X0145339Y0050686D01*
X0145444Y0050853D01*
X0145545Y0051024D01*
X0145641Y0051197D01*
X0145734Y0051372D01*
X0145822Y0051549D01*
X0145906Y0051729D01*
X0145986Y0051910D01*
X0146061Y0052093D01*
X0146132Y0052278D01*
X0146198Y0052465D01*
X0146260Y0052653D01*
X0146317Y0052843D01*
X0146370Y0053034D01*
X0146418Y0053226D01*
X0146461Y0053419D01*
X0146500Y0053614D01*
X0146533Y0053809D01*
X0146563Y0054005D01*
X0146587Y0054201D01*
X0146607Y0054398D01*
X0146622Y0054596D01*
X0146632Y0054794D01*
X0146637Y0054992D01*
X0146638Y0055190D01*
X0146633Y0055388D01*
X0146624Y0055586D01*
X0146611Y0055783D01*
X0146610Y0055783D02*
X0146610Y0154533D01*
X0146607Y0154744D01*
X0146600Y0154956D01*
X0146587Y0155167D01*
X0146569Y0155377D01*
X0146546Y0155588D01*
X0146518Y0155797D01*
X0146485Y0156006D01*
X0146447Y0156214D01*
X0146404Y0156421D01*
X0146356Y0156627D01*
X0146303Y0156832D01*
X0146245Y0157035D01*
X0146182Y0157237D01*
X0146114Y0157437D01*
X0146041Y0157636D01*
X0145964Y0157833D01*
X0145882Y0158027D01*
X0145795Y0158220D01*
X0145704Y0158411D01*
X0145608Y0158599D01*
X0145507Y0158785D01*
X0145402Y0158969D01*
X0145293Y0159150D01*
X0145179Y0159328D01*
X0145061Y0159504D01*
X0144939Y0159676D01*
X0144813Y0159846D01*
X0144682Y0160012D01*
X0144548Y0160175D01*
X0144409Y0160335D01*
X0144267Y0160492D01*
X0144121Y0160645D01*
X0143972Y0160794D01*
X0143819Y0160940D01*
X0143662Y0161082D01*
X0143502Y0161221D01*
X0143339Y0161355D01*
X0143173Y0161486D01*
X0143003Y0161612D01*
X0142831Y0161734D01*
X0142655Y0161852D01*
X0142477Y0161966D01*
X0142296Y0162075D01*
X0142112Y0162180D01*
X0141926Y0162281D01*
X0141738Y0162377D01*
X0141547Y0162468D01*
X0141354Y0162555D01*
X0141160Y0162637D01*
X0140963Y0162714D01*
X0140764Y0162787D01*
X0140564Y0162855D01*
X0140362Y0162918D01*
X0140159Y0162976D01*
X0139954Y0163029D01*
X0139748Y0163077D01*
X0139541Y0163120D01*
X0139333Y0163158D01*
X0139124Y0163191D01*
X0138915Y0163219D01*
X0138704Y0163242D01*
X0138494Y0163260D01*
X0138283Y0163273D01*
X0138071Y0163280D01*
X0137860Y0163283D01*
X0010360Y0163283D01*
X0010149Y0163280D01*
X0009937Y0163273D01*
X0009726Y0163260D01*
X0009516Y0163242D01*
X0009305Y0163219D01*
X0009096Y0163191D01*
X0008887Y0163158D01*
X0008679Y0163120D01*
X0008472Y0163077D01*
X0008266Y0163029D01*
X0008061Y0162976D01*
X0007858Y0162918D01*
X0007656Y0162855D01*
X0007456Y0162787D01*
X0007257Y0162714D01*
X0007060Y0162637D01*
X0006866Y0162555D01*
X0006673Y0162468D01*
X0006482Y0162377D01*
X0006294Y0162281D01*
X0006108Y0162180D01*
X0005924Y0162075D01*
X0005743Y0161966D01*
X0005565Y0161852D01*
X0005389Y0161734D01*
X0005217Y0161612D01*
X0005047Y0161486D01*
X0004881Y0161355D01*
X0004718Y0161221D01*
X0004558Y0161082D01*
X0004401Y0160940D01*
X0004248Y0160794D01*
X0004099Y0160645D01*
X0003953Y0160492D01*
X0003811Y0160335D01*
X0003672Y0160175D01*
X0003538Y0160012D01*
X0003407Y0159846D01*
X0003281Y0159676D01*
X0003159Y0159504D01*
X0003041Y0159328D01*
X0002927Y0159150D01*
X0002818Y0158969D01*
X0002713Y0158785D01*
X0002612Y0158599D01*
X0002516Y0158411D01*
X0002425Y0158220D01*
X0002338Y0158027D01*
X0002256Y0157833D01*
X0002179Y0157636D01*
X0002106Y0157437D01*
X0002038Y0157237D01*
X0001975Y0157035D01*
X0001917Y0156832D01*
X0001864Y0156627D01*
X0001816Y0156421D01*
X0001773Y0156214D01*
X0001735Y0156006D01*
X0001702Y0155797D01*
X0001674Y0155588D01*
X0001651Y0155377D01*
X0001633Y0155167D01*
X0001620Y0154956D01*
X0001613Y0154744D01*
X0001610Y0154533D01*
X0001610Y0055783D01*
X0001581Y0055601D01*
X0001557Y0055417D01*
X0001536Y0055233D01*
X0001521Y0055049D01*
X0001509Y0054865D01*
X0001502Y0054680D01*
X0001500Y0054495D01*
X0001502Y0054310D01*
X0001509Y0054125D01*
X0001520Y0053940D01*
X0001535Y0053756D01*
X0001555Y0053572D01*
X0001580Y0053389D01*
X0001608Y0053206D01*
X0001642Y0053024D01*
X0001679Y0052843D01*
X0001721Y0052663D01*
X0001767Y0052483D01*
X0001818Y0052306D01*
X0001873Y0052129D01*
X0001932Y0051954D01*
X0001995Y0051780D01*
X0002063Y0051608D01*
X0002135Y0051437D01*
X0002210Y0051268D01*
X0002290Y0051101D01*
X0002374Y0050937D01*
X0002462Y0050774D01*
X0002554Y0050613D01*
X0002649Y0050455D01*
X0002749Y0050299D01*
X0002852Y0050145D01*
X0002959Y0049994D01*
X0003069Y0049846D01*
X0003183Y0049700D01*
X0003301Y0049557D01*
X0003421Y0049417D01*
X0003546Y0049280D01*
X0003673Y0049146D01*
X0003804Y0049015D01*
X0003938Y0048887D01*
X0004075Y0048763D01*
X0004214Y0048642D01*
X0004357Y0048524D01*
X0004503Y0048410D01*
X0004651Y0048299D01*
X0004802Y0048192D01*
X0004955Y0048089D01*
X0005111Y0047989D01*
X0005269Y0047894D01*
X0005430Y0047802D01*
X0005593Y0047713D01*
X0005757Y0047629D01*
X0005924Y0047549D01*
X0006093Y0047473D01*
X0006263Y0047401D01*
X0006435Y0047333D01*
X0006609Y0047270D01*
X0006784Y0047210D01*
X0006961Y0047155D01*
X0007138Y0047104D01*
X0007318Y0047058D01*
X0007498Y0047016D01*
X0007679Y0046978D01*
X0007861Y0046944D01*
D11*
X0008584Y0050383D02*
X0010486Y0050383D01*
X0011120Y0051017D01*
X0011120Y0051651D01*
X0010486Y0052285D01*
X0008584Y0052285D01*
X0008584Y0054186D02*
X0008584Y0050383D01*
X0010486Y0052285D02*
X0011120Y0052919D01*
X0011120Y0053552D01*
X0010486Y0054186D01*
X0008584Y0054186D01*
X0012728Y0052919D02*
X0012728Y0050383D01*
X0012728Y0051651D02*
X0013996Y0052919D01*
X0014629Y0052919D01*
X0016815Y0052919D02*
X0018082Y0052919D01*
X0018716Y0052285D01*
X0018716Y0050383D01*
X0016815Y0050383D01*
X0016181Y0051017D01*
X0016815Y0051651D01*
X0018716Y0051651D01*
X0020324Y0052285D02*
X0020324Y0051017D01*
X0020958Y0050383D01*
X0022860Y0050383D01*
X0024468Y0051017D02*
X0024468Y0052285D01*
X0025102Y0052919D01*
X0026369Y0052919D01*
X0027003Y0052285D01*
X0027003Y0051651D01*
X0024468Y0051651D01*
X0024468Y0051017D02*
X0025102Y0050383D01*
X0026369Y0050383D01*
X0028611Y0050383D02*
X0029879Y0050383D01*
X0029245Y0050383D02*
X0029245Y0054186D01*
X0028611Y0054186D01*
X0031374Y0052285D02*
X0031374Y0051017D01*
X0032008Y0050383D01*
X0033275Y0050383D01*
X0033909Y0051651D02*
X0031374Y0051651D01*
X0031374Y0052285D02*
X0032008Y0052919D01*
X0033275Y0052919D01*
X0033909Y0052285D01*
X0033909Y0051651D01*
X0035517Y0052919D02*
X0036785Y0052919D01*
X0036151Y0053552D02*
X0036151Y0051017D01*
X0036785Y0050383D01*
X0042423Y0052919D02*
X0043691Y0050383D01*
X0044959Y0052919D01*
X0046567Y0053552D02*
X0047201Y0054186D01*
X0048468Y0054186D01*
X0049102Y0053552D01*
X0049102Y0052919D01*
X0046567Y0050383D01*
X0049102Y0050383D01*
X0022860Y0052919D02*
X0020958Y0052919D01*
X0020324Y0052285D01*
D12*
X0072360Y0119033D02*
X0073778Y0119033D01*
X0073778Y0120451D01*
X0072360Y0120451D01*
X0072360Y0119033D01*
D13*
X0021341Y0114935D02*
X0021341Y0114468D01*
X0019473Y0112600D01*
X0019473Y0112133D01*
X0018111Y0113067D02*
X0016710Y0113067D01*
X0016710Y0112133D02*
X0016710Y0114935D01*
X0018111Y0114935D01*
X0018578Y0114468D01*
X0018578Y0113534D01*
X0018111Y0113067D01*
X0019473Y0114935D02*
X0021341Y0114935D01*
X0020874Y0103685D02*
X0021341Y0103218D01*
X0021341Y0102751D01*
X0020874Y0102284D01*
X0019940Y0102284D01*
X0019473Y0102751D01*
X0019473Y0103218D01*
X0019940Y0103685D01*
X0020874Y0103685D01*
X0020874Y0102284D02*
X0021341Y0101817D01*
X0021341Y0101350D01*
X0020874Y0100883D01*
X0019940Y0100883D01*
X0019473Y0101350D01*
X0019473Y0101817D01*
X0019940Y0102284D01*
X0018578Y0102284D02*
X0018111Y0101817D01*
X0016710Y0101817D01*
X0016710Y0100883D02*
X0016710Y0103685D01*
X0018111Y0103685D01*
X0018578Y0103218D01*
X0018578Y0102284D01*
X0018111Y0092435D02*
X0016710Y0092435D01*
X0016710Y0089633D01*
X0016710Y0090567D02*
X0018111Y0090567D01*
X0018578Y0091034D01*
X0018578Y0091968D01*
X0018111Y0092435D01*
X0019473Y0091968D02*
X0019473Y0091501D01*
X0019940Y0091034D01*
X0021341Y0091034D01*
X0021341Y0090100D02*
X0021341Y0091968D01*
X0020874Y0092435D01*
X0019940Y0092435D01*
X0019473Y0091968D01*
X0019473Y0090100D02*
X0019940Y0089633D01*
X0020874Y0089633D01*
X0021341Y0090100D01*
X0013510Y0143883D02*
X0010708Y0143883D01*
X0011642Y0144817D01*
X0010708Y0145751D01*
X0013510Y0145751D01*
X0013043Y0146645D02*
X0013510Y0147112D01*
X0013510Y0148047D01*
X0013043Y0148514D01*
X0011175Y0148514D01*
X0010708Y0148047D01*
X0010708Y0147112D01*
X0011175Y0146645D01*
X0013043Y0146645D01*
X0010708Y0149408D02*
X0010708Y0151276D01*
X0010708Y0150342D02*
X0013510Y0150342D01*
X0013043Y0152170D02*
X0013510Y0152637D01*
X0013510Y0153571D01*
X0013043Y0154038D01*
X0011175Y0154038D01*
X0010708Y0153571D01*
X0010708Y0152637D01*
X0011175Y0152170D01*
X0013043Y0152170D01*
X0012576Y0154932D02*
X0012576Y0156334D01*
X0012109Y0156801D01*
X0011175Y0156801D01*
X0010708Y0156334D01*
X0010708Y0154932D01*
X0013510Y0154932D01*
X0012576Y0155867D02*
X0013510Y0156801D01*
X0123836Y0157270D02*
X0123836Y0155402D01*
X0124303Y0154935D01*
X0125237Y0154935D01*
X0125704Y0155402D01*
X0125704Y0156336D01*
X0124770Y0156336D01*
X0123836Y0157270D02*
X0124303Y0157737D01*
X0125237Y0157737D01*
X0125704Y0157270D01*
X0126598Y0157737D02*
X0128467Y0154935D01*
X0128467Y0157737D01*
X0129361Y0157737D02*
X0130762Y0157737D01*
X0131229Y0157270D01*
X0131229Y0155402D01*
X0130762Y0154935D01*
X0129361Y0154935D01*
X0129361Y0157737D01*
X0126598Y0157737D02*
X0126598Y0154935D01*
X0126868Y0146281D02*
X0126401Y0145814D01*
X0126401Y0143946D01*
X0126868Y0143479D01*
X0127802Y0143479D01*
X0128269Y0143946D01*
X0129164Y0143946D02*
X0129164Y0145814D01*
X0129631Y0146281D01*
X0130565Y0146281D01*
X0131032Y0145814D01*
X0131032Y0143946D02*
X0130565Y0143479D01*
X0129631Y0143479D01*
X0129164Y0143946D01*
X0128269Y0145814D02*
X0127802Y0146281D01*
X0126868Y0146281D01*
X0125507Y0146281D02*
X0125507Y0144413D01*
X0124573Y0143479D01*
X0123639Y0144413D01*
X0123639Y0146281D01*
X0124210Y0114935D02*
X0126078Y0114935D01*
X0126973Y0114935D02*
X0128841Y0112133D01*
X0126973Y0112133D02*
X0128841Y0114935D01*
X0125144Y0114935D02*
X0125144Y0112133D01*
X0125611Y0103685D02*
X0124210Y0103685D01*
X0124210Y0100883D01*
X0124210Y0101817D02*
X0125611Y0101817D01*
X0126078Y0102284D01*
X0126078Y0103218D01*
X0125611Y0103685D01*
X0126973Y0103685D02*
X0128841Y0100883D01*
X0126973Y0100883D02*
X0128841Y0103685D01*
X0126078Y0100883D02*
X0125144Y0101817D01*
X0125611Y0092435D02*
X0124210Y0092435D01*
X0124210Y0089633D01*
X0124210Y0090567D02*
X0125611Y0090567D01*
X0126078Y0091034D01*
X0126078Y0091968D01*
X0125611Y0092435D01*
X0126973Y0091968D02*
X0127440Y0092435D01*
X0128374Y0092435D01*
X0128841Y0091968D01*
X0128841Y0091501D01*
X0126973Y0089633D01*
X0128841Y0089633D01*
X0129735Y0091034D02*
X0131603Y0091034D01*
X0131136Y0089633D02*
X0131136Y0092435D01*
X0129735Y0091034D01*
X0130202Y0081185D02*
X0131136Y0081185D01*
X0131603Y0080718D01*
X0131603Y0080251D01*
X0131136Y0079784D01*
X0131603Y0079317D01*
X0131603Y0078850D01*
X0131136Y0078383D01*
X0130202Y0078383D01*
X0129735Y0078850D01*
X0128841Y0078383D02*
X0126973Y0078383D01*
X0128841Y0080251D01*
X0128841Y0080718D01*
X0128374Y0081185D01*
X0127440Y0081185D01*
X0126973Y0080718D01*
X0126078Y0080718D02*
X0125611Y0081185D01*
X0124210Y0081185D01*
X0124210Y0078383D01*
X0124210Y0079317D02*
X0125611Y0079317D01*
X0126078Y0079784D01*
X0126078Y0080718D01*
X0129735Y0080718D02*
X0130202Y0081185D01*
X0130669Y0079784D02*
X0131136Y0079784D01*
X0131136Y0069935D02*
X0130202Y0069935D01*
X0129735Y0069468D01*
X0128841Y0069468D02*
X0128374Y0069935D01*
X0127440Y0069935D01*
X0126973Y0069468D01*
X0126078Y0069468D02*
X0126078Y0068534D01*
X0125611Y0068067D01*
X0124210Y0068067D01*
X0124210Y0067133D02*
X0124210Y0069935D01*
X0125611Y0069935D01*
X0126078Y0069468D01*
X0126973Y0067133D02*
X0128841Y0069001D01*
X0128841Y0069468D01*
X0131136Y0069935D02*
X0131603Y0069468D01*
X0131603Y0069001D01*
X0129735Y0067133D01*
X0131603Y0067133D01*
X0128841Y0067133D02*
X0126973Y0067133D01*
X0127907Y0058685D02*
X0127907Y0055883D01*
X0126973Y0055883D02*
X0128841Y0055883D01*
X0129735Y0056350D02*
X0130202Y0055883D01*
X0131136Y0055883D01*
X0131603Y0056350D01*
X0131603Y0058218D01*
X0131136Y0058685D01*
X0130202Y0058685D01*
X0129735Y0058218D01*
X0129735Y0057751D01*
X0130202Y0057284D01*
X0131603Y0057284D01*
X0127907Y0058685D02*
X0126973Y0057751D01*
X0126078Y0057284D02*
X0125611Y0056817D01*
X0124210Y0056817D01*
X0124210Y0055883D02*
X0124210Y0058685D01*
X0125611Y0058685D01*
X0126078Y0058218D01*
X0126078Y0057284D01*
D14*
X0075710Y0101683D03*
X0071910Y0097883D03*
X0073510Y0090883D03*
X0069810Y0109583D03*
X0068310Y0111283D03*
X0066310Y0112883D03*
X0066110Y0112783D03*
X0080910Y0112783D03*
D15*
X0078310Y0113883D03*
X0080010Y0103683D03*
X0080110Y0103583D03*
X0080110Y0103483D03*
X0080210Y0103283D03*
X0080410Y0097183D03*
X0080110Y0096383D03*
X0073510Y0090983D03*
D16*
X0073560Y0091083D03*
X0079060Y0094983D03*
X0080460Y0099483D03*
X0080460Y0099583D03*
X0080360Y0101783D03*
X0073560Y0110483D03*
X0066860Y0097583D03*
X0066860Y0097483D03*
X0066860Y0097383D03*
X0067960Y0094983D03*
D17*
X0073510Y0091183D03*
X0078410Y0094583D03*
X0080110Y0100283D03*
X0067910Y0104083D03*
X0067810Y0103983D03*
X0067710Y0103883D03*
D18*
X0068510Y0104683D03*
X0067210Y0099783D03*
X0073510Y0091283D03*
X0073510Y0115083D03*
D19*
X0069160Y0105083D03*
X0067560Y0099083D03*
X0067660Y0098983D03*
X0073560Y0091383D03*
X0079460Y0101083D03*
D20*
X0073510Y0091483D03*
X0069610Y0105283D03*
D21*
X0073560Y0091583D03*
D22*
X0073510Y0091683D03*
X0073610Y0112383D03*
D23*
X0073560Y0091783D03*
D24*
X0073560Y0091883D03*
D25*
X0073510Y0091983D03*
D26*
X0073560Y0092083D03*
D27*
X0073510Y0092183D03*
D28*
X0073560Y0092283D03*
D29*
X0073510Y0092383D03*
X0073510Y0114483D03*
D30*
X0073510Y0107383D03*
X0073510Y0092483D03*
D31*
X0073510Y0092583D03*
X0073510Y0114383D03*
D32*
X0073560Y0092683D03*
D33*
X0073510Y0092783D03*
X0073510Y0107083D03*
D34*
X0073510Y0106983D03*
X0073510Y0092883D03*
D35*
X0073510Y0092983D03*
D36*
X0073510Y0093083D03*
X0073510Y0106883D03*
X0073510Y0114183D03*
D37*
X0073560Y0093183D03*
D38*
X0073560Y0093283D03*
D39*
X0073560Y0093383D03*
D40*
X0073560Y0093483D03*
D41*
X0073510Y0093583D03*
X0073510Y0106283D03*
D42*
X0073560Y0093683D03*
D43*
X0073560Y0093783D03*
D44*
X0073510Y0093883D03*
X0073510Y0106083D03*
D45*
X0073510Y0093983D03*
D46*
X0073510Y0094083D03*
X0073510Y0105783D03*
D47*
X0073510Y0105683D03*
X0073510Y0094183D03*
D48*
X0069660Y0094283D03*
X0067860Y0098683D03*
X0079160Y0101283D03*
D49*
X0079510Y0100983D03*
X0077610Y0094283D03*
X0067510Y0099183D03*
X0073610Y0112583D03*
D50*
X0068610Y0104783D03*
X0067310Y0099583D03*
X0069210Y0094383D03*
D51*
X0067160Y0099883D03*
X0067160Y0099983D03*
X0068360Y0104583D03*
X0077960Y0094383D03*
X0079860Y0100683D03*
D52*
X0068860Y0094483D03*
X0067060Y0100183D03*
X0067060Y0100283D03*
X0068160Y0104383D03*
D53*
X0068110Y0104283D03*
X0068010Y0104183D03*
X0067010Y0100383D03*
X0073510Y0108683D03*
X0073510Y0110383D03*
X0073610Y0112683D03*
X0080010Y0100483D03*
X0078210Y0094483D03*
D54*
X0080060Y0100383D03*
X0068660Y0094583D03*
X0066960Y0100483D03*
X0066960Y0100583D03*
X0066960Y0100683D03*
X0066960Y0100783D03*
D55*
X0066960Y0101683D03*
X0066960Y0101783D03*
X0066960Y0101883D03*
X0066960Y0101983D03*
X0066960Y0102083D03*
X0066960Y0102183D03*
X0067060Y0102283D03*
X0067060Y0102383D03*
X0067060Y0102483D03*
X0067160Y0102583D03*
X0067160Y0102683D03*
X0067160Y0102783D03*
X0067260Y0102883D03*
X0067260Y0102983D03*
X0067360Y0103183D03*
X0067460Y0103383D03*
X0066860Y0098383D03*
X0068460Y0094683D03*
X0080260Y0099983D03*
X0080160Y0101483D03*
X0070960Y0111983D03*
D56*
X0069710Y0114083D03*
X0067510Y0103483D03*
X0067410Y0103283D03*
X0067310Y0103083D03*
X0066910Y0101583D03*
X0066910Y0101483D03*
X0066910Y0101383D03*
X0066910Y0101283D03*
X0066910Y0098483D03*
X0078610Y0094683D03*
X0080210Y0100083D03*
D57*
X0080360Y0099783D03*
X0078860Y0094883D03*
X0068260Y0094783D03*
X0068160Y0094883D03*
X0066860Y0098183D03*
D58*
X0066810Y0098283D03*
X0073510Y0108783D03*
X0073610Y0115183D03*
X0080210Y0101583D03*
X0080310Y0099883D03*
X0078810Y0094783D03*
D59*
X0079110Y0095083D03*
X0079210Y0095183D03*
X0079310Y0095283D03*
X0080510Y0099183D03*
X0080510Y0099283D03*
X0080510Y0099383D03*
X0080310Y0101883D03*
X0079110Y0104983D03*
X0073610Y0112783D03*
X0066910Y0097283D03*
X0066910Y0097183D03*
X0067010Y0096983D03*
X0067010Y0096883D03*
X0067110Y0096783D03*
X0067110Y0096683D03*
X0067110Y0096583D03*
X0067210Y0096283D03*
X0067310Y0096083D03*
X0067910Y0095083D03*
D60*
X0067760Y0095183D03*
X0067760Y0095283D03*
X0067660Y0095383D03*
X0067460Y0095683D03*
X0067460Y0095783D03*
X0067360Y0095883D03*
X0067360Y0095983D03*
X0067260Y0096183D03*
X0067160Y0096383D03*
X0067160Y0096483D03*
X0066960Y0097083D03*
X0080560Y0098983D03*
X0080560Y0099083D03*
X0080360Y0101983D03*
D61*
X0080410Y0102083D03*
X0080410Y0102183D03*
X0079310Y0104783D03*
X0079210Y0104883D03*
X0080610Y0098883D03*
X0080610Y0098783D03*
X0080610Y0098683D03*
X0079610Y0095583D03*
X0079510Y0095483D03*
X0079410Y0095383D03*
X0067610Y0095483D03*
X0067510Y0095583D03*
X0069110Y0113983D03*
D62*
X0077960Y0113983D03*
X0080360Y0102383D03*
X0080560Y0098583D03*
X0080560Y0098483D03*
X0079760Y0095783D03*
X0079660Y0095683D03*
D63*
X0079810Y0095883D03*
X0079810Y0095983D03*
X0079910Y0096083D03*
X0080610Y0098183D03*
X0080610Y0098283D03*
X0080610Y0098383D03*
X0080410Y0102283D03*
X0080410Y0102483D03*
X0080410Y0102583D03*
X0080310Y0102883D03*
X0080310Y0102983D03*
X0079710Y0104283D03*
X0079610Y0104383D03*
X0079610Y0104483D03*
X0079510Y0104583D03*
X0079410Y0104683D03*
X0073510Y0108883D03*
X0077010Y0111883D03*
D64*
X0079760Y0104183D03*
X0079860Y0104083D03*
X0079860Y0103983D03*
X0079960Y0103883D03*
X0079960Y0103783D03*
X0080160Y0103383D03*
X0080260Y0103183D03*
X0080260Y0103083D03*
X0080360Y0102783D03*
X0080360Y0102683D03*
X0080560Y0098083D03*
X0080560Y0097983D03*
X0080560Y0097883D03*
X0080560Y0097783D03*
X0080460Y0097683D03*
X0080460Y0097583D03*
X0080460Y0097483D03*
X0080460Y0097383D03*
X0080460Y0097283D03*
X0080360Y0097083D03*
X0080360Y0096983D03*
X0080260Y0096883D03*
X0080260Y0096783D03*
X0080260Y0096683D03*
X0080160Y0096583D03*
X0080160Y0096483D03*
X0080060Y0096283D03*
X0079960Y0096183D03*
X0070160Y0111883D03*
X0068760Y0113883D03*
D65*
X0067910Y0108683D03*
X0067410Y0108383D03*
X0067310Y0108283D03*
X0066910Y0107983D03*
X0063410Y0110683D03*
X0070910Y0098483D03*
X0071010Y0098383D03*
X0073210Y0096383D03*
X0079910Y0108183D03*
X0079610Y0108383D03*
X0079310Y0108583D03*
X0082010Y0109283D03*
X0082110Y0109183D03*
X0082210Y0109083D03*
X0082310Y0108983D03*
D66*
X0083110Y0111283D03*
X0082610Y0111683D03*
X0082510Y0111783D03*
X0077810Y0109383D03*
X0073510Y0110683D03*
X0067510Y0110883D03*
X0067310Y0110783D03*
X0067110Y0110683D03*
X0064710Y0111883D03*
X0064410Y0111683D03*
X0071510Y0098083D03*
X0073110Y0096483D03*
D67*
X0073110Y0096583D03*
X0071710Y0097983D03*
X0074610Y0102683D03*
X0079110Y0111183D03*
X0079310Y0111083D03*
X0081610Y0112383D03*
X0081910Y0112183D03*
X0082210Y0111983D03*
X0067910Y0111083D03*
X0065610Y0112483D03*
D68*
X0066510Y0112983D03*
X0066710Y0113083D03*
X0066910Y0113183D03*
X0068810Y0111483D03*
X0070110Y0109683D03*
X0074810Y0102383D03*
X0075410Y0101783D03*
X0073010Y0096683D03*
X0078610Y0111383D03*
X0078110Y0111583D03*
X0080110Y0113183D03*
X0080310Y0113083D03*
X0080510Y0112983D03*
D69*
X0079910Y0113283D03*
X0079710Y0113383D03*
X0073510Y0108983D03*
X0070510Y0109783D03*
X0067310Y0113383D03*
X0075010Y0102083D03*
X0075210Y0101983D03*
X0073010Y0096783D03*
D70*
X0072960Y0096883D03*
X0072260Y0097683D03*
X0069360Y0111683D03*
X0077860Y0111683D03*
D71*
X0079410Y0113483D03*
X0067610Y0113483D03*
X0072410Y0097583D03*
X0072910Y0096983D03*
D72*
X0072860Y0097083D03*
D73*
X0072810Y0097183D03*
X0072710Y0097283D03*
X0072510Y0097483D03*
X0069710Y0111783D03*
X0073510Y0115283D03*
X0077510Y0111783D03*
D74*
X0078860Y0113683D03*
X0079160Y0113583D03*
X0076060Y0109883D03*
X0070960Y0109883D03*
X0068160Y0113683D03*
X0067860Y0113583D03*
X0072660Y0097383D03*
D75*
X0066810Y0097683D03*
X0066810Y0097783D03*
X0066810Y0097883D03*
X0066810Y0097983D03*
X0066810Y0098083D03*
X0076310Y0111983D03*
X0080310Y0101683D03*
X0080410Y0099683D03*
D76*
X0075260Y0101883D03*
X0074960Y0102183D03*
X0074860Y0102283D03*
X0072060Y0097783D03*
X0076560Y0109783D03*
X0073560Y0112883D03*
X0069060Y0111583D03*
X0067160Y0113283D03*
D77*
X0066660Y0110383D03*
X0066360Y0110183D03*
X0066160Y0110083D03*
X0066060Y0109983D03*
X0063560Y0110983D03*
X0071360Y0098183D03*
X0080960Y0110083D03*
X0080860Y0110183D03*
X0081260Y0109883D03*
X0083360Y0111083D03*
X0083760Y0110683D03*
D78*
X0081510Y0109683D03*
X0081410Y0109783D03*
X0081110Y0109983D03*
X0078810Y0108883D03*
X0068210Y0108883D03*
X0067710Y0108583D03*
X0065910Y0109883D03*
X0065810Y0109783D03*
X0065710Y0109683D03*
X0065510Y0109583D03*
X0065410Y0109483D03*
X0063410Y0110783D03*
X0071210Y0098283D03*
D79*
X0066960Y0098583D03*
X0066960Y0100883D03*
X0066960Y0100983D03*
X0066960Y0101083D03*
X0066960Y0101183D03*
X0067560Y0103583D03*
X0067660Y0103683D03*
X0067660Y0103783D03*
X0077260Y0114083D03*
X0080160Y0100183D03*
D80*
X0080260Y0107883D03*
X0080160Y0107983D03*
X0080060Y0108083D03*
X0079760Y0108283D03*
X0070760Y0098583D03*
X0066660Y0107783D03*
X0066760Y0107883D03*
X0067060Y0108083D03*
X0067160Y0108183D03*
D81*
X0073510Y0108483D03*
X0077610Y0105283D03*
X0079310Y0101183D03*
X0067810Y0098783D03*
X0073510Y0114983D03*
D82*
X0077760Y0105183D03*
X0067760Y0098883D03*
D83*
X0067460Y0099283D03*
D84*
X0067410Y0099383D03*
X0068810Y0104883D03*
X0068910Y0104983D03*
X0073510Y0110283D03*
X0078110Y0105083D03*
D85*
X0079660Y0100883D03*
X0073560Y0108583D03*
X0067360Y0099483D03*
D86*
X0067260Y0099683D03*
X0079760Y0100783D03*
D87*
X0079910Y0100583D03*
X0068310Y0104483D03*
X0067110Y0100083D03*
D88*
X0073560Y0108383D03*
X0078960Y0101383D03*
D89*
X0076160Y0101483D03*
X0074660Y0102583D03*
X0077260Y0109583D03*
X0081060Y0112683D03*
X0081260Y0112583D03*
X0081460Y0112483D03*
X0068060Y0111183D03*
X0065960Y0112683D03*
X0065760Y0112583D03*
X0065460Y0112383D03*
D90*
X0068560Y0111383D03*
X0074760Y0102483D03*
X0075860Y0101583D03*
X0076960Y0109683D03*
X0078360Y0111483D03*
X0078860Y0111283D03*
X0080760Y0112883D03*
D91*
X0081760Y0112283D03*
X0082060Y0112083D03*
X0082360Y0111883D03*
X0079860Y0110783D03*
X0079660Y0110883D03*
X0079460Y0110983D03*
X0077560Y0109483D03*
X0074560Y0102783D03*
X0069460Y0109483D03*
X0067660Y0110983D03*
X0065260Y0112283D03*
X0065160Y0112183D03*
X0064960Y0112083D03*
X0064860Y0111983D03*
X0064560Y0111783D03*
D92*
X0063910Y0111283D03*
X0063710Y0111083D03*
X0063410Y0110883D03*
X0066510Y0110283D03*
X0066810Y0110483D03*
X0068410Y0108983D03*
X0068610Y0109083D03*
X0068810Y0109183D03*
X0074510Y0102883D03*
X0078010Y0109283D03*
X0078210Y0109183D03*
X0078410Y0109083D03*
X0078610Y0108983D03*
X0080410Y0110483D03*
X0080510Y0110383D03*
X0080710Y0110283D03*
X0083510Y0110983D03*
X0083610Y0110883D03*
X0083710Y0110783D03*
D93*
X0083760Y0110583D03*
X0081860Y0109383D03*
X0081760Y0109483D03*
X0081660Y0109583D03*
X0079460Y0108483D03*
X0079160Y0108683D03*
X0078960Y0108783D03*
X0074460Y0102983D03*
X0068060Y0108783D03*
X0067560Y0108483D03*
X0065260Y0109383D03*
X0065160Y0109283D03*
X0065060Y0109183D03*
X0064960Y0109083D03*
D94*
X0066360Y0107483D03*
X0074460Y0103083D03*
X0080860Y0107383D03*
X0082260Y0108883D03*
D95*
X0082310Y0108483D03*
X0083810Y0110083D03*
X0076010Y0104883D03*
X0066410Y0107183D03*
X0064910Y0108583D03*
X0063410Y0110183D03*
D96*
X0063360Y0110483D03*
X0064960Y0108883D03*
X0066360Y0107383D03*
X0075960Y0104983D03*
X0080860Y0107283D03*
D97*
X0069410Y0105183D03*
D98*
X0073560Y0105383D03*
D99*
X0073510Y0105483D03*
D100*
X0073510Y0105583D03*
D101*
X0073560Y0105883D03*
D102*
X0073560Y0105983D03*
D103*
X0073510Y0106183D03*
D104*
X0073510Y0106383D03*
D105*
X0073510Y0106483D03*
D106*
X0073510Y0106583D03*
D107*
X0073510Y0106683D03*
D108*
X0073510Y0106783D03*
D109*
X0073960Y0111983D03*
X0075060Y0112883D03*
X0072060Y0112883D03*
X0071160Y0115183D03*
X0069260Y0114783D03*
X0063360Y0110083D03*
X0064960Y0108483D03*
X0066360Y0107083D03*
X0080860Y0106883D03*
D110*
X0080860Y0106983D03*
D111*
X0080860Y0107083D03*
X0082260Y0108583D03*
D112*
X0073510Y0107183D03*
X0073510Y0114283D03*
D113*
X0080860Y0107183D03*
X0064960Y0108783D03*
X0063360Y0110383D03*
D114*
X0063410Y0110283D03*
X0064910Y0108683D03*
X0066410Y0107283D03*
X0082310Y0108683D03*
X0083810Y0110183D03*
D115*
X0073510Y0107283D03*
D116*
X0073560Y0107483D03*
D117*
X0080410Y0107783D03*
X0080510Y0107683D03*
X0080610Y0107583D03*
X0080710Y0107483D03*
X0083810Y0110483D03*
X0066510Y0107683D03*
X0066410Y0107583D03*
X0065010Y0108983D03*
X0063410Y0110583D03*
D118*
X0073510Y0107583D03*
D119*
X0073560Y0107683D03*
X0073460Y0114583D03*
D120*
X0073610Y0112083D03*
X0073510Y0107783D03*
D121*
X0073560Y0107883D03*
D122*
X0073560Y0107983D03*
D123*
X0073510Y0108083D03*
D124*
X0073560Y0108183D03*
X0073560Y0109983D03*
D125*
X0073560Y0108283D03*
D126*
X0082310Y0108383D03*
X0083810Y0109983D03*
D127*
X0083810Y0110283D03*
X0082310Y0108783D03*
D128*
X0083810Y0110383D03*
X0073510Y0109083D03*
D129*
X0069260Y0109383D03*
X0069060Y0109283D03*
X0066960Y0110583D03*
X0064260Y0111583D03*
X0064160Y0111483D03*
X0064060Y0111383D03*
X0063760Y0111183D03*
X0080060Y0110683D03*
X0080260Y0110583D03*
X0082760Y0111583D03*
X0082860Y0111483D03*
X0082960Y0111383D03*
X0083260Y0111183D03*
D130*
X0073510Y0110083D03*
X0073510Y0114883D03*
D131*
X0073560Y0110183D03*
D132*
X0073560Y0110583D03*
D133*
X0073560Y0112183D03*
D134*
X0073560Y0112283D03*
X0073560Y0114783D03*
D135*
X0073610Y0112483D03*
D136*
X0078610Y0113783D03*
X0068410Y0113783D03*
D137*
X0073510Y0114683D03*
D138*
X0063222Y0123243D02*
X0059966Y0126498D01*
X0062137Y0128669D01*
X0063222Y0129754D02*
X0066477Y0126498D01*
X0068648Y0128669D01*
X0065935Y0129211D02*
X0064850Y0128126D01*
X0063222Y0129754D02*
X0065392Y0131924D01*
X0066477Y0133009D02*
X0068648Y0135180D01*
X0067562Y0134095D02*
X0070818Y0130839D01*
X0062679Y0125956D02*
X0061594Y0124871D01*
X0075239Y0141390D02*
X0079843Y0141390D01*
X0079843Y0144459D01*
X0079843Y0145994D02*
X0079843Y0149063D01*
X0079843Y0150598D02*
X0079843Y0152900D01*
X0079076Y0153667D01*
X0076006Y0153667D01*
X0075239Y0152900D01*
X0075239Y0150598D01*
X0079843Y0150598D01*
X0077541Y0147529D02*
X0077541Y0145994D01*
X0075239Y0145994D02*
X0079843Y0145994D01*
X0075239Y0145994D02*
X0075239Y0149063D01*
X0076774Y0155202D02*
X0075239Y0156737D01*
X0079843Y0156737D01*
X0079843Y0158271D02*
X0079843Y0155202D01*
X0108964Y0130800D02*
X0108964Y0126196D01*
X0108964Y0127731D02*
X0111266Y0127731D01*
X0112034Y0128498D01*
X0112034Y0130033D01*
X0111266Y0130800D01*
X0108964Y0130800D01*
X0110499Y0127731D02*
X0112034Y0126196D01*
X0113568Y0128498D02*
X0116637Y0128498D01*
X0115870Y0126196D02*
X0115870Y0130800D01*
X0113568Y0128498D01*
X0114528Y0136618D02*
X0113761Y0137385D01*
X0114528Y0136618D02*
X0116063Y0136618D01*
X0116830Y0137385D01*
X0116830Y0138153D01*
X0116063Y0138920D01*
X0115296Y0138920D01*
X0116063Y0138920D02*
X0116830Y0139687D01*
X0116830Y0140455D01*
X0116063Y0141222D01*
X0114528Y0141222D01*
X0113761Y0140455D01*
X0112227Y0140455D02*
X0112227Y0138920D01*
X0111459Y0138153D01*
X0109157Y0138153D01*
X0110692Y0138153D02*
X0112227Y0136618D01*
X0109157Y0136618D02*
X0109157Y0141222D01*
X0111459Y0141222D01*
X0112227Y0140455D01*
X0112163Y0145392D02*
X0110629Y0146926D01*
X0111396Y0146926D02*
X0109094Y0146926D01*
X0109094Y0145392D02*
X0109094Y0149995D01*
X0111396Y0149995D01*
X0112163Y0149228D01*
X0112163Y0147694D01*
X0111396Y0146926D01*
X0113698Y0145392D02*
X0116767Y0148461D01*
X0116767Y0149228D01*
X0116000Y0149995D01*
X0114465Y0149995D01*
X0113698Y0149228D01*
X0113698Y0145392D02*
X0116767Y0145392D01*
X0116838Y0154313D02*
X0113769Y0154313D01*
X0115304Y0154313D02*
X0115304Y0158917D01*
X0113769Y0157382D01*
X0112234Y0156615D02*
X0111467Y0155847D01*
X0109165Y0155847D01*
X0109165Y0154313D02*
X0109165Y0158917D01*
X0111467Y0158917D01*
X0112234Y0158149D01*
X0112234Y0156615D01*
X0110700Y0155847D02*
X0112234Y0154313D01*
X0111789Y0080734D02*
X0111021Y0079966D01*
X0111021Y0076897D01*
X0111789Y0076130D01*
X0113323Y0076130D01*
X0114091Y0076897D01*
X0115625Y0078432D02*
X0118695Y0078432D01*
X0117927Y0076130D02*
X0117927Y0080734D01*
X0115625Y0078432D01*
X0114091Y0079966D02*
X0113323Y0080734D01*
X0111789Y0080734D01*
X0092301Y0061433D02*
X0092301Y0056829D01*
X0090767Y0056829D02*
X0093836Y0056829D01*
X0090767Y0059899D02*
X0092301Y0061433D01*
X0089232Y0061433D02*
X0089232Y0056829D01*
X0086163Y0056829D02*
X0086163Y0061433D01*
X0087697Y0059899D01*
X0089232Y0061433D01*
X0111260Y0054649D02*
X0111260Y0051580D01*
X0112027Y0050813D01*
X0113562Y0050813D01*
X0114329Y0051580D01*
X0115864Y0051580D02*
X0116631Y0050813D01*
X0118165Y0050813D01*
X0118933Y0051580D01*
X0118933Y0052347D01*
X0118165Y0053115D01*
X0117398Y0053115D01*
X0118165Y0053115D02*
X0118933Y0053882D01*
X0118933Y0054649D01*
X0118165Y0055417D01*
X0116631Y0055417D01*
X0115864Y0054649D01*
X0114329Y0054649D02*
X0113562Y0055417D01*
X0112027Y0055417D01*
X0111260Y0054649D01*
X0031598Y0117244D02*
X0028529Y0117244D01*
X0031598Y0120313D01*
X0031598Y0121081D01*
X0030831Y0121848D01*
X0029297Y0121848D01*
X0028529Y0121081D01*
X0026995Y0121081D02*
X0026227Y0121848D01*
X0024693Y0121848D01*
X0023925Y0121081D01*
X0023925Y0118011D01*
X0024693Y0117244D01*
X0026227Y0117244D01*
X0026995Y0118011D01*
X0026508Y0126177D02*
X0024973Y0126177D01*
X0024206Y0126945D01*
X0024206Y0130014D01*
X0024973Y0130781D01*
X0026508Y0130781D01*
X0027275Y0130014D01*
X0028810Y0129247D02*
X0030345Y0130781D01*
X0030345Y0126177D01*
X0031879Y0126177D02*
X0028810Y0126177D01*
X0027275Y0126945D02*
X0026508Y0126177D01*
X0021472Y0079187D02*
X0021472Y0074583D01*
X0019937Y0074583D02*
X0023007Y0074583D01*
X0019937Y0077652D02*
X0021472Y0079187D01*
X0018403Y0078420D02*
X0018403Y0076885D01*
X0017635Y0076118D01*
X0015333Y0076118D01*
X0013799Y0076118D02*
X0013799Y0075350D01*
X0013031Y0074583D01*
X0011497Y0074583D01*
X0010730Y0075350D01*
X0011497Y0076885D02*
X0013031Y0076885D01*
X0013799Y0076118D01*
X0015333Y0074583D02*
X0015333Y0079187D01*
X0017635Y0079187D01*
X0018403Y0078420D01*
X0013799Y0078420D02*
X0013031Y0079187D01*
X0011497Y0079187D01*
X0010730Y0078420D01*
X0010730Y0077652D01*
X0011497Y0076885D01*
X0009195Y0074583D02*
X0007660Y0074583D01*
X0008428Y0074583D02*
X0008428Y0079187D01*
X0009195Y0079187D02*
X0007660Y0079187D01*
M02*
